<?xml version="1.0" encoding="utf-8"?>
<svg xmlns="http://www.w3.org/2000/svg" xmlns:xlink="http://www.w3.org/1999/xlink" width="800" height="400" viewBox="0 0 3200 1600">
<defs>
  <clipPath id="clip600">
    <rect x="0" y="0" width="3200" height="1600"/>
  </clipPath>
</defs>
<path clip-path="url(#clip600)" d="M0 1600 L3200 1600 L3200 0 L0 0  Z" fill="#ffffff" fill-rule="evenodd" fill-opacity="1"/>
<defs>
  <clipPath id="clip601">
    <rect x="640" y="0" width="2241" height="1600"/>
  </clipPath>
</defs>
<path clip-path="url(#clip600)" d="M94.9921 1521.01 L1552.76 1521.01 L1552.76 47.2441 L94.9921 47.2441  Z" fill="#ffffff" fill-rule="evenodd" fill-opacity="1"/>
<defs>
  <clipPath id="clip602">
    <rect x="94" y="47" width="1459" height="1475"/>
  </clipPath>
</defs>
<polyline clip-path="url(#clip600)" style="stroke:#000000; stroke-linecap:round; stroke-linejoin:round; stroke-width:4; stroke-opacity:1; fill:none" points="51.2592,1521.01 1596.49,1521.01 "/>
<path clip-path="url(#clip600)" d="M57.2956 1558.33 Q53.6845 1558.33 51.8558 1561.89 Q50.0502 1565.43 50.0502 1572.56 Q50.0502 1579.67 51.8558 1583.23 Q53.6845 1586.78 57.2956 1586.78 Q60.9298 1586.78 62.7354 1583.23 Q64.564 1579.67 64.564 1572.56 Q64.564 1565.43 62.7354 1561.89 Q60.9298 1558.33 57.2956 1558.33 M57.2956 1554.62 Q63.1057 1554.62 66.1613 1559.23 Q69.2399 1563.81 69.2399 1572.56 Q69.2399 1581.29 66.1613 1585.9 Q63.1057 1590.48 57.2956 1590.48 Q51.4854 1590.48 48.4067 1585.9 Q45.3512 1581.29 45.3512 1572.56 Q45.3512 1563.81 48.4067 1559.23 Q51.4854 1554.62 57.2956 1554.62 Z" fill="#000000" fill-rule="nonzero" fill-opacity="1" /><path clip-path="url(#clip600)" d="M77.4575 1583.93 L82.3417 1583.93 L82.3417 1589.81 L77.4575 1589.81 L77.4575 1583.93 Z" fill="#000000" fill-rule="nonzero" fill-opacity="1" /><path clip-path="url(#clip600)" d="M102.527 1558.33 Q98.9157 1558.33 97.087 1561.89 Q95.2815 1565.43 95.2815 1572.56 Q95.2815 1579.67 97.087 1583.23 Q98.9157 1586.78 102.527 1586.78 Q106.161 1586.78 107.967 1583.23 Q109.795 1579.67 109.795 1572.56 Q109.795 1565.43 107.967 1561.89 Q106.161 1558.33 102.527 1558.33 M102.527 1554.62 Q108.337 1554.62 111.393 1559.23 Q114.471 1563.81 114.471 1572.56 Q114.471 1581.29 111.393 1585.9 Q108.337 1590.48 102.527 1590.48 Q96.7167 1590.48 93.638 1585.9 Q90.5824 1581.29 90.5824 1572.56 Q90.5824 1563.81 93.638 1559.23 Q96.7167 1554.62 102.527 1554.62 Z" fill="#000000" fill-rule="nonzero" fill-opacity="1" /><path clip-path="url(#clip600)" d="M132.689 1558.33 Q129.078 1558.33 127.249 1561.89 Q125.443 1565.43 125.443 1572.56 Q125.443 1579.67 127.249 1583.23 Q129.078 1586.78 132.689 1586.78 Q136.323 1586.78 138.128 1583.23 Q139.957 1579.67 139.957 1572.56 Q139.957 1565.43 138.128 1561.89 Q136.323 1558.33 132.689 1558.33 M132.689 1554.62 Q138.499 1554.62 141.554 1559.23 Q144.633 1563.81 144.633 1572.56 Q144.633 1581.29 141.554 1585.9 Q138.499 1590.48 132.689 1590.48 Q126.879 1590.48 123.8 1585.9 Q120.744 1581.29 120.744 1572.56 Q120.744 1563.81 123.8 1559.23 Q126.879 1554.62 132.689 1554.62 Z" fill="#000000" fill-rule="nonzero" fill-opacity="1" /><path clip-path="url(#clip600)" d="M422.234 1558.33 Q418.623 1558.33 416.794 1561.89 Q414.989 1565.43 414.989 1572.56 Q414.989 1579.67 416.794 1583.23 Q418.623 1586.78 422.234 1586.78 Q425.868 1586.78 427.674 1583.23 Q429.503 1579.67 429.503 1572.56 Q429.503 1565.43 427.674 1561.89 Q425.868 1558.33 422.234 1558.33 M422.234 1554.62 Q428.044 1554.62 431.1 1559.23 Q434.179 1563.81 434.179 1572.56 Q434.179 1581.29 431.1 1585.9 Q428.044 1590.48 422.234 1590.48 Q416.424 1590.48 413.345 1585.9 Q410.29 1581.29 410.29 1572.56 Q410.29 1563.81 413.345 1559.23 Q416.424 1554.62 422.234 1554.62 Z" fill="#000000" fill-rule="nonzero" fill-opacity="1" /><path clip-path="url(#clip600)" d="M442.396 1583.93 L447.28 1583.93 L447.28 1589.81 L442.396 1589.81 L442.396 1583.93 Z" fill="#000000" fill-rule="nonzero" fill-opacity="1" /><path clip-path="url(#clip600)" d="M461.493 1585.87 L477.813 1585.87 L477.813 1589.81 L455.868 1589.81 L455.868 1585.87 Q458.53 1583.12 463.114 1578.49 Q467.72 1573.84 468.901 1572.49 Q471.146 1569.97 472.026 1568.23 Q472.928 1566.47 472.928 1564.78 Q472.928 1562.03 470.984 1560.29 Q469.063 1558.56 465.961 1558.56 Q463.762 1558.56 461.308 1559.32 Q458.878 1560.09 456.1 1561.64 L456.1 1556.91 Q458.924 1555.78 461.378 1555.2 Q463.831 1554.62 465.868 1554.62 Q471.239 1554.62 474.433 1557.31 Q477.627 1559.99 477.627 1564.48 Q477.627 1566.61 476.817 1568.53 Q476.03 1570.43 473.924 1573.03 Q473.345 1573.7 470.243 1576.91 Q467.141 1580.11 461.493 1585.87 Z" fill="#000000" fill-rule="nonzero" fill-opacity="1" /><path clip-path="url(#clip600)" d="M487.674 1555.25 L506.03 1555.25 L506.03 1559.18 L491.956 1559.18 L491.956 1567.66 Q492.975 1567.31 493.993 1567.15 Q495.012 1566.96 496.03 1566.96 Q501.817 1566.96 505.197 1570.13 Q508.576 1573.3 508.576 1578.72 Q508.576 1584.3 505.104 1587.4 Q501.632 1590.48 495.313 1590.48 Q493.137 1590.48 490.868 1590.11 Q488.623 1589.74 486.215 1589 L486.215 1584.3 Q488.299 1585.43 490.521 1585.99 Q492.743 1586.54 495.22 1586.54 Q499.225 1586.54 501.562 1584.44 Q503.9 1582.33 503.9 1578.72 Q503.9 1575.11 501.562 1573 Q499.225 1570.9 495.22 1570.9 Q493.345 1570.9 491.47 1571.31 Q489.618 1571.73 487.674 1572.61 L487.674 1555.25 Z" fill="#000000" fill-rule="nonzero" fill-opacity="1" /><path clip-path="url(#clip600)" d="M786.177 1558.33 Q782.566 1558.33 780.738 1561.89 Q778.932 1565.43 778.932 1572.56 Q778.932 1579.67 780.738 1583.23 Q782.566 1586.78 786.177 1586.78 Q789.812 1586.78 791.617 1583.23 Q793.446 1579.67 793.446 1572.56 Q793.446 1565.43 791.617 1561.89 Q789.812 1558.33 786.177 1558.33 M786.177 1554.62 Q791.988 1554.62 795.043 1559.23 Q798.122 1563.81 798.122 1572.56 Q798.122 1581.29 795.043 1585.9 Q791.988 1590.48 786.177 1590.48 Q780.367 1590.48 777.289 1585.9 Q774.233 1581.29 774.233 1572.56 Q774.233 1563.81 777.289 1559.23 Q780.367 1554.62 786.177 1554.62 Z" fill="#000000" fill-rule="nonzero" fill-opacity="1" /><path clip-path="url(#clip600)" d="M806.339 1583.93 L811.224 1583.93 L811.224 1589.81 L806.339 1589.81 L806.339 1583.93 Z" fill="#000000" fill-rule="nonzero" fill-opacity="1" /><path clip-path="url(#clip600)" d="M821.455 1555.25 L839.811 1555.25 L839.811 1559.18 L825.737 1559.18 L825.737 1567.66 Q826.756 1567.31 827.774 1567.15 Q828.793 1566.96 829.811 1566.96 Q835.598 1566.96 838.978 1570.13 Q842.358 1573.3 842.358 1578.72 Q842.358 1584.3 838.886 1587.4 Q835.413 1590.48 829.094 1590.48 Q826.918 1590.48 824.649 1590.11 Q822.404 1589.74 819.997 1589 L819.997 1584.3 Q822.08 1585.43 824.302 1585.99 Q826.524 1586.54 829.001 1586.54 Q833.006 1586.54 835.344 1584.44 Q837.682 1582.33 837.682 1578.72 Q837.682 1575.11 835.344 1573 Q833.006 1570.9 829.001 1570.9 Q827.126 1570.9 825.251 1571.31 Q823.399 1571.73 821.455 1572.61 L821.455 1555.25 Z" fill="#000000" fill-rule="nonzero" fill-opacity="1" /><path clip-path="url(#clip600)" d="M861.571 1558.33 Q857.959 1558.33 856.131 1561.89 Q854.325 1565.43 854.325 1572.56 Q854.325 1579.67 856.131 1583.23 Q857.959 1586.78 861.571 1586.78 Q865.205 1586.78 867.01 1583.23 Q868.839 1579.67 868.839 1572.56 Q868.839 1565.43 867.01 1561.89 Q865.205 1558.33 861.571 1558.33 M861.571 1554.62 Q867.381 1554.62 870.436 1559.23 Q873.515 1563.81 873.515 1572.56 Q873.515 1581.29 870.436 1585.9 Q867.381 1590.48 861.571 1590.48 Q855.76 1590.48 852.682 1585.9 Q849.626 1581.29 849.626 1572.56 Q849.626 1563.81 852.682 1559.23 Q855.76 1554.62 861.571 1554.62 Z" fill="#000000" fill-rule="nonzero" fill-opacity="1" /><path clip-path="url(#clip600)" d="M1151.12 1558.33 Q1147.5 1558.33 1145.68 1561.89 Q1143.87 1565.43 1143.87 1572.56 Q1143.87 1579.67 1145.68 1583.23 Q1147.5 1586.78 1151.12 1586.78 Q1154.75 1586.78 1156.56 1583.23 Q1158.38 1579.67 1158.38 1572.56 Q1158.38 1565.43 1156.56 1561.89 Q1154.75 1558.33 1151.12 1558.33 M1151.12 1554.62 Q1156.93 1554.62 1159.98 1559.23 Q1163.06 1563.81 1163.06 1572.56 Q1163.06 1581.29 1159.98 1585.9 Q1156.93 1590.48 1151.12 1590.48 Q1145.31 1590.48 1142.23 1585.9 Q1139.17 1581.29 1139.17 1572.56 Q1139.17 1563.81 1142.23 1559.23 Q1145.31 1554.62 1151.12 1554.62 Z" fill="#000000" fill-rule="nonzero" fill-opacity="1" /><path clip-path="url(#clip600)" d="M1171.28 1583.93 L1176.16 1583.93 L1176.16 1589.81 L1171.28 1589.81 L1171.28 1583.93 Z" fill="#000000" fill-rule="nonzero" fill-opacity="1" /><path clip-path="url(#clip600)" d="M1185.17 1555.25 L1207.39 1555.25 L1207.39 1557.24 L1194.84 1589.81 L1189.96 1589.81 L1201.76 1559.18 L1185.17 1559.18 L1185.17 1555.25 Z" fill="#000000" fill-rule="nonzero" fill-opacity="1" /><path clip-path="url(#clip600)" d="M1216.56 1555.25 L1234.91 1555.25 L1234.91 1559.18 L1220.84 1559.18 L1220.84 1567.66 Q1221.86 1567.31 1222.87 1567.15 Q1223.89 1566.96 1224.91 1566.96 Q1230.7 1566.96 1234.08 1570.13 Q1237.46 1573.3 1237.46 1578.72 Q1237.46 1584.3 1233.99 1587.4 Q1230.51 1590.48 1224.19 1590.48 Q1222.02 1590.48 1219.75 1590.11 Q1217.5 1589.74 1215.1 1589 L1215.1 1584.3 Q1217.18 1585.43 1219.4 1585.99 Q1221.62 1586.54 1224.1 1586.54 Q1228.11 1586.54 1230.44 1584.44 Q1232.78 1582.33 1232.78 1578.72 Q1232.78 1575.11 1230.44 1573 Q1228.11 1570.9 1224.1 1570.9 Q1222.23 1570.9 1220.35 1571.31 Q1218.5 1571.73 1216.56 1572.61 L1216.56 1555.25 Z" fill="#000000" fill-rule="nonzero" fill-opacity="1" /><path clip-path="url(#clip600)" d="M1504.83 1585.87 L1512.47 1585.87 L1512.47 1559.51 L1504.16 1561.17 L1504.16 1556.91 L1512.42 1555.25 L1517.1 1555.25 L1517.1 1585.87 L1524.74 1585.87 L1524.74 1589.81 L1504.83 1589.81 L1504.83 1585.87 Z" fill="#000000" fill-rule="nonzero" fill-opacity="1" /><path clip-path="url(#clip600)" d="M1534.18 1583.93 L1539.06 1583.93 L1539.06 1589.81 L1534.18 1589.81 L1534.18 1583.93 Z" fill="#000000" fill-rule="nonzero" fill-opacity="1" /><path clip-path="url(#clip600)" d="M1559.25 1558.33 Q1555.64 1558.33 1553.81 1561.89 Q1552 1565.43 1552 1572.56 Q1552 1579.67 1553.81 1583.23 Q1555.64 1586.78 1559.25 1586.78 Q1562.88 1586.78 1564.69 1583.23 Q1566.52 1579.67 1566.52 1572.56 Q1566.52 1565.43 1564.69 1561.89 Q1562.88 1558.33 1559.25 1558.33 M1559.25 1554.62 Q1565.06 1554.62 1568.11 1559.23 Q1571.19 1563.81 1571.19 1572.56 Q1571.19 1581.29 1568.11 1585.9 Q1565.06 1590.48 1559.25 1590.48 Q1553.44 1590.48 1550.36 1585.9 Q1547.3 1581.29 1547.3 1572.56 Q1547.3 1563.81 1550.36 1559.23 Q1553.44 1554.62 1559.25 1554.62 Z" fill="#000000" fill-rule="nonzero" fill-opacity="1" /><path clip-path="url(#clip600)" d="M1589.41 1558.33 Q1585.8 1558.33 1583.97 1561.89 Q1582.17 1565.43 1582.17 1572.56 Q1582.17 1579.67 1583.97 1583.23 Q1585.8 1586.78 1589.41 1586.78 Q1593.05 1586.78 1594.85 1583.23 Q1596.68 1579.67 1596.68 1572.56 Q1596.68 1565.43 1594.85 1561.89 Q1593.05 1558.33 1589.41 1558.33 M1589.41 1554.62 Q1595.22 1554.62 1598.28 1559.23 Q1601.36 1563.81 1601.36 1572.56 Q1601.36 1581.29 1598.28 1585.9 Q1595.22 1590.48 1589.41 1590.48 Q1583.6 1590.48 1580.52 1585.9 Q1577.47 1581.29 1577.47 1572.56 Q1577.47 1563.81 1580.52 1559.23 Q1583.6 1554.62 1589.41 1554.62 Z" fill="#000000" fill-rule="nonzero" fill-opacity="1" /><polyline clip-path="url(#clip602)" style="stroke:#000000; stroke-linecap:round; stroke-linejoin:round; stroke-width:2; stroke-opacity:0.1; fill:none" points="51.2592,1521.01 1596.49,1521.01 "/>
<polyline clip-path="url(#clip600)" style="stroke:#000000; stroke-linecap:round; stroke-linejoin:round; stroke-width:4; stroke-opacity:1; fill:none" points="51.2592,1521.01 71.2907,1521.01 "/>
<path clip-path="url(#clip600)" d="M-126.296 1540.8 L-118.657 1540.8 L-118.657 1514.43 L-126.967 1516.1 L-126.967 1511.84 L-118.703 1510.18 L-114.027 1510.18 L-114.027 1540.8 L-106.389 1540.8 L-106.389 1544.74 L-126.296 1544.74 L-126.296 1540.8 Z" fill="#000000" fill-rule="nonzero" fill-opacity="1" /><path clip-path="url(#clip600)" d="M-86.9443 1513.25 Q-90.5554 1513.25 -92.3841 1516.82 Q-94.1896 1520.36 -94.1896 1527.49 Q-94.1896 1534.6 -92.3841 1538.16 Q-90.5554 1541.7 -86.9443 1541.7 Q-83.3101 1541.7 -81.5045 1538.16 Q-79.6758 1534.6 -79.6758 1527.49 Q-79.6758 1520.36 -81.5045 1516.82 Q-83.3101 1513.25 -86.9443 1513.25 M-86.9443 1509.55 Q-81.1341 1509.55 -78.0786 1514.16 Q-74.9999 1518.74 -74.9999 1527.49 Q-74.9999 1536.22 -78.0786 1540.82 Q-81.1341 1545.41 -86.9443 1545.41 Q-92.7545 1545.41 -95.8331 1540.82 Q-98.8887 1536.22 -98.8887 1527.49 Q-98.8887 1518.74 -95.8331 1514.16 Q-92.7545 1509.55 -86.9443 1509.55 Z" fill="#000000" fill-rule="nonzero" fill-opacity="1" /><path clip-path="url(#clip600)" d="M-74.9999 1503.65 L-50.8884 1503.65 L-50.8884 1506.85 L-74.9999 1506.85 L-74.9999 1503.65 Z" fill="#000000" fill-rule="nonzero" fill-opacity="1" /><path clip-path="url(#clip600)" d="M-43.0267 1489.25 L-39.2275 1489.25 L-39.2275 1517.33 L-43.0267 1517.33 L-43.0267 1489.25 Z" fill="#000000" fill-rule="nonzero" fill-opacity="1" /><path clip-path="url(#clip600)" d="M-14.3072 1504.61 L-14.3072 1517.33 L-17.7679 1517.33 L-17.7679 1504.72 Q-17.7679 1501.73 -18.934 1500.25 Q-20.1 1498.76 -22.4322 1498.76 Q-25.2346 1498.76 -26.852 1500.55 Q-28.4695 1502.34 -28.4695 1505.42 L-28.4695 1517.33 L-31.9489 1517.33 L-31.9489 1496.26 L-28.4695 1496.26 L-28.4695 1499.53 Q-27.2282 1497.63 -25.5543 1496.69 Q-23.8616 1495.75 -21.6611 1495.75 Q-18.0312 1495.75 -16.1692 1498.01 Q-14.3072 1500.25 -14.3072 1504.61 Z" fill="#000000" fill-rule="nonzero" fill-opacity="1" /><path clip-path="url(#clip600)" d="M3.25921 1488.06 L3.25921 1490.94 L-0.0509548 1490.94 Q-1.91292 1490.94 -2.64643 1491.69 Q-3.36112 1492.44 -3.36112 1494.4 L-3.36112 1496.26 L2.33763 1496.26 L2.33763 1498.95 L-3.36112 1498.95 L-3.36112 1517.33 L-6.84056 1517.33 L-6.84056 1498.95 L-10.1507 1498.95 L-10.1507 1496.26 L-6.84056 1496.26 L-6.84056 1494.79 Q-6.84056 1491.28 -5.20428 1489.68 Q-3.56801 1488.06 -0.0133393 1488.06 L3.25921 1488.06 Z" fill="#000000" fill-rule="nonzero" fill-opacity="1" /><path clip-path="url(#clip600)" d="M-nan -nan L-nan -nan L-nan -nan L-nan -nan L-nan -nan L-nan -nan L-nan -nan L-nan -nan L-nan -nan L-nan -nan L-nan -nan L-nan -nan Z" fill="#000000" fill-rule="nonzero" fill-opacity="1" /><path clip-path="url(#clip600)" d="M-nan -nan Q-nan -nan -nan -nan Q-nan -nan -nan -nan Q-nan -nan -nan -nan Q-nan -nan -nan -nan Q-nan -nan -nan -nan Q-nan -nan -nan -nan Q-nan -nan -nan -nan Q-nan -nan -nan -nan M-nan -nan Q-nan -nan -nan -nan Q-nan -nan -nan -nan Q-nan -nan -nan -nan Q-nan -nan -nan -nan Q-nan -nan -nan -nan Q-nan -nan -nan -nan Q-nan -nan -nan -nan Q-nan -nan -nan -nan Z" fill="#000000" fill-rule="nonzero" fill-opacity="1" /><path clip-path="url(#clip600)" d="M-nan -nan L-nan -nan L-nan -nan L-nan -nan L-nan -nan L-nan -nan L-nan -nan L-nan -nan L-nan -nan L-nan -nan L-nan -nan Z" fill="#000000" fill-rule="nonzero" fill-opacity="1" /><path clip-path="url(#clip600)" d="M-nan -nan Q-nan -nan -nan -nan Q-nan -nan -nan -nan Q-nan -nan -nan -nan Q-nan -nan -nan -nan Q-nan -nan -nan -nan Q-nan -nan -nan -nan L-nan -nan L-nan -nan M-nan -nan L-nan -nan L-nan -nan L-nan -nan Q-nan -nan -nan -nan Q-nan -nan -nan -nan Q-nan -nan -nan -nan Q-nan -nan -nan -nan Q-nan -nan -nan -nan Q-nan -nan -nan -nan L-nan -nan L-nan -nan Q-nan -nan -nan -nan Q-nan -nan -nan -nan Q-nan -nan -nan -nan Q-nan -nan -nan -nan L-nan -nan Q-nan -nan -nan -nan Q-nan -nan -nan -nan Q-nan -nan -nan -nan Q-nan -nan -nan -nan Z" fill="#000000" fill-rule="nonzero" fill-opacity="1" /><path clip-path="url(#clip600)" d="M-nan -nan L-nan -nan L-nan -nan L-nan -nan L-nan -nan L-nan -nan L-nan -nan L-nan -nan L-nan -nan L-nan -nan L-nan -nan Z" fill="#000000" fill-rule="nonzero" fill-opacity="1" /><path clip-path="url(#clip600)" d="M1110.03 200.05 L1504.16 200.05 L1504.16 96.3696 L1110.03 96.3696  Z" fill="#ffffff" fill-rule="evenodd" fill-opacity="1"/>
<polyline clip-path="url(#clip600)" style="stroke:#000000; stroke-linecap:round; stroke-linejoin:round; stroke-width:4; stroke-opacity:1; fill:none" points="1110.03,200.05 1504.16,200.05 1504.16,96.3696 1110.03,96.3696 1110.03,200.05 "/>
<polyline clip-path="url(#clip600)" style="stroke:#009af9; stroke-linecap:round; stroke-linejoin:round; stroke-width:4; stroke-opacity:1; fill:none" points="1126.23,148.21 1223.41,148.21 "/>
<path clip-path="url(#clip600)" d="M1244.29 148.985 L1244.29 161.647 L1251.79 161.647 Q1255.56 161.647 1257.37 160.096 Q1259.19 158.522 1259.19 155.304 Q1259.19 152.064 1257.37 150.536 Q1255.56 148.985 1251.79 148.985 L1244.29 148.985 M1244.29 134.772 L1244.29 145.189 L1251.21 145.189 Q1254.63 145.189 1256.3 143.916 Q1257.99 142.619 1257.99 139.98 Q1257.99 137.365 1256.3 136.068 Q1254.63 134.772 1251.21 134.772 L1244.29 134.772 M1239.61 130.93 L1251.56 130.93 Q1256.9 130.93 1259.8 133.152 Q1262.69 135.374 1262.69 139.471 Q1262.69 142.642 1261.21 144.517 Q1259.73 146.392 1256.86 146.855 Q1260.31 147.596 1262.2 149.957 Q1264.13 152.295 1264.13 155.814 Q1264.13 160.443 1260.98 162.966 Q1257.83 165.49 1252.02 165.49 L1239.61 165.49 L1239.61 130.93 Z" fill="#000000" fill-rule="nonzero" fill-opacity="1" /><path clip-path="url(#clip600)" d="M1283.73 152.457 Q1278.57 152.457 1276.58 153.638 Q1274.59 154.818 1274.59 157.666 Q1274.59 159.934 1276.07 161.277 Q1277.57 162.596 1280.14 162.596 Q1283.69 162.596 1285.81 160.096 Q1287.97 157.573 1287.97 153.406 L1287.97 152.457 L1283.73 152.457 M1292.23 150.698 L1292.23 165.49 L1287.97 165.49 L1287.97 161.554 Q1286.51 163.915 1284.33 165.05 Q1282.16 166.161 1279.01 166.161 Q1275.03 166.161 1272.67 163.939 Q1270.33 161.693 1270.33 157.943 Q1270.33 153.568 1273.25 151.346 Q1276.19 149.124 1282 149.124 L1287.97 149.124 L1287.97 148.707 Q1287.97 145.767 1286.02 144.17 Q1284.1 142.55 1280.61 142.55 Q1278.38 142.55 1276.28 143.082 Q1274.17 143.615 1272.23 144.679 L1272.23 140.744 Q1274.56 139.842 1276.76 139.402 Q1278.96 138.939 1281.05 138.939 Q1286.67 138.939 1289.45 141.855 Q1292.23 144.772 1292.23 150.698 Z" fill="#000000" fill-rule="nonzero" fill-opacity="1" /><path clip-path="url(#clip600)" d="M1305.21 132.203 L1305.21 139.564 L1313.99 139.564 L1313.99 142.874 L1305.21 142.874 L1305.21 156.948 Q1305.21 160.119 1306.07 161.022 Q1306.95 161.925 1309.61 161.925 L1313.99 161.925 L1313.99 165.49 L1309.61 165.49 Q1304.68 165.49 1302.81 163.661 Q1300.93 161.809 1300.93 156.948 L1300.93 142.874 L1297.81 142.874 L1297.81 139.564 L1300.93 139.564 L1300.93 132.203 L1305.21 132.203 Z" fill="#000000" fill-rule="nonzero" fill-opacity="1" /><path clip-path="url(#clip600)" d="M1338.24 140.559 L1338.24 144.541 Q1336.44 143.545 1334.61 143.059 Q1332.81 142.55 1330.95 142.55 Q1326.81 142.55 1324.52 145.189 Q1322.23 147.804 1322.23 152.55 Q1322.23 157.295 1324.52 159.934 Q1326.81 162.55 1330.95 162.55 Q1332.81 162.55 1334.61 162.064 Q1336.44 161.554 1338.24 160.559 L1338.24 164.494 Q1336.46 165.328 1334.54 165.744 Q1332.64 166.161 1330.49 166.161 Q1324.63 166.161 1321.18 162.48 Q1317.74 158.8 1317.74 152.55 Q1317.74 146.207 1321.21 142.573 Q1324.7 138.939 1330.77 138.939 Q1332.74 138.939 1334.61 139.355 Q1336.49 139.749 1338.24 140.559 Z" fill="#000000" fill-rule="nonzero" fill-opacity="1" /><path clip-path="url(#clip600)" d="M1367.2 149.841 L1367.2 165.49 L1362.94 165.49 L1362.94 149.98 Q1362.94 146.3 1361.51 144.471 Q1360.07 142.642 1357.2 142.642 Q1353.75 142.642 1351.76 144.842 Q1349.77 147.041 1349.77 150.837 L1349.77 165.49 L1345.49 165.49 L1345.49 129.471 L1349.77 129.471 L1349.77 143.592 Q1351.3 141.254 1353.36 140.096 Q1355.44 138.939 1358.15 138.939 Q1362.62 138.939 1364.91 141.717 Q1367.2 144.471 1367.2 149.841 Z" fill="#000000" fill-rule="nonzero" fill-opacity="1" /><path clip-path="url(#clip600)" d="M1390.95 130.93 L1395.63 130.93 L1395.63 161.554 L1412.46 161.554 L1412.46 165.49 L1390.95 165.49 L1390.95 130.93 Z" fill="#000000" fill-rule="nonzero" fill-opacity="1" /><path clip-path="url(#clip600)" d="M1426.39 142.55 Q1422.97 142.55 1420.98 145.235 Q1418.99 147.897 1418.99 152.55 Q1418.99 157.203 1420.95 159.888 Q1422.94 162.55 1426.39 162.55 Q1429.8 162.55 1431.79 159.865 Q1433.78 157.179 1433.78 152.55 Q1433.78 147.943 1431.79 145.258 Q1429.8 142.55 1426.39 142.55 M1426.39 138.939 Q1431.95 138.939 1435.12 142.55 Q1438.29 146.161 1438.29 152.55 Q1438.29 158.916 1435.12 162.55 Q1431.95 166.161 1426.39 166.161 Q1420.81 166.161 1417.64 162.55 Q1414.49 158.916 1414.49 152.55 Q1414.49 146.161 1417.64 142.55 Q1420.81 138.939 1426.39 138.939 Z" fill="#000000" fill-rule="nonzero" fill-opacity="1" /><path clip-path="url(#clip600)" d="M1461.88 140.328 L1461.88 144.355 Q1460.07 143.429 1458.13 142.967 Q1456.18 142.504 1454.1 142.504 Q1450.93 142.504 1449.33 143.476 Q1447.76 144.448 1447.76 146.392 Q1447.76 147.874 1448.89 148.73 Q1450.03 149.564 1453.45 150.328 L1454.91 150.652 Q1459.45 151.624 1461.35 153.406 Q1463.27 155.166 1463.27 158.337 Q1463.27 161.948 1460.4 164.054 Q1457.55 166.161 1452.55 166.161 Q1450.47 166.161 1448.2 165.744 Q1445.95 165.351 1443.45 164.54 L1443.45 160.142 Q1445.81 161.369 1448.11 161.994 Q1450.4 162.596 1452.64 162.596 Q1455.65 162.596 1457.27 161.578 Q1458.89 160.536 1458.89 158.661 Q1458.89 156.925 1457.71 155.999 Q1456.55 155.073 1452.6 154.216 L1451.11 153.869 Q1447.16 153.036 1445.4 151.323 Q1443.64 149.587 1443.64 146.578 Q1443.64 142.92 1446.23 140.93 Q1448.82 138.939 1453.59 138.939 Q1455.95 138.939 1458.04 139.286 Q1460.12 139.633 1461.88 140.328 Z" fill="#000000" fill-rule="nonzero" fill-opacity="1" /><path clip-path="url(#clip600)" d="M1486.58 140.328 L1486.58 144.355 Q1484.77 143.429 1482.83 142.967 Q1480.88 142.504 1478.8 142.504 Q1475.63 142.504 1474.03 143.476 Q1472.46 144.448 1472.46 146.392 Q1472.46 147.874 1473.59 148.73 Q1474.73 149.564 1478.15 150.328 L1479.61 150.652 Q1484.15 151.624 1486.05 153.406 Q1487.97 155.166 1487.97 158.337 Q1487.97 161.948 1485.1 164.054 Q1482.25 166.161 1477.25 166.161 Q1475.17 166.161 1472.9 165.744 Q1470.65 165.351 1468.15 164.54 L1468.15 160.142 Q1470.51 161.369 1472.8 161.994 Q1475.1 162.596 1477.34 162.596 Q1480.35 162.596 1481.97 161.578 Q1483.59 160.536 1483.59 158.661 Q1483.59 156.925 1482.41 155.999 Q1481.25 155.073 1477.3 154.216 L1475.81 153.869 Q1471.86 153.036 1470.1 151.323 Q1468.34 149.587 1468.34 146.578 Q1468.34 142.92 1470.93 140.93 Q1473.52 138.939 1478.29 138.939 Q1480.65 138.939 1482.73 139.286 Q1484.82 139.633 1486.58 140.328 Z" fill="#000000" fill-rule="nonzero" fill-opacity="1" /><path clip-path="url(#clip600)" d="M1694.99 1521.01 L3152.76 1521.01 L3152.76 47.2441 L1694.99 47.2441  Z" fill="#ffffff" fill-rule="evenodd" fill-opacity="1"/>
<defs>
  <clipPath id="clip603">
    <rect x="1694" y="47" width="1459" height="1475"/>
  </clipPath>
</defs>
<polyline clip-path="url(#clip603)" style="stroke:#000000; stroke-linecap:round; stroke-linejoin:round; stroke-width:2; stroke-opacity:0.1; fill:none" points="1736.25,1521.01 1736.25,47.2441 "/>
<polyline clip-path="url(#clip603)" style="stroke:#000000; stroke-linecap:round; stroke-linejoin:round; stroke-width:2; stroke-opacity:0.1; fill:none" points="2080.06,1521.01 2080.06,47.2441 "/>
<polyline clip-path="url(#clip603)" style="stroke:#000000; stroke-linecap:round; stroke-linejoin:round; stroke-width:2; stroke-opacity:0.1; fill:none" points="2423.87,1521.01 2423.87,47.2441 "/>
<polyline clip-path="url(#clip603)" style="stroke:#000000; stroke-linecap:round; stroke-linejoin:round; stroke-width:2; stroke-opacity:0.1; fill:none" points="2767.69,1521.01 2767.69,47.2441 "/>
<polyline clip-path="url(#clip603)" style="stroke:#000000; stroke-linecap:round; stroke-linejoin:round; stroke-width:2; stroke-opacity:0.1; fill:none" points="3111.5,1521.01 3111.5,47.2441 "/>
<polyline clip-path="url(#clip600)" style="stroke:#000000; stroke-linecap:round; stroke-linejoin:round; stroke-width:4; stroke-opacity:1; fill:none" points="1694.99,1521.01 3152.76,1521.01 "/>
<polyline clip-path="url(#clip600)" style="stroke:#000000; stroke-linecap:round; stroke-linejoin:round; stroke-width:4; stroke-opacity:1; fill:none" points="1736.25,1521.01 1736.25,1502.11 "/>
<polyline clip-path="url(#clip600)" style="stroke:#000000; stroke-linecap:round; stroke-linejoin:round; stroke-width:4; stroke-opacity:1; fill:none" points="2080.06,1521.01 2080.06,1502.11 "/>
<polyline clip-path="url(#clip600)" style="stroke:#000000; stroke-linecap:round; stroke-linejoin:round; stroke-width:4; stroke-opacity:1; fill:none" points="2423.87,1521.01 2423.87,1502.11 "/>
<polyline clip-path="url(#clip600)" style="stroke:#000000; stroke-linecap:round; stroke-linejoin:round; stroke-width:4; stroke-opacity:1; fill:none" points="2767.69,1521.01 2767.69,1502.11 "/>
<polyline clip-path="url(#clip600)" style="stroke:#000000; stroke-linecap:round; stroke-linejoin:round; stroke-width:4; stroke-opacity:1; fill:none" points="3111.5,1521.01 3111.5,1502.11 "/>
<path clip-path="url(#clip600)" d="M1698.55 1558.33 Q1694.94 1558.33 1693.11 1561.89 Q1691.31 1565.43 1691.31 1572.56 Q1691.31 1579.67 1693.11 1583.23 Q1694.94 1586.78 1698.55 1586.78 Q1702.19 1586.78 1703.99 1583.23 Q1705.82 1579.67 1705.82 1572.56 Q1705.82 1565.43 1703.99 1561.89 Q1702.19 1558.33 1698.55 1558.33 M1698.55 1554.62 Q1704.36 1554.62 1707.42 1559.23 Q1710.5 1563.81 1710.5 1572.56 Q1710.5 1581.29 1707.42 1585.9 Q1704.36 1590.48 1698.55 1590.48 Q1692.74 1590.48 1689.66 1585.9 Q1686.61 1581.29 1686.61 1572.56 Q1686.61 1563.81 1689.66 1559.23 Q1692.74 1554.62 1698.55 1554.62 Z" fill="#000000" fill-rule="nonzero" fill-opacity="1" /><path clip-path="url(#clip600)" d="M1718.71 1583.93 L1723.6 1583.93 L1723.6 1589.81 L1718.71 1589.81 L1718.71 1583.93 Z" fill="#000000" fill-rule="nonzero" fill-opacity="1" /><path clip-path="url(#clip600)" d="M1743.78 1558.33 Q1740.17 1558.33 1738.34 1561.89 Q1736.54 1565.43 1736.54 1572.56 Q1736.54 1579.67 1738.34 1583.23 Q1740.17 1586.78 1743.78 1586.78 Q1747.42 1586.78 1749.22 1583.23 Q1751.05 1579.67 1751.05 1572.56 Q1751.05 1565.43 1749.22 1561.89 Q1747.42 1558.33 1743.78 1558.33 M1743.78 1554.62 Q1749.59 1554.62 1752.65 1559.23 Q1755.73 1563.81 1755.73 1572.56 Q1755.73 1581.29 1752.65 1585.9 Q1749.59 1590.48 1743.78 1590.48 Q1737.97 1590.48 1734.9 1585.9 Q1731.84 1581.29 1731.84 1572.56 Q1731.84 1563.81 1734.9 1559.23 Q1737.97 1554.62 1743.78 1554.62 Z" fill="#000000" fill-rule="nonzero" fill-opacity="1" /><path clip-path="url(#clip600)" d="M1773.95 1558.33 Q1770.34 1558.33 1768.51 1561.89 Q1766.7 1565.43 1766.7 1572.56 Q1766.7 1579.67 1768.51 1583.23 Q1770.34 1586.78 1773.95 1586.78 Q1777.58 1586.78 1779.39 1583.23 Q1781.21 1579.67 1781.21 1572.56 Q1781.21 1565.43 1779.39 1561.89 Q1777.58 1558.33 1773.95 1558.33 M1773.95 1554.62 Q1779.76 1554.62 1782.81 1559.23 Q1785.89 1563.81 1785.89 1572.56 Q1785.89 1581.29 1782.81 1585.9 Q1779.76 1590.48 1773.95 1590.48 Q1768.14 1590.48 1765.06 1585.9 Q1762 1581.29 1762 1572.56 Q1762 1563.81 1765.06 1559.23 Q1768.14 1554.62 1773.95 1554.62 Z" fill="#000000" fill-rule="nonzero" fill-opacity="1" /><path clip-path="url(#clip600)" d="M2042.86 1558.33 Q2039.25 1558.33 2037.42 1561.89 Q2035.62 1565.43 2035.62 1572.56 Q2035.62 1579.67 2037.42 1583.23 Q2039.25 1586.78 2042.86 1586.78 Q2046.5 1586.78 2048.3 1583.23 Q2050.13 1579.67 2050.13 1572.56 Q2050.13 1565.43 2048.3 1561.89 Q2046.5 1558.33 2042.86 1558.33 M2042.86 1554.62 Q2048.67 1554.62 2051.73 1559.23 Q2054.81 1563.81 2054.81 1572.56 Q2054.81 1581.29 2051.73 1585.9 Q2048.67 1590.48 2042.86 1590.48 Q2037.05 1590.48 2033.97 1585.9 Q2030.92 1581.29 2030.92 1572.56 Q2030.92 1563.81 2033.97 1559.23 Q2037.05 1554.62 2042.86 1554.62 Z" fill="#000000" fill-rule="nonzero" fill-opacity="1" /><path clip-path="url(#clip600)" d="M2063.02 1583.93 L2067.91 1583.93 L2067.91 1589.81 L2063.02 1589.81 L2063.02 1583.93 Z" fill="#000000" fill-rule="nonzero" fill-opacity="1" /><path clip-path="url(#clip600)" d="M2082.12 1585.87 L2098.44 1585.87 L2098.44 1589.81 L2076.5 1589.81 L2076.5 1585.87 Q2079.16 1583.12 2083.74 1578.49 Q2088.35 1573.84 2089.53 1572.49 Q2091.77 1569.97 2092.65 1568.23 Q2093.56 1566.47 2093.56 1564.78 Q2093.56 1562.03 2091.61 1560.29 Q2089.69 1558.56 2086.59 1558.56 Q2084.39 1558.56 2081.94 1559.32 Q2079.51 1560.09 2076.73 1561.64 L2076.73 1556.91 Q2079.55 1555.78 2082.01 1555.2 Q2084.46 1554.62 2086.5 1554.62 Q2091.87 1554.62 2095.06 1557.31 Q2098.26 1559.99 2098.26 1564.48 Q2098.26 1566.61 2097.45 1568.53 Q2096.66 1570.43 2094.55 1573.03 Q2093.97 1573.7 2090.87 1576.91 Q2087.77 1580.11 2082.12 1585.87 Z" fill="#000000" fill-rule="nonzero" fill-opacity="1" /><path clip-path="url(#clip600)" d="M2108.3 1555.25 L2126.66 1555.25 L2126.66 1559.18 L2112.58 1559.18 L2112.58 1567.66 Q2113.6 1567.31 2114.62 1567.15 Q2115.64 1566.96 2116.66 1566.96 Q2122.45 1566.96 2125.83 1570.13 Q2129.21 1573.3 2129.21 1578.72 Q2129.21 1584.3 2125.73 1587.4 Q2122.26 1590.48 2115.94 1590.48 Q2113.77 1590.48 2111.5 1590.11 Q2109.25 1589.74 2106.84 1589 L2106.84 1584.3 Q2108.93 1585.43 2111.15 1585.99 Q2113.37 1586.54 2115.85 1586.54 Q2119.85 1586.54 2122.19 1584.44 Q2124.53 1582.33 2124.53 1578.72 Q2124.53 1575.11 2122.19 1573 Q2119.85 1570.9 2115.85 1570.9 Q2113.97 1570.9 2112.1 1571.31 Q2110.25 1571.73 2108.3 1572.61 L2108.3 1555.25 Z" fill="#000000" fill-rule="nonzero" fill-opacity="1" /><path clip-path="url(#clip600)" d="M2386.18 1558.33 Q2382.57 1558.33 2380.74 1561.89 Q2378.93 1565.43 2378.93 1572.56 Q2378.93 1579.67 2380.74 1583.23 Q2382.57 1586.78 2386.18 1586.78 Q2389.81 1586.78 2391.62 1583.23 Q2393.45 1579.67 2393.45 1572.56 Q2393.45 1565.43 2391.62 1561.89 Q2389.81 1558.33 2386.18 1558.33 M2386.18 1554.62 Q2391.99 1554.62 2395.04 1559.23 Q2398.12 1563.81 2398.12 1572.56 Q2398.12 1581.29 2395.04 1585.9 Q2391.99 1590.48 2386.18 1590.48 Q2380.37 1590.48 2377.29 1585.9 Q2374.23 1581.29 2374.23 1572.56 Q2374.23 1563.81 2377.29 1559.23 Q2380.37 1554.62 2386.18 1554.62 Z" fill="#000000" fill-rule="nonzero" fill-opacity="1" /><path clip-path="url(#clip600)" d="M2406.34 1583.93 L2411.22 1583.93 L2411.22 1589.81 L2406.34 1589.81 L2406.34 1583.93 Z" fill="#000000" fill-rule="nonzero" fill-opacity="1" /><path clip-path="url(#clip600)" d="M2421.46 1555.25 L2439.81 1555.25 L2439.81 1559.18 L2425.74 1559.18 L2425.74 1567.66 Q2426.76 1567.31 2427.77 1567.15 Q2428.79 1566.96 2429.81 1566.96 Q2435.6 1566.96 2438.98 1570.13 Q2442.36 1573.3 2442.36 1578.72 Q2442.36 1584.3 2438.89 1587.4 Q2435.41 1590.48 2429.09 1590.48 Q2426.92 1590.48 2424.65 1590.11 Q2422.4 1589.74 2420 1589 L2420 1584.3 Q2422.08 1585.43 2424.3 1585.99 Q2426.52 1586.54 2429 1586.54 Q2433.01 1586.54 2435.34 1584.44 Q2437.68 1582.33 2437.68 1578.72 Q2437.68 1575.11 2435.34 1573 Q2433.01 1570.9 2429 1570.9 Q2427.13 1570.9 2425.25 1571.31 Q2423.4 1571.73 2421.46 1572.61 L2421.46 1555.25 Z" fill="#000000" fill-rule="nonzero" fill-opacity="1" /><path clip-path="url(#clip600)" d="M2461.57 1558.33 Q2457.96 1558.33 2456.13 1561.89 Q2454.33 1565.43 2454.33 1572.56 Q2454.33 1579.67 2456.13 1583.23 Q2457.96 1586.78 2461.57 1586.78 Q2465.2 1586.78 2467.01 1583.23 Q2468.84 1579.67 2468.84 1572.56 Q2468.84 1565.43 2467.01 1561.89 Q2465.2 1558.33 2461.57 1558.33 M2461.57 1554.62 Q2467.38 1554.62 2470.44 1559.23 Q2473.51 1563.81 2473.51 1572.56 Q2473.51 1581.29 2470.44 1585.9 Q2467.38 1590.48 2461.57 1590.48 Q2455.76 1590.48 2452.68 1585.9 Q2449.63 1581.29 2449.63 1572.56 Q2449.63 1563.81 2452.68 1559.23 Q2455.76 1554.62 2461.57 1554.62 Z" fill="#000000" fill-rule="nonzero" fill-opacity="1" /><path clip-path="url(#clip600)" d="M2730.49 1558.33 Q2726.88 1558.33 2725.05 1561.89 Q2723.24 1565.43 2723.24 1572.56 Q2723.24 1579.67 2725.05 1583.23 Q2726.88 1586.78 2730.49 1586.78 Q2734.12 1586.78 2735.93 1583.23 Q2737.76 1579.67 2737.76 1572.56 Q2737.76 1565.43 2735.93 1561.89 Q2734.12 1558.33 2730.49 1558.33 M2730.49 1554.62 Q2736.3 1554.62 2739.35 1559.23 Q2742.43 1563.81 2742.43 1572.56 Q2742.43 1581.29 2739.35 1585.9 Q2736.3 1590.48 2730.49 1590.48 Q2724.68 1590.48 2721.6 1585.9 Q2718.54 1581.29 2718.54 1572.56 Q2718.54 1563.81 2721.6 1559.23 Q2724.68 1554.62 2730.49 1554.62 Z" fill="#000000" fill-rule="nonzero" fill-opacity="1" /><path clip-path="url(#clip600)" d="M2750.65 1583.93 L2755.53 1583.93 L2755.53 1589.81 L2750.65 1589.81 L2750.65 1583.93 Z" fill="#000000" fill-rule="nonzero" fill-opacity="1" /><path clip-path="url(#clip600)" d="M2764.54 1555.25 L2786.76 1555.25 L2786.76 1557.24 L2774.21 1589.81 L2769.33 1589.81 L2781.14 1559.18 L2764.54 1559.18 L2764.54 1555.25 Z" fill="#000000" fill-rule="nonzero" fill-opacity="1" /><path clip-path="url(#clip600)" d="M2795.93 1555.25 L2814.28 1555.25 L2814.28 1559.18 L2800.21 1559.18 L2800.21 1567.66 Q2801.23 1567.31 2802.25 1567.15 Q2803.26 1566.96 2804.28 1566.96 Q2810.07 1566.96 2813.45 1570.13 Q2816.83 1573.3 2816.83 1578.72 Q2816.83 1584.3 2813.36 1587.4 Q2809.89 1590.48 2803.57 1590.48 Q2801.39 1590.48 2799.12 1590.11 Q2796.88 1589.74 2794.47 1589 L2794.47 1584.3 Q2796.55 1585.43 2798.77 1585.99 Q2801 1586.54 2803.47 1586.54 Q2807.48 1586.54 2809.82 1584.44 Q2812.15 1582.33 2812.15 1578.72 Q2812.15 1575.11 2809.82 1573 Q2807.48 1570.9 2803.47 1570.9 Q2801.6 1570.9 2799.72 1571.31 Q2797.87 1571.73 2795.93 1572.61 L2795.93 1555.25 Z" fill="#000000" fill-rule="nonzero" fill-opacity="1" /><path clip-path="url(#clip600)" d="M3063.57 1585.87 L3071.21 1585.87 L3071.21 1559.51 L3062.9 1561.17 L3062.9 1556.91 L3071.16 1555.25 L3075.84 1555.25 L3075.84 1585.87 L3083.48 1585.87 L3083.48 1589.81 L3063.57 1589.81 L3063.57 1585.87 Z" fill="#000000" fill-rule="nonzero" fill-opacity="1" /><path clip-path="url(#clip600)" d="M3092.92 1583.93 L3097.81 1583.93 L3097.81 1589.81 L3092.92 1589.81 L3092.92 1583.93 Z" fill="#000000" fill-rule="nonzero" fill-opacity="1" /><path clip-path="url(#clip600)" d="M3117.99 1558.33 Q3114.38 1558.33 3112.55 1561.89 Q3110.75 1565.43 3110.75 1572.56 Q3110.75 1579.67 3112.55 1583.23 Q3114.38 1586.78 3117.99 1586.78 Q3121.63 1586.78 3123.43 1583.23 Q3125.26 1579.67 3125.26 1572.56 Q3125.26 1565.43 3123.43 1561.89 Q3121.63 1558.33 3117.99 1558.33 M3117.99 1554.62 Q3123.8 1554.62 3126.86 1559.23 Q3129.94 1563.81 3129.94 1572.56 Q3129.94 1581.29 3126.86 1585.9 Q3123.8 1590.48 3117.99 1590.48 Q3112.18 1590.48 3109.1 1585.9 Q3106.05 1581.29 3106.05 1572.56 Q3106.05 1563.81 3109.1 1559.23 Q3112.18 1554.62 3117.99 1554.62 Z" fill="#000000" fill-rule="nonzero" fill-opacity="1" /><path clip-path="url(#clip600)" d="M3148.15 1558.33 Q3144.54 1558.33 3142.71 1561.89 Q3140.91 1565.43 3140.91 1572.56 Q3140.91 1579.67 3142.71 1583.23 Q3144.54 1586.78 3148.15 1586.78 Q3151.79 1586.78 3153.59 1583.23 Q3155.42 1579.67 3155.42 1572.56 Q3155.42 1565.43 3153.59 1561.89 Q3151.79 1558.33 3148.15 1558.33 M3148.15 1554.62 Q3153.96 1554.62 3157.02 1559.23 Q3160.1 1563.81 3160.1 1572.56 Q3160.1 1581.29 3157.02 1585.9 Q3153.96 1590.48 3148.15 1590.48 Q3142.34 1590.48 3139.26 1585.9 Q3136.21 1581.29 3136.21 1572.56 Q3136.21 1563.81 3139.26 1559.23 Q3142.34 1554.62 3148.15 1554.62 Z" fill="#000000" fill-rule="nonzero" fill-opacity="1" /><polyline clip-path="url(#clip603)" style="stroke:#000000; stroke-linecap:round; stroke-linejoin:round; stroke-width:2; stroke-opacity:0.1; fill:none" points="1694.99,1479.3 3152.76,1479.3 "/>
<polyline clip-path="url(#clip603)" style="stroke:#000000; stroke-linecap:round; stroke-linejoin:round; stroke-width:2; stroke-opacity:0.1; fill:none" points="1694.99,1131.71 3152.76,1131.71 "/>
<polyline clip-path="url(#clip603)" style="stroke:#000000; stroke-linecap:round; stroke-linejoin:round; stroke-width:2; stroke-opacity:0.1; fill:none" points="1694.99,784.126 3152.76,784.126 "/>
<polyline clip-path="url(#clip603)" style="stroke:#000000; stroke-linecap:round; stroke-linejoin:round; stroke-width:2; stroke-opacity:0.1; fill:none" points="1694.99,436.54 3152.76,436.54 "/>
<polyline clip-path="url(#clip603)" style="stroke:#000000; stroke-linecap:round; stroke-linejoin:round; stroke-width:2; stroke-opacity:0.1; fill:none" points="1694.99,88.9544 3152.76,88.9544 "/>
<polyline clip-path="url(#clip600)" style="stroke:#000000; stroke-linecap:round; stroke-linejoin:round; stroke-width:4; stroke-opacity:1; fill:none" points="1694.99,1521.01 1694.99,47.2441 "/>
<polyline clip-path="url(#clip600)" style="stroke:#000000; stroke-linecap:round; stroke-linejoin:round; stroke-width:4; stroke-opacity:1; fill:none" points="1694.99,1479.3 1713.89,1479.3 "/>
<polyline clip-path="url(#clip600)" style="stroke:#000000; stroke-linecap:round; stroke-linejoin:round; stroke-width:4; stroke-opacity:1; fill:none" points="1694.99,1131.71 1713.89,1131.71 "/>
<polyline clip-path="url(#clip600)" style="stroke:#000000; stroke-linecap:round; stroke-linejoin:round; stroke-width:4; stroke-opacity:1; fill:none" points="1694.99,784.126 1713.89,784.126 "/>
<polyline clip-path="url(#clip600)" style="stroke:#000000; stroke-linecap:round; stroke-linejoin:round; stroke-width:4; stroke-opacity:1; fill:none" points="1694.99,436.54 1713.89,436.54 "/>
<polyline clip-path="url(#clip600)" style="stroke:#000000; stroke-linecap:round; stroke-linejoin:round; stroke-width:4; stroke-opacity:1; fill:none" points="1694.99,88.9544 1713.89,88.9544 "/>
<path clip-path="url(#clip600)" d="M1559.65 1465.1 Q1556.04 1465.1 1554.21 1468.66 Q1552.41 1472.2 1552.41 1479.33 Q1552.41 1486.44 1554.21 1490 Q1556.04 1493.55 1559.65 1493.55 Q1563.29 1493.55 1565.09 1490 Q1566.92 1486.44 1566.92 1479.33 Q1566.92 1472.2 1565.09 1468.66 Q1563.29 1465.1 1559.65 1465.1 M1559.65 1461.39 Q1565.46 1461.39 1568.52 1466 Q1571.6 1470.58 1571.6 1479.33 Q1571.6 1488.06 1568.52 1492.67 Q1565.46 1497.25 1559.65 1497.25 Q1553.84 1497.25 1550.77 1492.67 Q1547.71 1488.06 1547.71 1479.33 Q1547.71 1470.58 1550.77 1466 Q1553.84 1461.39 1559.65 1461.39 Z" fill="#000000" fill-rule="nonzero" fill-opacity="1" /><path clip-path="url(#clip600)" d="M1579.82 1490.7 L1584.7 1490.7 L1584.7 1496.58 L1579.82 1496.58 L1579.82 1490.7 Z" fill="#000000" fill-rule="nonzero" fill-opacity="1" /><path clip-path="url(#clip600)" d="M1604.89 1465.1 Q1601.27 1465.1 1599.45 1468.66 Q1597.64 1472.2 1597.64 1479.33 Q1597.64 1486.44 1599.45 1490 Q1601.27 1493.55 1604.89 1493.55 Q1608.52 1493.55 1610.33 1490 Q1612.15 1486.44 1612.15 1479.33 Q1612.15 1472.2 1610.33 1468.66 Q1608.52 1465.1 1604.89 1465.1 M1604.89 1461.39 Q1610.7 1461.39 1613.75 1466 Q1616.83 1470.58 1616.83 1479.33 Q1616.83 1488.06 1613.75 1492.67 Q1610.7 1497.25 1604.89 1497.25 Q1599.08 1497.25 1596 1492.67 Q1592.94 1488.06 1592.94 1479.33 Q1592.94 1470.58 1596 1466 Q1599.08 1461.39 1604.89 1461.39 Z" fill="#000000" fill-rule="nonzero" fill-opacity="1" /><path clip-path="url(#clip600)" d="M1635.05 1465.1 Q1631.44 1465.1 1629.61 1468.66 Q1627.8 1472.2 1627.8 1479.33 Q1627.8 1486.44 1629.61 1490 Q1631.44 1493.55 1635.05 1493.55 Q1638.68 1493.55 1640.49 1490 Q1642.32 1486.44 1642.32 1479.33 Q1642.32 1472.2 1640.49 1468.66 Q1638.68 1465.1 1635.05 1465.1 M1635.05 1461.39 Q1640.86 1461.39 1643.91 1466 Q1646.99 1470.58 1646.99 1479.33 Q1646.99 1488.06 1643.91 1492.67 Q1640.86 1497.25 1635.05 1497.25 Q1629.24 1497.25 1626.16 1492.67 Q1623.1 1488.06 1623.1 1479.33 Q1623.1 1470.58 1626.16 1466 Q1629.24 1461.39 1635.05 1461.39 Z" fill="#000000" fill-rule="nonzero" fill-opacity="1" /><path clip-path="url(#clip600)" d="M1560.65 1117.51 Q1557.04 1117.51 1555.21 1121.08 Q1553.4 1124.62 1553.4 1131.75 Q1553.4 1138.85 1555.21 1142.42 Q1557.04 1145.96 1560.65 1145.96 Q1564.28 1145.96 1566.09 1142.42 Q1567.92 1138.85 1567.92 1131.75 Q1567.92 1124.62 1566.09 1121.08 Q1564.28 1117.51 1560.65 1117.51 M1560.65 1113.81 Q1566.46 1113.81 1569.52 1118.41 Q1572.59 1123 1572.59 1131.75 Q1572.59 1140.47 1569.52 1145.08 Q1566.46 1149.66 1560.65 1149.66 Q1554.84 1149.66 1551.76 1145.08 Q1548.71 1140.47 1548.71 1131.75 Q1548.71 1123 1551.76 1118.41 Q1554.84 1113.81 1560.65 1113.81 Z" fill="#000000" fill-rule="nonzero" fill-opacity="1" /><path clip-path="url(#clip600)" d="M1580.81 1143.11 L1585.7 1143.11 L1585.7 1148.99 L1580.81 1148.99 L1580.81 1143.11 Z" fill="#000000" fill-rule="nonzero" fill-opacity="1" /><path clip-path="url(#clip600)" d="M1599.91 1145.06 L1616.23 1145.06 L1616.23 1148.99 L1594.28 1148.99 L1594.28 1145.06 Q1596.95 1142.3 1601.53 1137.67 Q1606.14 1133.02 1607.32 1131.68 Q1609.56 1129.15 1610.44 1127.42 Q1611.34 1125.66 1611.34 1123.97 Q1611.34 1121.21 1609.4 1119.48 Q1607.48 1117.74 1604.38 1117.74 Q1602.18 1117.74 1599.72 1118.51 Q1597.29 1119.27 1594.52 1120.82 L1594.52 1116.1 Q1597.34 1114.96 1599.79 1114.39 Q1602.25 1113.81 1604.28 1113.81 Q1609.65 1113.81 1612.85 1116.49 Q1616.04 1119.18 1616.04 1123.67 Q1616.04 1125.8 1615.23 1127.72 Q1614.45 1129.62 1612.34 1132.21 Q1611.76 1132.88 1608.66 1136.1 Q1605.56 1139.29 1599.91 1145.06 Z" fill="#000000" fill-rule="nonzero" fill-opacity="1" /><path clip-path="url(#clip600)" d="M1626.09 1114.43 L1644.45 1114.43 L1644.45 1118.37 L1630.37 1118.37 L1630.37 1126.84 Q1631.39 1126.49 1632.41 1126.33 Q1633.43 1126.14 1634.45 1126.14 Q1640.23 1126.14 1643.61 1129.32 Q1646.99 1132.49 1646.99 1137.9 Q1646.99 1143.48 1643.52 1146.58 Q1640.05 1149.66 1633.73 1149.66 Q1631.55 1149.66 1629.28 1149.29 Q1627.04 1148.92 1624.63 1148.18 L1624.63 1143.48 Q1626.71 1144.62 1628.94 1145.17 Q1631.16 1145.73 1633.64 1145.73 Q1637.64 1145.73 1639.98 1143.62 Q1642.32 1141.51 1642.32 1137.9 Q1642.32 1134.29 1639.98 1132.19 Q1637.64 1130.08 1633.64 1130.08 Q1631.76 1130.08 1629.89 1130.5 Q1628.03 1130.91 1626.09 1131.79 L1626.09 1114.43 Z" fill="#000000" fill-rule="nonzero" fill-opacity="1" /><path clip-path="url(#clip600)" d="M1559.65 769.925 Q1556.04 769.925 1554.21 773.489 Q1552.41 777.031 1552.41 784.161 Q1552.41 791.267 1554.21 794.832 Q1556.04 798.374 1559.65 798.374 Q1563.29 798.374 1565.09 794.832 Q1566.92 791.267 1566.92 784.161 Q1566.92 777.031 1565.09 773.489 Q1563.29 769.925 1559.65 769.925 M1559.65 766.221 Q1565.46 766.221 1568.52 770.827 Q1571.6 775.411 1571.6 784.161 Q1571.6 792.888 1568.52 797.494 Q1565.46 802.077 1559.65 802.077 Q1553.84 802.077 1550.77 797.494 Q1547.71 792.888 1547.71 784.161 Q1547.71 775.411 1550.77 770.827 Q1553.84 766.221 1559.65 766.221 Z" fill="#000000" fill-rule="nonzero" fill-opacity="1" /><path clip-path="url(#clip600)" d="M1579.82 795.526 L1584.7 795.526 L1584.7 801.406 L1579.82 801.406 L1579.82 795.526 Z" fill="#000000" fill-rule="nonzero" fill-opacity="1" /><path clip-path="url(#clip600)" d="M1594.93 766.846 L1613.29 766.846 L1613.29 770.781 L1599.21 770.781 L1599.21 779.253 Q1600.23 778.906 1601.25 778.744 Q1602.27 778.559 1603.29 778.559 Q1609.08 778.559 1612.46 781.73 Q1615.83 784.901 1615.83 790.318 Q1615.83 795.897 1612.36 798.999 Q1608.89 802.077 1602.57 802.077 Q1600.4 802.077 1598.13 801.707 Q1595.88 801.337 1593.47 800.596 L1593.47 795.897 Q1595.56 797.031 1597.78 797.587 Q1600 798.142 1602.48 798.142 Q1606.48 798.142 1608.82 796.036 Q1611.16 793.929 1611.16 790.318 Q1611.16 786.707 1608.82 784.601 Q1606.48 782.494 1602.48 782.494 Q1600.6 782.494 1598.73 782.911 Q1596.88 783.327 1594.93 784.207 L1594.93 766.846 Z" fill="#000000" fill-rule="nonzero" fill-opacity="1" /><path clip-path="url(#clip600)" d="M1635.05 769.925 Q1631.44 769.925 1629.61 773.489 Q1627.8 777.031 1627.8 784.161 Q1627.8 791.267 1629.61 794.832 Q1631.44 798.374 1635.05 798.374 Q1638.68 798.374 1640.49 794.832 Q1642.32 791.267 1642.32 784.161 Q1642.32 777.031 1640.49 773.489 Q1638.68 769.925 1635.05 769.925 M1635.05 766.221 Q1640.86 766.221 1643.91 770.827 Q1646.99 775.411 1646.99 784.161 Q1646.99 792.888 1643.91 797.494 Q1640.86 802.077 1635.05 802.077 Q1629.24 802.077 1626.16 797.494 Q1623.1 792.888 1623.1 784.161 Q1623.1 775.411 1626.16 770.827 Q1629.24 766.221 1635.05 766.221 Z" fill="#000000" fill-rule="nonzero" fill-opacity="1" /><path clip-path="url(#clip600)" d="M1560.65 422.339 Q1557.04 422.339 1555.21 425.904 Q1553.4 429.445 1553.4 436.575 Q1553.4 443.681 1555.21 447.246 Q1557.04 450.788 1560.65 450.788 Q1564.28 450.788 1566.09 447.246 Q1567.92 443.681 1567.92 436.575 Q1567.92 429.445 1566.09 425.904 Q1564.28 422.339 1560.65 422.339 M1560.65 418.635 Q1566.46 418.635 1569.52 423.242 Q1572.59 427.825 1572.59 436.575 Q1572.59 445.302 1569.52 449.908 Q1566.46 454.491 1560.65 454.491 Q1554.84 454.491 1551.76 449.908 Q1548.71 445.302 1548.71 436.575 Q1548.71 427.825 1551.76 423.242 Q1554.84 418.635 1560.65 418.635 Z" fill="#000000" fill-rule="nonzero" fill-opacity="1" /><path clip-path="url(#clip600)" d="M1580.81 447.941 L1585.7 447.941 L1585.7 453.82 L1580.81 453.82 L1580.81 447.941 Z" fill="#000000" fill-rule="nonzero" fill-opacity="1" /><path clip-path="url(#clip600)" d="M1594.7 419.26 L1616.92 419.26 L1616.92 421.251 L1604.38 453.82 L1599.49 453.82 L1611.3 423.195 L1594.7 423.195 L1594.7 419.26 Z" fill="#000000" fill-rule="nonzero" fill-opacity="1" /><path clip-path="url(#clip600)" d="M1626.09 419.26 L1644.45 419.26 L1644.45 423.195 L1630.37 423.195 L1630.37 431.668 Q1631.39 431.32 1632.41 431.158 Q1633.43 430.973 1634.45 430.973 Q1640.23 430.973 1643.61 434.144 Q1646.99 437.316 1646.99 442.732 Q1646.99 448.311 1643.52 451.413 Q1640.05 454.491 1633.73 454.491 Q1631.55 454.491 1629.28 454.121 Q1627.04 453.751 1624.63 453.01 L1624.63 448.311 Q1626.71 449.445 1628.94 450.001 Q1631.16 450.556 1633.64 450.556 Q1637.64 450.556 1639.98 448.45 Q1642.32 446.343 1642.32 442.732 Q1642.32 439.121 1639.98 437.015 Q1637.64 434.908 1633.64 434.908 Q1631.76 434.908 1629.89 435.325 Q1628.03 435.742 1626.09 436.621 L1626.09 419.26 Z" fill="#000000" fill-rule="nonzero" fill-opacity="1" /><path clip-path="url(#clip600)" d="M1550.46 102.299 L1558.1 102.299 L1558.1 75.9336 L1549.79 77.6003 L1549.79 73.341 L1558.06 71.6744 L1562.73 71.6744 L1562.73 102.299 L1570.37 102.299 L1570.37 106.234 L1550.46 106.234 L1550.46 102.299 Z" fill="#000000" fill-rule="nonzero" fill-opacity="1" /><path clip-path="url(#clip600)" d="M1579.82 100.355 L1584.7 100.355 L1584.7 106.234 L1579.82 106.234 L1579.82 100.355 Z" fill="#000000" fill-rule="nonzero" fill-opacity="1" /><path clip-path="url(#clip600)" d="M1604.89 74.7531 Q1601.27 74.7531 1599.45 78.3179 Q1597.64 81.8595 1597.64 88.9891 Q1597.64 96.0956 1599.45 99.6604 Q1601.27 103.202 1604.89 103.202 Q1608.52 103.202 1610.33 99.6604 Q1612.15 96.0956 1612.15 88.9891 Q1612.15 81.8595 1610.33 78.3179 Q1608.52 74.7531 1604.89 74.7531 M1604.89 71.0494 Q1610.7 71.0494 1613.75 75.6559 Q1616.83 80.2392 1616.83 88.9891 Q1616.83 97.7159 1613.75 102.322 Q1610.7 106.906 1604.89 106.906 Q1599.08 106.906 1596 102.322 Q1592.94 97.7159 1592.94 88.9891 Q1592.94 80.2392 1596 75.6559 Q1599.08 71.0494 1604.89 71.0494 Z" fill="#000000" fill-rule="nonzero" fill-opacity="1" /><path clip-path="url(#clip600)" d="M1635.05 74.7531 Q1631.44 74.7531 1629.61 78.3179 Q1627.8 81.8595 1627.8 88.9891 Q1627.8 96.0956 1629.61 99.6604 Q1631.44 103.202 1635.05 103.202 Q1638.68 103.202 1640.49 99.6604 Q1642.32 96.0956 1642.32 88.9891 Q1642.32 81.8595 1640.49 78.3179 Q1638.68 74.7531 1635.05 74.7531 M1635.05 71.0494 Q1640.86 71.0494 1643.91 75.6559 Q1646.99 80.2392 1646.99 88.9891 Q1646.99 97.7159 1643.91 102.322 Q1640.86 106.906 1635.05 106.906 Q1629.24 106.906 1626.16 102.322 Q1623.1 97.7159 1623.1 88.9891 Q1623.1 80.2392 1626.16 75.6559 Q1629.24 71.0494 1635.05 71.0494 Z" fill="#000000" fill-rule="nonzero" fill-opacity="1" /><path clip-path="url(#clip600)" d="M2494.57 200.05 L3104.16 200.05 L3104.16 96.3696 L2494.57 96.3696  Z" fill="#ffffff" fill-rule="evenodd" fill-opacity="1"/>
<polyline clip-path="url(#clip600)" style="stroke:#000000; stroke-linecap:round; stroke-linejoin:round; stroke-width:4; stroke-opacity:1; fill:none" points="2494.57,200.05 3104.16,200.05 3104.16,96.3696 2494.57,96.3696 2494.57,200.05 "/>
<polyline clip-path="url(#clip600)" style="stroke:#009af9; stroke-linecap:round; stroke-linejoin:round; stroke-width:4; stroke-opacity:1; fill:none" points="2510.77,148.21 2607.95,148.21 "/>
<path clip-path="url(#clip600)" d="M2637.34 165.49 L2624.15 130.93 L2629.03 130.93 L2639.98 160.027 L2650.95 130.93 L2655.82 130.93 L2642.64 165.49 L2637.34 165.49 Z" fill="#000000" fill-rule="nonzero" fill-opacity="1" /><path clip-path="url(#clip600)" d="M2668.78 152.457 Q2663.62 152.457 2661.63 153.638 Q2659.64 154.818 2659.64 157.666 Q2659.64 159.934 2661.12 161.277 Q2662.62 162.596 2665.19 162.596 Q2668.73 162.596 2670.86 160.096 Q2673.01 157.573 2673.01 153.406 L2673.01 152.457 L2668.78 152.457 M2677.27 150.698 L2677.27 165.49 L2673.01 165.49 L2673.01 161.554 Q2671.56 163.915 2669.38 165.05 Q2667.2 166.161 2664.06 166.161 Q2660.08 166.161 2657.71 163.939 Q2655.38 161.693 2655.38 157.943 Q2655.38 153.568 2658.29 151.346 Q2661.23 149.124 2667.04 149.124 L2673.01 149.124 L2673.01 148.707 Q2673.01 145.767 2671.07 144.17 Q2669.15 142.55 2665.65 142.55 Q2663.43 142.55 2661.33 143.082 Q2659.22 143.615 2657.27 144.679 L2657.27 140.744 Q2659.61 139.842 2661.81 139.402 Q2664.01 138.939 2666.09 138.939 Q2671.72 138.939 2674.5 141.855 Q2677.27 144.772 2677.27 150.698 Z" fill="#000000" fill-rule="nonzero" fill-opacity="1" /><path clip-path="url(#clip600)" d="M2686.05 129.471 L2690.31 129.471 L2690.31 165.49 L2686.05 165.49 L2686.05 129.471 Z" fill="#000000" fill-rule="nonzero" fill-opacity="1" /><path clip-path="url(#clip600)" d="M2699.22 139.564 L2703.48 139.564 L2703.48 165.49 L2699.22 165.49 L2699.22 139.564 M2699.22 129.471 L2703.48 129.471 L2703.48 134.865 L2699.22 134.865 L2699.22 129.471 Z" fill="#000000" fill-rule="nonzero" fill-opacity="1" /><path clip-path="url(#clip600)" d="M2729.45 143.499 L2729.45 129.471 L2733.71 129.471 L2733.71 165.49 L2729.45 165.49 L2729.45 161.601 Q2728.11 163.915 2726.05 165.05 Q2724.01 166.161 2721.14 166.161 Q2716.44 166.161 2713.48 162.411 Q2710.54 158.661 2710.54 152.55 Q2710.54 146.439 2713.48 142.689 Q2716.44 138.939 2721.14 138.939 Q2724.01 138.939 2726.05 140.073 Q2728.11 141.184 2729.45 143.499 M2714.94 152.55 Q2714.94 157.249 2716.86 159.934 Q2718.8 162.596 2722.18 162.596 Q2725.56 162.596 2727.51 159.934 Q2729.45 157.249 2729.45 152.55 Q2729.45 147.851 2727.51 145.189 Q2725.56 142.504 2722.18 142.504 Q2718.8 142.504 2716.86 145.189 Q2714.94 147.851 2714.94 152.55 Z" fill="#000000" fill-rule="nonzero" fill-opacity="1" /><path clip-path="url(#clip600)" d="M2754.26 152.457 Q2749.1 152.457 2747.11 153.638 Q2745.12 154.818 2745.12 157.666 Q2745.12 159.934 2746.6 161.277 Q2748.11 162.596 2750.68 162.596 Q2754.22 162.596 2756.35 160.096 Q2758.5 157.573 2758.5 153.406 L2758.5 152.457 L2754.26 152.457 M2762.76 150.698 L2762.76 165.49 L2758.5 165.49 L2758.5 161.554 Q2757.04 163.915 2754.87 165.05 Q2752.69 166.161 2749.54 166.161 Q2745.56 166.161 2743.2 163.939 Q2740.86 161.693 2740.86 157.943 Q2740.86 153.568 2743.78 151.346 Q2746.72 149.124 2752.53 149.124 L2758.5 149.124 L2758.5 148.707 Q2758.5 145.767 2756.56 144.17 Q2754.63 142.55 2751.14 142.55 Q2748.92 142.55 2746.81 143.082 Q2744.7 143.615 2742.76 144.679 L2742.76 140.744 Q2745.1 139.842 2747.3 139.402 Q2749.5 138.939 2751.58 138.939 Q2757.2 138.939 2759.98 141.855 Q2762.76 144.772 2762.76 150.698 Z" fill="#000000" fill-rule="nonzero" fill-opacity="1" /><path clip-path="url(#clip600)" d="M2775.75 132.203 L2775.75 139.564 L2784.52 139.564 L2784.52 142.874 L2775.75 142.874 L2775.75 156.948 Q2775.75 160.119 2776.6 161.022 Q2777.48 161.925 2780.14 161.925 L2784.52 161.925 L2784.52 165.49 L2780.14 165.49 Q2775.21 165.49 2773.34 163.661 Q2771.46 161.809 2771.46 156.948 L2771.46 142.874 L2768.34 142.874 L2768.34 139.564 L2771.46 139.564 L2771.46 132.203 L2775.75 132.203 Z" fill="#000000" fill-rule="nonzero" fill-opacity="1" /><path clip-path="url(#clip600)" d="M2790.12 139.564 L2794.38 139.564 L2794.38 165.49 L2790.12 165.49 L2790.12 139.564 M2790.12 129.471 L2794.38 129.471 L2794.38 134.865 L2790.12 134.865 L2790.12 129.471 Z" fill="#000000" fill-rule="nonzero" fill-opacity="1" /><path clip-path="url(#clip600)" d="M2813.34 142.55 Q2809.91 142.55 2807.92 145.235 Q2805.93 147.897 2805.93 152.55 Q2805.93 157.203 2807.9 159.888 Q2809.89 162.55 2813.34 162.55 Q2816.74 162.55 2818.73 159.865 Q2820.72 157.179 2820.72 152.55 Q2820.72 147.943 2818.73 145.258 Q2816.74 142.55 2813.34 142.55 M2813.34 138.939 Q2818.89 138.939 2822.07 142.55 Q2825.24 146.161 2825.24 152.55 Q2825.24 158.916 2822.07 162.55 Q2818.89 166.161 2813.34 166.161 Q2807.76 166.161 2804.59 162.55 Q2801.44 158.916 2801.44 152.55 Q2801.44 146.161 2804.59 142.55 Q2807.76 138.939 2813.34 138.939 Z" fill="#000000" fill-rule="nonzero" fill-opacity="1" /><path clip-path="url(#clip600)" d="M2853.85 149.841 L2853.85 165.49 L2849.59 165.49 L2849.59 149.98 Q2849.59 146.3 2848.15 144.471 Q2846.72 142.642 2843.85 142.642 Q2840.4 142.642 2838.41 144.842 Q2836.42 147.041 2836.42 150.837 L2836.42 165.49 L2832.13 165.49 L2832.13 139.564 L2836.42 139.564 L2836.42 143.592 Q2837.94 141.254 2840 140.096 Q2842.09 138.939 2844.8 138.939 Q2849.26 138.939 2851.56 141.717 Q2853.85 144.471 2853.85 149.841 Z" fill="#000000" fill-rule="nonzero" fill-opacity="1" /><path clip-path="url(#clip600)" d="M2889.15 135.536 L2882.81 152.735 L2895.51 152.735 L2889.15 135.536 M2886.51 130.93 L2891.81 130.93 L2904.98 165.49 L2900.12 165.49 L2896.97 156.624 L2881.39 156.624 L2878.25 165.49 L2873.31 165.49 L2886.51 130.93 Z" fill="#000000" fill-rule="nonzero" fill-opacity="1" /><path clip-path="url(#clip600)" d="M2927.67 140.559 L2927.67 144.541 Q2925.86 143.545 2924.03 143.059 Q2922.23 142.55 2920.37 142.55 Q2916.23 142.55 2913.94 145.189 Q2911.65 147.804 2911.65 152.55 Q2911.65 157.295 2913.94 159.934 Q2916.23 162.55 2920.37 162.55 Q2922.23 162.55 2924.03 162.064 Q2925.86 161.554 2927.67 160.559 L2927.67 164.494 Q2925.88 165.328 2923.96 165.744 Q2922.06 166.161 2919.91 166.161 Q2914.06 166.161 2910.61 162.48 Q2907.16 158.8 2907.16 152.55 Q2907.16 146.207 2910.63 142.573 Q2914.12 138.939 2920.19 138.939 Q2922.16 138.939 2924.03 139.355 Q2925.91 139.749 2927.67 140.559 Z" fill="#000000" fill-rule="nonzero" fill-opacity="1" /><path clip-path="url(#clip600)" d="M2953.73 140.559 L2953.73 144.541 Q2951.93 143.545 2950.1 143.059 Q2948.29 142.55 2946.44 142.55 Q2942.3 142.55 2940 145.189 Q2937.71 147.804 2937.71 152.55 Q2937.71 157.295 2940 159.934 Q2942.3 162.55 2946.44 162.55 Q2948.29 162.55 2950.1 162.064 Q2951.93 161.554 2953.73 160.559 L2953.73 164.494 Q2951.95 165.328 2950.03 165.744 Q2948.13 166.161 2945.98 166.161 Q2940.12 166.161 2936.67 162.48 Q2933.22 158.8 2933.22 152.55 Q2933.22 146.207 2936.69 142.573 Q2940.19 138.939 2946.25 138.939 Q2948.22 138.939 2950.1 139.355 Q2951.97 139.749 2953.73 140.559 Z" fill="#000000" fill-rule="nonzero" fill-opacity="1" /><path clip-path="url(#clip600)" d="M2960.7 155.258 L2960.7 139.564 L2964.96 139.564 L2964.96 155.096 Q2964.96 158.777 2966.39 160.628 Q2967.83 162.457 2970.7 162.457 Q2974.15 162.457 2976.14 160.258 Q2978.15 158.059 2978.15 154.263 L2978.15 139.564 L2982.41 139.564 L2982.41 165.49 L2978.15 165.49 L2978.15 161.508 Q2976.6 163.869 2974.54 165.027 Q2972.5 166.161 2969.8 166.161 Q2965.33 166.161 2963.01 163.383 Q2960.7 160.605 2960.7 155.258 M2971.42 138.939 L2971.42 138.939 Z" fill="#000000" fill-rule="nonzero" fill-opacity="1" /><path clip-path="url(#clip600)" d="M3006.21 143.545 Q3005.49 143.129 3004.63 142.943 Q3003.8 142.735 3002.78 142.735 Q2999.17 142.735 2997.23 145.096 Q2995.3 147.434 2995.3 151.832 L2995.3 165.49 L2991.02 165.49 L2991.02 139.564 L2995.3 139.564 L2995.3 143.592 Q2996.65 141.23 2998.8 140.096 Q3000.95 138.939 3004.03 138.939 Q3004.47 138.939 3005 139.008 Q3005.54 139.055 3006.18 139.17 L3006.21 143.545 Z" fill="#000000" fill-rule="nonzero" fill-opacity="1" /><path clip-path="url(#clip600)" d="M3022.46 152.457 Q3017.3 152.457 3015.3 153.638 Q3013.31 154.818 3013.31 157.666 Q3013.31 159.934 3014.8 161.277 Q3016.3 162.596 3018.87 162.596 Q3022.41 162.596 3024.54 160.096 Q3026.69 157.573 3026.69 153.406 L3026.69 152.457 L3022.46 152.457 M3030.95 150.698 L3030.95 165.49 L3026.69 165.49 L3026.69 161.554 Q3025.24 163.915 3023.06 165.05 Q3020.88 166.161 3017.74 166.161 Q3013.75 166.161 3011.39 163.939 Q3009.05 161.693 3009.05 157.943 Q3009.05 153.568 3011.97 151.346 Q3014.91 149.124 3020.72 149.124 L3026.69 149.124 L3026.69 148.707 Q3026.69 145.767 3024.75 144.17 Q3022.83 142.55 3019.33 142.55 Q3017.11 142.55 3015 143.082 Q3012.9 143.615 3010.95 144.679 L3010.95 140.744 Q3013.29 139.842 3015.49 139.402 Q3017.69 138.939 3019.77 138.939 Q3025.4 138.939 3028.18 141.855 Q3030.95 144.772 3030.95 150.698 Z" fill="#000000" fill-rule="nonzero" fill-opacity="1" /><path clip-path="url(#clip600)" d="M3058.38 140.559 L3058.38 144.541 Q3056.58 143.545 3054.75 143.059 Q3052.94 142.55 3051.09 142.55 Q3046.95 142.55 3044.66 145.189 Q3042.36 147.804 3042.36 152.55 Q3042.36 157.295 3044.66 159.934 Q3046.95 162.55 3051.09 162.55 Q3052.94 162.55 3054.75 162.064 Q3056.58 161.554 3058.38 160.559 L3058.38 164.494 Q3056.6 165.328 3054.68 165.744 Q3052.78 166.161 3050.63 166.161 Q3044.77 166.161 3041.32 162.48 Q3037.87 158.8 3037.87 152.55 Q3037.87 146.207 3041.35 142.573 Q3044.84 138.939 3050.91 138.939 Q3052.87 138.939 3054.75 139.355 Q3056.62 139.749 3058.38 140.559 Z" fill="#000000" fill-rule="nonzero" fill-opacity="1" /><path clip-path="url(#clip600)" d="M3076.58 167.897 Q3074.77 172.527 3073.06 173.939 Q3071.35 175.351 3068.48 175.351 L3065.07 175.351 L3065.07 171.786 L3067.57 171.786 Q3069.33 171.786 3070.3 170.952 Q3071.28 170.119 3072.46 167.017 L3073.22 165.073 L3062.74 139.564 L3067.25 139.564 L3075.35 159.841 L3083.45 139.564 L3087.97 139.564 L3076.58 167.897 Z" fill="#000000" fill-rule="nonzero" fill-opacity="1" /></svg>
