<?xml version="1.0" encoding="utf-8"?>
<svg xmlns="http://www.w3.org/2000/svg" xmlns:xlink="http://www.w3.org/1999/xlink" width="800" height="500" viewBox="0 0 3200 2000">
<defs>
  <clipPath id="clip970">
    <rect x="0" y="0" width="3200" height="2000"/>
  </clipPath>
</defs>
<path clip-path="url(#clip970)" d="M0 2000 L3200 2000 L3200 0 L0 0  Z" fill="#ffffff" fill-rule="evenodd" fill-opacity="1"/>
<defs>
  <clipPath id="clip971">
    <rect x="640" y="0" width="2241" height="2000"/>
  </clipPath>
</defs>
<path clip-path="url(#clip970)" d="M110.74 1901.26 L3152.76 1901.26 L3152.76 47.2441 L110.74 47.2441  Z" fill="#ffffff" fill-rule="evenodd" fill-opacity="1"/>
<defs>
  <clipPath id="clip972">
    <rect x="110" y="47" width="3043" height="1855"/>
  </clipPath>
</defs>
<polyline clip-path="url(#clip972)" style="stroke:#000000; stroke-linecap:round; stroke-linejoin:round; stroke-width:2; stroke-opacity:0.1; fill:none" points="185.31,1901.26 185.31,47.2441 "/>
<polyline clip-path="url(#clip972)" style="stroke:#000000; stroke-linecap:round; stroke-linejoin:round; stroke-width:2; stroke-opacity:0.1; fill:none" points="761.58,1901.26 761.58,47.2441 "/>
<polyline clip-path="url(#clip972)" style="stroke:#000000; stroke-linecap:round; stroke-linejoin:round; stroke-width:2; stroke-opacity:0.1; fill:none" points="1337.85,1901.26 1337.85,47.2441 "/>
<polyline clip-path="url(#clip972)" style="stroke:#000000; stroke-linecap:round; stroke-linejoin:round; stroke-width:2; stroke-opacity:0.1; fill:none" points="1914.12,1901.26 1914.12,47.2441 "/>
<polyline clip-path="url(#clip972)" style="stroke:#000000; stroke-linecap:round; stroke-linejoin:round; stroke-width:2; stroke-opacity:0.1; fill:none" points="2490.39,1901.26 2490.39,47.2441 "/>
<polyline clip-path="url(#clip972)" style="stroke:#000000; stroke-linecap:round; stroke-linejoin:round; stroke-width:2; stroke-opacity:0.1; fill:none" points="3066.66,1901.26 3066.66,47.2441 "/>
<polyline clip-path="url(#clip970)" style="stroke:#000000; stroke-linecap:round; stroke-linejoin:round; stroke-width:4; stroke-opacity:1; fill:none" points="110.74,1901.26 3152.76,1901.26 "/>
<polyline clip-path="url(#clip970)" style="stroke:#000000; stroke-linecap:round; stroke-linejoin:round; stroke-width:4; stroke-opacity:1; fill:none" points="185.31,1901.26 185.31,1882.36 "/>
<polyline clip-path="url(#clip970)" style="stroke:#000000; stroke-linecap:round; stroke-linejoin:round; stroke-width:4; stroke-opacity:1; fill:none" points="761.58,1901.26 761.58,1882.36 "/>
<polyline clip-path="url(#clip970)" style="stroke:#000000; stroke-linecap:round; stroke-linejoin:round; stroke-width:4; stroke-opacity:1; fill:none" points="1337.85,1901.26 1337.85,1882.36 "/>
<polyline clip-path="url(#clip970)" style="stroke:#000000; stroke-linecap:round; stroke-linejoin:round; stroke-width:4; stroke-opacity:1; fill:none" points="1914.12,1901.26 1914.12,1882.36 "/>
<polyline clip-path="url(#clip970)" style="stroke:#000000; stroke-linecap:round; stroke-linejoin:round; stroke-width:4; stroke-opacity:1; fill:none" points="2490.39,1901.26 2490.39,1882.36 "/>
<polyline clip-path="url(#clip970)" style="stroke:#000000; stroke-linecap:round; stroke-linejoin:round; stroke-width:4; stroke-opacity:1; fill:none" points="3066.66,1901.26 3066.66,1882.36 "/>
<path clip-path="url(#clip970)" d="M185.31 1938.58 Q181.698 1938.58 179.87 1942.14 Q178.064 1945.68 178.064 1952.81 Q178.064 1959.92 179.87 1963.49 Q181.698 1967.03 185.31 1967.03 Q188.944 1967.03 190.749 1963.49 Q192.578 1959.92 192.578 1952.81 Q192.578 1945.68 190.749 1942.14 Q188.944 1938.58 185.31 1938.58 M185.31 1934.87 Q191.12 1934.87 194.175 1939.48 Q197.254 1944.06 197.254 1952.81 Q197.254 1961.54 194.175 1966.15 Q191.12 1970.73 185.31 1970.73 Q179.499 1970.73 176.421 1966.15 Q173.365 1961.54 173.365 1952.81 Q173.365 1944.06 176.421 1939.48 Q179.499 1934.87 185.31 1934.87 Z" fill="#000000" fill-rule="nonzero" fill-opacity="1" /><path clip-path="url(#clip970)" d="M736.279 1935.5 L754.635 1935.5 L754.635 1939.44 L740.561 1939.44 L740.561 1947.91 Q741.58 1947.56 742.598 1947.4 Q743.617 1947.21 744.635 1947.21 Q750.423 1947.21 753.802 1950.38 Q757.182 1953.56 757.182 1958.97 Q757.182 1964.55 753.71 1967.65 Q750.237 1970.73 743.918 1970.73 Q741.742 1970.73 739.473 1970.36 Q737.228 1969.99 734.821 1969.25 L734.821 1964.55 Q736.904 1965.68 739.126 1966.24 Q741.348 1966.8 743.825 1966.8 Q747.83 1966.8 750.168 1964.69 Q752.506 1962.58 752.506 1958.97 Q752.506 1955.36 750.168 1953.25 Q747.83 1951.15 743.825 1951.15 Q741.95 1951.15 740.075 1951.56 Q738.223 1951.98 736.279 1952.86 L736.279 1935.5 Z" fill="#000000" fill-rule="nonzero" fill-opacity="1" /><path clip-path="url(#clip970)" d="M776.395 1938.58 Q772.783 1938.58 770.955 1942.14 Q769.149 1945.68 769.149 1952.81 Q769.149 1959.92 770.955 1963.49 Q772.783 1967.03 776.395 1967.03 Q780.029 1967.03 781.834 1963.49 Q783.663 1959.92 783.663 1952.81 Q783.663 1945.68 781.834 1942.14 Q780.029 1938.58 776.395 1938.58 M776.395 1934.87 Q782.205 1934.87 785.26 1939.48 Q788.339 1944.06 788.339 1952.81 Q788.339 1961.54 785.26 1966.15 Q782.205 1970.73 776.395 1970.73 Q770.584 1970.73 767.506 1966.15 Q764.45 1961.54 764.45 1952.81 Q764.45 1944.06 767.506 1939.48 Q770.584 1934.87 776.395 1934.87 Z" fill="#000000" fill-rule="nonzero" fill-opacity="1" /><path clip-path="url(#clip970)" d="M1297.46 1966.12 L1305.1 1966.12 L1305.1 1939.76 L1296.79 1941.43 L1296.79 1937.17 L1305.05 1935.5 L1309.73 1935.5 L1309.73 1966.12 L1317.36 1966.12 L1317.36 1970.06 L1297.46 1970.06 L1297.46 1966.12 Z" fill="#000000" fill-rule="nonzero" fill-opacity="1" /><path clip-path="url(#clip970)" d="M1336.81 1938.58 Q1333.2 1938.58 1331.37 1942.14 Q1329.56 1945.68 1329.56 1952.81 Q1329.56 1959.92 1331.37 1963.49 Q1333.2 1967.03 1336.81 1967.03 Q1340.44 1967.03 1342.25 1963.49 Q1344.08 1959.92 1344.08 1952.81 Q1344.08 1945.68 1342.25 1942.14 Q1340.44 1938.58 1336.81 1938.58 M1336.81 1934.87 Q1342.62 1934.87 1345.67 1939.48 Q1348.75 1944.06 1348.75 1952.81 Q1348.75 1961.54 1345.67 1966.15 Q1342.62 1970.73 1336.81 1970.73 Q1331 1970.73 1327.92 1966.15 Q1324.86 1961.54 1324.86 1952.81 Q1324.86 1944.06 1327.92 1939.48 Q1331 1934.87 1336.81 1934.87 Z" fill="#000000" fill-rule="nonzero" fill-opacity="1" /><path clip-path="url(#clip970)" d="M1366.97 1938.58 Q1363.36 1938.58 1361.53 1942.14 Q1359.73 1945.68 1359.73 1952.81 Q1359.73 1959.92 1361.53 1963.49 Q1363.36 1967.03 1366.97 1967.03 Q1370.6 1967.03 1372.41 1963.49 Q1374.24 1959.92 1374.24 1952.81 Q1374.24 1945.68 1372.41 1942.14 Q1370.6 1938.58 1366.97 1938.58 M1366.97 1934.87 Q1372.78 1934.87 1375.84 1939.48 Q1378.91 1944.06 1378.91 1952.81 Q1378.91 1961.54 1375.84 1966.15 Q1372.78 1970.73 1366.97 1970.73 Q1361.16 1970.73 1358.08 1966.15 Q1355.03 1961.54 1355.03 1952.81 Q1355.03 1944.06 1358.08 1939.48 Q1361.16 1934.87 1366.97 1934.87 Z" fill="#000000" fill-rule="nonzero" fill-opacity="1" /><path clip-path="url(#clip970)" d="M1873.73 1966.12 L1881.37 1966.12 L1881.37 1939.76 L1873.06 1941.43 L1873.06 1937.17 L1881.32 1935.5 L1886 1935.5 L1886 1966.12 L1893.63 1966.12 L1893.63 1970.06 L1873.73 1970.06 L1873.73 1966.12 Z" fill="#000000" fill-rule="nonzero" fill-opacity="1" /><path clip-path="url(#clip970)" d="M1903.13 1935.5 L1921.48 1935.5 L1921.48 1939.44 L1907.41 1939.44 L1907.41 1947.91 Q1908.43 1947.56 1909.44 1947.4 Q1910.46 1947.21 1911.48 1947.21 Q1917.27 1947.21 1920.65 1950.38 Q1924.03 1953.56 1924.03 1958.97 Q1924.03 1964.55 1920.56 1967.65 Q1917.08 1970.73 1910.76 1970.73 Q1908.59 1970.73 1906.32 1970.36 Q1904.07 1969.99 1901.67 1969.25 L1901.67 1964.55 Q1903.75 1965.68 1905.97 1966.24 Q1908.19 1966.8 1910.67 1966.8 Q1914.68 1966.8 1917.01 1964.69 Q1919.35 1962.58 1919.35 1958.97 Q1919.35 1955.36 1917.01 1953.25 Q1914.68 1951.15 1910.67 1951.15 Q1908.8 1951.15 1906.92 1951.56 Q1905.07 1951.98 1903.13 1952.86 L1903.13 1935.5 Z" fill="#000000" fill-rule="nonzero" fill-opacity="1" /><path clip-path="url(#clip970)" d="M1943.24 1938.58 Q1939.63 1938.58 1937.8 1942.14 Q1936 1945.68 1936 1952.81 Q1936 1959.92 1937.8 1963.49 Q1939.63 1967.03 1943.24 1967.03 Q1946.87 1967.03 1948.68 1963.49 Q1950.51 1959.92 1950.51 1952.81 Q1950.51 1945.68 1948.68 1942.14 Q1946.87 1938.58 1943.24 1938.58 M1943.24 1934.87 Q1949.05 1934.87 1952.11 1939.48 Q1955.19 1944.06 1955.19 1952.81 Q1955.19 1961.54 1952.11 1966.15 Q1949.05 1970.73 1943.24 1970.73 Q1937.43 1970.73 1934.35 1966.15 Q1931.3 1961.54 1931.3 1952.81 Q1931.3 1944.06 1934.35 1939.48 Q1937.43 1934.87 1943.24 1934.87 Z" fill="#000000" fill-rule="nonzero" fill-opacity="1" /><path clip-path="url(#clip970)" d="M2454.08 1966.12 L2470.4 1966.12 L2470.4 1970.06 L2448.46 1970.06 L2448.46 1966.12 Q2451.12 1963.37 2455.7 1958.74 Q2460.31 1954.09 2461.49 1952.75 Q2463.74 1950.22 2464.62 1948.49 Q2465.52 1946.73 2465.52 1945.04 Q2465.52 1942.28 2463.57 1940.55 Q2461.65 1938.81 2458.55 1938.81 Q2456.35 1938.81 2453.9 1939.57 Q2451.47 1940.34 2448.69 1941.89 L2448.69 1937.17 Q2451.51 1936.03 2453.97 1935.45 Q2456.42 1934.87 2458.46 1934.87 Q2463.83 1934.87 2467.02 1937.56 Q2470.22 1940.25 2470.22 1944.74 Q2470.22 1946.87 2469.41 1948.79 Q2468.62 1950.68 2466.51 1953.28 Q2465.93 1953.95 2462.83 1957.17 Q2459.73 1960.36 2454.08 1966.12 Z" fill="#000000" fill-rule="nonzero" fill-opacity="1" /><path clip-path="url(#clip970)" d="M2490.22 1938.58 Q2486.61 1938.58 2484.78 1942.14 Q2482.97 1945.68 2482.97 1952.81 Q2482.97 1959.92 2484.78 1963.49 Q2486.61 1967.03 2490.22 1967.03 Q2493.85 1967.03 2495.66 1963.49 Q2497.49 1959.92 2497.49 1952.81 Q2497.49 1945.68 2495.66 1942.14 Q2493.85 1938.58 2490.22 1938.58 M2490.22 1934.87 Q2496.03 1934.87 2499.08 1939.48 Q2502.16 1944.06 2502.16 1952.81 Q2502.16 1961.54 2499.08 1966.15 Q2496.03 1970.73 2490.22 1970.73 Q2484.41 1970.73 2481.33 1966.15 Q2478.27 1961.54 2478.27 1952.81 Q2478.27 1944.06 2481.33 1939.48 Q2484.41 1934.87 2490.22 1934.87 Z" fill="#000000" fill-rule="nonzero" fill-opacity="1" /><path clip-path="url(#clip970)" d="M2520.38 1938.58 Q2516.77 1938.58 2514.94 1942.14 Q2513.13 1945.68 2513.13 1952.81 Q2513.13 1959.92 2514.94 1963.49 Q2516.77 1967.03 2520.38 1967.03 Q2524.01 1967.03 2525.82 1963.49 Q2527.65 1959.92 2527.65 1952.81 Q2527.65 1945.68 2525.82 1942.14 Q2524.01 1938.58 2520.38 1938.58 M2520.38 1934.87 Q2526.19 1934.87 2529.24 1939.48 Q2532.32 1944.06 2532.32 1952.81 Q2532.32 1961.54 2529.24 1966.15 Q2526.19 1970.73 2520.38 1970.73 Q2514.57 1970.73 2511.49 1966.15 Q2508.43 1961.54 2508.43 1952.81 Q2508.43 1944.06 2511.49 1939.48 Q2514.57 1934.87 2520.38 1934.87 Z" fill="#000000" fill-rule="nonzero" fill-opacity="1" /><path clip-path="url(#clip970)" d="M3030.35 1966.12 L3046.67 1966.12 L3046.67 1970.06 L3024.73 1970.06 L3024.73 1966.12 Q3027.39 1963.37 3031.97 1958.74 Q3036.58 1954.09 3037.76 1952.75 Q3040.01 1950.22 3040.89 1948.49 Q3041.79 1946.73 3041.79 1945.04 Q3041.79 1942.28 3039.84 1940.55 Q3037.92 1938.81 3034.82 1938.81 Q3032.62 1938.81 3030.17 1939.57 Q3027.74 1940.34 3024.96 1941.89 L3024.96 1937.17 Q3027.78 1936.03 3030.24 1935.45 Q3032.69 1934.87 3034.73 1934.87 Q3040.1 1934.87 3043.29 1937.56 Q3046.49 1940.25 3046.49 1944.74 Q3046.49 1946.87 3045.68 1948.79 Q3044.89 1950.68 3042.78 1953.28 Q3042.21 1953.95 3039.1 1957.17 Q3036 1960.36 3030.35 1966.12 Z" fill="#000000" fill-rule="nonzero" fill-opacity="1" /><path clip-path="url(#clip970)" d="M3056.53 1935.5 L3074.89 1935.5 L3074.89 1939.44 L3060.82 1939.44 L3060.82 1947.91 Q3061.83 1947.56 3062.85 1947.4 Q3063.87 1947.21 3064.89 1947.21 Q3070.68 1947.21 3074.06 1950.38 Q3077.44 1953.56 3077.44 1958.97 Q3077.44 1964.55 3073.96 1967.65 Q3070.49 1970.73 3064.17 1970.73 Q3062 1970.73 3059.73 1970.36 Q3057.48 1969.99 3055.08 1969.25 L3055.08 1964.55 Q3057.16 1965.68 3059.38 1966.24 Q3061.6 1966.8 3064.08 1966.8 Q3068.08 1966.8 3070.42 1964.69 Q3072.76 1962.58 3072.76 1958.97 Q3072.76 1955.36 3070.42 1953.25 Q3068.08 1951.15 3064.08 1951.15 Q3062.21 1951.15 3060.33 1951.56 Q3058.48 1951.98 3056.53 1952.86 L3056.53 1935.5 Z" fill="#000000" fill-rule="nonzero" fill-opacity="1" /><path clip-path="url(#clip970)" d="M3096.65 1938.58 Q3093.04 1938.58 3091.21 1942.14 Q3089.4 1945.68 3089.4 1952.81 Q3089.4 1959.92 3091.21 1963.49 Q3093.04 1967.03 3096.65 1967.03 Q3100.28 1967.03 3102.09 1963.49 Q3103.92 1959.92 3103.92 1952.81 Q3103.92 1945.68 3102.09 1942.14 Q3100.28 1938.58 3096.65 1938.58 M3096.65 1934.87 Q3102.46 1934.87 3105.52 1939.48 Q3108.59 1944.06 3108.59 1952.81 Q3108.59 1961.54 3105.52 1966.15 Q3102.46 1970.73 3096.65 1970.73 Q3090.84 1970.73 3087.76 1966.15 Q3084.71 1961.54 3084.71 1952.81 Q3084.71 1944.06 3087.76 1939.48 Q3090.84 1934.87 3096.65 1934.87 Z" fill="#000000" fill-rule="nonzero" fill-opacity="1" /><path clip-path="url(#clip970)" d="M1537.92 2010.6 L1567.96 2010.6 L1567.96 2016.01 L1544.35 2016.01 L1544.35 2030.08 L1566.98 2030.08 L1566.98 2035.49 L1544.35 2035.49 L1544.35 2052.71 L1568.54 2052.71 L1568.54 2058.12 L1537.92 2058.12 L1537.92 2010.6 Z" fill="#000000" fill-rule="nonzero" fill-opacity="1" /><path clip-path="url(#clip970)" d="M1584.51 2052.78 L1584.51 2071.68 L1578.63 2071.68 L1578.63 2022.48 L1584.51 2022.48 L1584.51 2027.89 Q1586.36 2024.7 1589.16 2023.18 Q1591.99 2021.62 1595.91 2021.62 Q1602.4 2021.62 1606.44 2026.77 Q1610.52 2031.93 1610.52 2040.33 Q1610.52 2048.73 1606.44 2053.89 Q1602.4 2059.05 1595.91 2059.05 Q1591.99 2059.05 1589.16 2057.52 Q1586.36 2055.96 1584.51 2052.78 M1604.44 2040.33 Q1604.44 2033.87 1601.77 2030.21 Q1599.12 2026.52 1594.48 2026.52 Q1589.83 2026.52 1587.16 2030.21 Q1584.51 2033.87 1584.51 2040.33 Q1584.51 2046.79 1587.16 2050.48 Q1589.83 2054.15 1594.48 2054.15 Q1599.12 2054.15 1601.77 2050.48 Q1604.44 2046.79 1604.44 2040.33 Z" fill="#000000" fill-rule="nonzero" fill-opacity="1" /><path clip-path="url(#clip970)" d="M1634.04 2026.58 Q1629.33 2026.58 1626.59 2030.27 Q1623.85 2033.93 1623.85 2040.33 Q1623.85 2046.73 1626.56 2050.42 Q1629.3 2054.08 1634.04 2054.08 Q1638.72 2054.08 1641.46 2050.39 Q1644.19 2046.7 1644.19 2040.33 Q1644.19 2034 1641.46 2030.31 Q1638.72 2026.58 1634.04 2026.58 M1634.04 2021.62 Q1641.68 2021.62 1646.04 2026.58 Q1650.4 2031.55 1650.4 2040.33 Q1650.4 2049.08 1646.04 2054.08 Q1641.68 2059.05 1634.04 2059.05 Q1626.37 2059.05 1622.01 2054.08 Q1617.68 2049.08 1617.68 2040.33 Q1617.68 2031.55 1622.01 2026.58 Q1626.37 2021.62 1634.04 2021.62 Z" fill="#000000" fill-rule="nonzero" fill-opacity="1" /><path clip-path="url(#clip970)" d="M1685.76 2023.84 L1685.76 2029.32 Q1683.28 2027.95 1680.76 2027.28 Q1678.28 2026.58 1675.74 2026.58 Q1670.04 2026.58 1666.89 2030.21 Q1663.74 2033.81 1663.74 2040.33 Q1663.74 2046.86 1666.89 2050.48 Q1670.04 2054.08 1675.74 2054.08 Q1678.28 2054.08 1680.76 2053.41 Q1683.28 2052.71 1685.76 2051.34 L1685.76 2056.76 Q1683.31 2057.9 1680.67 2058.47 Q1678.06 2059.05 1675.1 2059.05 Q1667.05 2059.05 1662.3 2053.99 Q1657.56 2048.93 1657.56 2040.33 Q1657.56 2031.61 1662.34 2026.61 Q1667.14 2021.62 1675.48 2021.62 Q1678.19 2021.62 1680.76 2022.19 Q1683.34 2022.73 1685.76 2023.84 Z" fill="#000000" fill-rule="nonzero" fill-opacity="1" /><path clip-path="url(#clip970)" d="M1725.58 2036.61 L1725.58 2058.12 L1719.72 2058.12 L1719.72 2036.8 Q1719.72 2031.74 1717.75 2029.22 Q1715.78 2026.71 1711.83 2026.71 Q1707.09 2026.71 1704.35 2029.73 Q1701.61 2032.76 1701.61 2037.98 L1701.61 2058.12 L1695.72 2058.12 L1695.72 2008.6 L1701.61 2008.6 L1701.61 2028.01 Q1703.71 2024.8 1706.55 2023.21 Q1709.41 2021.62 1713.13 2021.62 Q1719.28 2021.62 1722.43 2025.44 Q1725.58 2029.22 1725.58 2036.61 Z" fill="#000000" fill-rule="nonzero" fill-opacity="1" /><polyline clip-path="url(#clip972)" style="stroke:#000000; stroke-linecap:round; stroke-linejoin:round; stroke-width:2; stroke-opacity:0.1; fill:none" points="110.74,1848.82 3152.76,1848.82 "/>
<polyline clip-path="url(#clip972)" style="stroke:#000000; stroke-linecap:round; stroke-linejoin:round; stroke-width:2; stroke-opacity:0.1; fill:none" points="110.74,1585.43 3152.76,1585.43 "/>
<polyline clip-path="url(#clip972)" style="stroke:#000000; stroke-linecap:round; stroke-linejoin:round; stroke-width:2; stroke-opacity:0.1; fill:none" points="110.74,1322.05 3152.76,1322.05 "/>
<polyline clip-path="url(#clip972)" style="stroke:#000000; stroke-linecap:round; stroke-linejoin:round; stroke-width:2; stroke-opacity:0.1; fill:none" points="110.74,1058.67 3152.76,1058.67 "/>
<polyline clip-path="url(#clip972)" style="stroke:#000000; stroke-linecap:round; stroke-linejoin:round; stroke-width:2; stroke-opacity:0.1; fill:none" points="110.74,795.286 3152.76,795.286 "/>
<polyline clip-path="url(#clip972)" style="stroke:#000000; stroke-linecap:round; stroke-linejoin:round; stroke-width:2; stroke-opacity:0.1; fill:none" points="110.74,531.903 3152.76,531.903 "/>
<polyline clip-path="url(#clip972)" style="stroke:#000000; stroke-linecap:round; stroke-linejoin:round; stroke-width:2; stroke-opacity:0.1; fill:none" points="110.74,268.52 3152.76,268.52 "/>
<polyline clip-path="url(#clip970)" style="stroke:#000000; stroke-linecap:round; stroke-linejoin:round; stroke-width:4; stroke-opacity:1; fill:none" points="110.74,1901.26 110.74,47.2441 "/>
<polyline clip-path="url(#clip970)" style="stroke:#000000; stroke-linecap:round; stroke-linejoin:round; stroke-width:4; stroke-opacity:1; fill:none" points="110.74,1848.82 129.638,1848.82 "/>
<polyline clip-path="url(#clip970)" style="stroke:#000000; stroke-linecap:round; stroke-linejoin:round; stroke-width:4; stroke-opacity:1; fill:none" points="110.74,1585.43 129.638,1585.43 "/>
<polyline clip-path="url(#clip970)" style="stroke:#000000; stroke-linecap:round; stroke-linejoin:round; stroke-width:4; stroke-opacity:1; fill:none" points="110.74,1322.05 129.638,1322.05 "/>
<polyline clip-path="url(#clip970)" style="stroke:#000000; stroke-linecap:round; stroke-linejoin:round; stroke-width:4; stroke-opacity:1; fill:none" points="110.74,1058.67 129.638,1058.67 "/>
<polyline clip-path="url(#clip970)" style="stroke:#000000; stroke-linecap:round; stroke-linejoin:round; stroke-width:4; stroke-opacity:1; fill:none" points="110.74,795.286 129.638,795.286 "/>
<polyline clip-path="url(#clip970)" style="stroke:#000000; stroke-linecap:round; stroke-linejoin:round; stroke-width:4; stroke-opacity:1; fill:none" points="110.74,531.903 129.638,531.903 "/>
<polyline clip-path="url(#clip970)" style="stroke:#000000; stroke-linecap:round; stroke-linejoin:round; stroke-width:4; stroke-opacity:1; fill:none" points="110.74,268.52 129.638,268.52 "/>
<path clip-path="url(#clip970)" d="M5.56454 1834.61 Q1.95345 1834.61 0.124752 1838.18 Q-1.68079 1841.72 -1.68079 1848.85 Q-1.68079 1855.96 0.124752 1859.52 Q1.95345 1863.06 5.56454 1863.06 Q9.19878 1863.06 11.0043 1859.52 Q12.833 1855.96 12.833 1848.85 Q12.833 1841.72 11.0043 1838.18 Q9.19878 1834.61 5.56454 1834.61 M5.56454 1830.91 Q11.3747 1830.91 14.4302 1835.52 Q17.5089 1840.1 17.5089 1848.85 Q17.5089 1857.58 14.4302 1862.18 Q11.3747 1866.77 5.56454 1866.77 Q-0.245616 1866.77 -3.3243 1862.18 Q-6.37984 1857.58 -6.37984 1848.85 Q-6.37984 1840.1 -3.3243 1835.52 Q-0.245616 1830.91 5.56454 1830.91 Z" fill="#000000" fill-rule="nonzero" fill-opacity="1" /><path clip-path="url(#clip970)" d="M25.7265 1860.22 L30.6107 1860.22 L30.6107 1866.1 L25.7265 1866.1 L25.7265 1860.22 Z" fill="#000000" fill-rule="nonzero" fill-opacity="1" /><path clip-path="url(#clip970)" d="M50.7958 1834.61 Q47.1847 1834.61 45.356 1838.18 Q43.5504 1841.72 43.5504 1848.85 Q43.5504 1855.96 45.356 1859.52 Q47.1847 1863.06 50.7958 1863.06 Q54.43 1863.06 56.2356 1859.52 Q58.0643 1855.96 58.0643 1848.85 Q58.0643 1841.72 56.2356 1838.18 Q54.43 1834.61 50.7958 1834.61 M50.7958 1830.91 Q56.6059 1830.91 59.6615 1835.52 Q62.7402 1840.1 62.7402 1848.85 Q62.7402 1857.58 59.6615 1862.18 Q56.6059 1866.77 50.7958 1866.77 Q44.9856 1866.77 41.9069 1862.18 Q38.8514 1857.58 38.8514 1848.85 Q38.8514 1840.1 41.9069 1835.52 Q44.9856 1830.91 50.7958 1830.91 Z" fill="#000000" fill-rule="nonzero" fill-opacity="1" /><path clip-path="url(#clip970)" d="M6.79138 1571.23 Q3.18029 1571.23 1.3516 1574.8 Q-0.453948 1578.34 -0.453948 1585.47 Q-0.453948 1592.57 1.3516 1596.14 Q3.18029 1599.68 6.79138 1599.68 Q10.4256 1599.68 12.2312 1596.14 Q14.0599 1592.57 14.0599 1585.47 Q14.0599 1578.34 12.2312 1574.8 Q10.4256 1571.23 6.79138 1571.23 M6.79138 1567.53 Q12.6015 1567.53 15.6571 1572.13 Q18.7358 1576.72 18.7358 1585.47 Q18.7358 1594.2 15.6571 1598.8 Q12.6015 1603.38 6.79138 1603.38 Q0.981229 1603.38 -2.09746 1598.8 Q-5.153 1594.2 -5.153 1585.47 Q-5.153 1576.72 -2.09746 1572.13 Q0.981229 1567.53 6.79138 1567.53 Z" fill="#000000" fill-rule="nonzero" fill-opacity="1" /><path clip-path="url(#clip970)" d="M26.9533 1596.83 L31.8375 1596.83 L31.8375 1602.71 L26.9533 1602.71 L26.9533 1596.83 Z" fill="#000000" fill-rule="nonzero" fill-opacity="1" /><path clip-path="url(#clip970)" d="M42.8329 1598.78 L50.4717 1598.78 L50.4717 1572.41 L42.1616 1574.08 L42.1616 1569.82 L50.4254 1568.15 L55.1013 1568.15 L55.1013 1598.78 L62.7402 1598.78 L62.7402 1602.71 L42.8329 1602.71 L42.8329 1598.78 Z" fill="#000000" fill-rule="nonzero" fill-opacity="1" /><path clip-path="url(#clip970)" d="M7.16175 1307.85 Q3.55066 1307.85 1.72197 1311.41 Q-0.08358 1314.96 -0.08358 1322.09 Q-0.08358 1329.19 1.72197 1332.76 Q3.55066 1336.3 7.16175 1336.3 Q10.796 1336.3 12.6015 1332.76 Q14.4302 1329.19 14.4302 1322.09 Q14.4302 1314.96 12.6015 1311.41 Q10.796 1307.85 7.16175 1307.85 M7.16175 1304.15 Q12.9719 1304.15 16.0274 1308.75 Q19.1061 1313.34 19.1061 1322.09 Q19.1061 1330.81 16.0274 1335.42 Q12.9719 1340 7.16175 1340 Q1.3516 1340 -1.72709 1335.42 Q-4.78263 1330.81 -4.78263 1322.09 Q-4.78263 1313.34 -1.72709 1308.75 Q1.3516 1304.15 7.16175 1304.15 Z" fill="#000000" fill-rule="nonzero" fill-opacity="1" /><path clip-path="url(#clip970)" d="M27.3237 1333.45 L32.2079 1333.45 L32.2079 1339.33 L27.3237 1339.33 L27.3237 1333.45 Z" fill="#000000" fill-rule="nonzero" fill-opacity="1" /><path clip-path="url(#clip970)" d="M46.4208 1335.4 L62.7402 1335.4 L62.7402 1339.33 L40.7958 1339.33 L40.7958 1335.4 Q43.4579 1332.64 48.0412 1328.01 Q52.6476 1323.36 53.8282 1322.02 Q56.0735 1319.49 56.9532 1317.76 Q57.8559 1316 57.8559 1314.31 Q57.8559 1311.55 55.9115 1309.82 Q53.9902 1308.08 50.8884 1308.08 Q48.6893 1308.08 46.2356 1308.84 Q43.8051 1309.61 41.0273 1311.16 L41.0273 1306.44 Q43.8514 1305.3 46.3051 1304.72 Q48.7588 1304.15 50.7958 1304.15 Q56.1661 1304.15 59.3605 1306.83 Q62.555 1309.52 62.555 1314.01 Q62.555 1316.14 61.7448 1318.06 Q60.9578 1319.96 58.8513 1322.55 Q58.2726 1323.22 55.1708 1326.44 Q52.0689 1329.63 46.4208 1335.4 Z" fill="#000000" fill-rule="nonzero" fill-opacity="1" /><path clip-path="url(#clip970)" d="M6.21268 1044.47 Q2.60159 1044.47 0.772897 1048.03 Q-1.03265 1051.57 -1.03265 1058.7 Q-1.03265 1065.81 0.772897 1069.37 Q2.60159 1072.92 6.21268 1072.92 Q9.84692 1072.92 11.6525 1069.37 Q13.4812 1065.81 13.4812 1058.7 Q13.4812 1051.57 11.6525 1048.03 Q9.84692 1044.47 6.21268 1044.47 M6.21268 1040.76 Q12.0228 1040.76 15.0784 1045.37 Q18.1571 1049.95 18.1571 1058.7 Q18.1571 1067.43 15.0784 1072.04 Q12.0228 1076.62 6.21268 1076.62 Q0.402529 1076.62 -2.67616 1072.04 Q-5.7317 1067.43 -5.7317 1058.7 Q-5.7317 1049.95 -2.67616 1045.37 Q0.402529 1040.76 6.21268 1040.76 Z" fill="#000000" fill-rule="nonzero" fill-opacity="1" /><path clip-path="url(#clip970)" d="M26.3746 1070.07 L31.2588 1070.07 L31.2588 1075.95 L26.3746 1075.95 L26.3746 1070.07 Z" fill="#000000" fill-rule="nonzero" fill-opacity="1" /><path clip-path="url(#clip970)" d="M55.6106 1057.31 Q58.967 1058.03 60.842 1060.3 Q62.7402 1062.57 62.7402 1065.9 Q62.7402 1071.02 59.2217 1073.82 Q55.7032 1076.62 49.2217 1076.62 Q47.0458 1076.62 44.731 1076.18 Q42.4393 1075.76 39.9856 1074.91 L39.9856 1070.39 Q41.9301 1071.53 44.2449 1072.11 Q46.5597 1072.68 49.0828 1072.68 Q53.4809 1072.68 55.7726 1070.95 Q58.0874 1069.21 58.0874 1065.9 Q58.0874 1062.85 55.9346 1061.13 Q53.805 1059.4 49.9856 1059.4 L45.9578 1059.4 L45.9578 1055.55 L50.1708 1055.55 Q53.6198 1055.55 55.4485 1054.19 Q57.2772 1052.8 57.2772 1050.21 Q57.2772 1047.55 55.3791 1046.13 Q53.5041 1044.7 49.9856 1044.7 Q48.0643 1044.7 45.8652 1045.12 Q43.6662 1045.53 41.0273 1046.41 L41.0273 1042.24 Q43.6893 1041.5 46.0041 1041.13 Q48.3421 1040.76 50.4023 1040.76 Q55.7263 1040.76 58.8281 1043.19 Q61.93 1045.6 61.93 1049.72 Q61.93 1052.59 60.2865 1054.58 Q58.643 1056.55 55.6106 1057.31 Z" fill="#000000" fill-rule="nonzero" fill-opacity="1" /><path clip-path="url(#clip970)" d="M5.07843 781.084 Q1.46734 781.084 -0.361356 784.649 Q-2.1669 788.191 -2.1669 795.32 Q-2.1669 802.427 -0.361356 805.992 Q1.46734 809.533 5.07843 809.533 Q8.71267 809.533 10.5182 805.992 Q12.3469 802.427 12.3469 795.32 Q12.3469 788.191 10.5182 784.649 Q8.71267 781.084 5.07843 781.084 M5.07843 777.381 Q10.8886 777.381 13.9441 781.987 Q17.0228 786.57 17.0228 795.32 Q17.0228 804.047 13.9441 808.654 Q10.8886 813.237 5.07843 813.237 Q-0.731725 813.237 -3.81041 808.654 Q-6.86595 804.047 -6.86595 795.32 Q-6.86595 786.57 -3.81041 781.987 Q-0.731725 777.381 5.07843 777.381 Z" fill="#000000" fill-rule="nonzero" fill-opacity="1" /><path clip-path="url(#clip970)" d="M25.2404 806.686 L30.1246 806.686 L30.1246 812.566 L25.2404 812.566 L25.2404 806.686 Z" fill="#000000" fill-rule="nonzero" fill-opacity="1" /><path clip-path="url(#clip970)" d="M53.1569 782.08 L41.3514 800.529 L53.1569 800.529 L53.1569 782.08 M51.93 778.006 L57.8096 778.006 L57.8096 800.529 L62.7402 800.529 L62.7402 804.418 L57.8096 804.418 L57.8096 812.566 L53.1569 812.566 L53.1569 804.418 L37.5551 804.418 L37.5551 799.904 L51.93 778.006 Z" fill="#000000" fill-rule="nonzero" fill-opacity="1" /><path clip-path="url(#clip970)" d="M6.5599 517.702 Q2.94881 517.702 1.12012 521.266 Q-0.685429 524.808 -0.685429 531.938 Q-0.685429 539.044 1.12012 542.609 Q2.94881 546.151 6.5599 546.151 Q10.1941 546.151 11.9997 542.609 Q13.8284 539.044 13.8284 531.938 Q13.8284 524.808 11.9997 521.266 Q10.1941 517.702 6.5599 517.702 M6.5599 513.998 Q12.3701 513.998 15.4256 518.604 Q18.5043 523.188 18.5043 531.938 Q18.5043 540.665 15.4256 545.271 Q12.3701 549.854 6.5599 549.854 Q0.749749 549.854 -2.32894 545.271 Q-5.38448 540.665 -5.38448 531.938 Q-5.38448 523.188 -2.32894 518.604 Q0.749749 513.998 6.5599 513.998 Z" fill="#000000" fill-rule="nonzero" fill-opacity="1" /><path clip-path="url(#clip970)" d="M26.7218 543.303 L31.6061 543.303 L31.6061 549.183 L26.7218 549.183 L26.7218 543.303 Z" fill="#000000" fill-rule="nonzero" fill-opacity="1" /><path clip-path="url(#clip970)" d="M41.8375 514.623 L60.1939 514.623 L60.1939 518.558 L46.1199 518.558 L46.1199 527.03 Q47.1384 526.683 48.1569 526.521 Q49.1754 526.336 50.1939 526.336 Q55.9809 526.336 59.3605 529.507 Q62.7402 532.678 62.7402 538.095 Q62.7402 543.674 59.268 546.776 Q55.7958 549.854 49.4763 549.854 Q47.3004 549.854 45.0319 549.484 Q42.7866 549.114 40.3792 548.373 L40.3792 543.674 Q42.4625 544.808 44.6847 545.364 Q46.9069 545.919 49.3837 545.919 Q53.3884 545.919 55.7263 543.813 Q58.0643 541.706 58.0643 538.095 Q58.0643 534.484 55.7263 532.378 Q53.3884 530.271 49.3837 530.271 Q47.5088 530.271 45.6338 530.688 Q43.7819 531.104 41.8375 531.984 L41.8375 514.623 Z" fill="#000000" fill-rule="nonzero" fill-opacity="1" /><path clip-path="url(#clip970)" d="M5.4025 254.319 Q1.79141 254.319 -0.0372839 257.884 Q-1.84283 261.426 -1.84283 268.555 Q-1.84283 275.662 -0.0372839 279.226 Q1.79141 282.768 5.4025 282.768 Q9.03674 282.768 10.8423 279.226 Q12.671 275.662 12.671 268.555 Q12.671 261.426 10.8423 257.884 Q9.03674 254.319 5.4025 254.319 M5.4025 250.615 Q11.2127 250.615 14.2682 255.222 Q17.3469 259.805 17.3469 268.555 Q17.3469 277.282 14.2682 281.888 Q11.2127 286.472 5.4025 286.472 Q-0.407652 286.472 -3.48634 281.888 Q-6.54188 277.282 -6.54188 268.555 Q-6.54188 259.805 -3.48634 255.222 Q-0.407652 250.615 5.4025 250.615 Z" fill="#000000" fill-rule="nonzero" fill-opacity="1" /><path clip-path="url(#clip970)" d="M25.5644 279.921 L30.4487 279.921 L30.4487 285.8 L25.5644 285.8 L25.5644 279.921 Z" fill="#000000" fill-rule="nonzero" fill-opacity="1" /><path clip-path="url(#clip970)" d="M51.2124 266.657 Q48.0643 266.657 46.2125 268.81 Q44.3838 270.963 44.3838 274.712 Q44.3838 278.439 46.2125 280.615 Q48.0643 282.768 51.2124 282.768 Q54.3606 282.768 56.1893 280.615 Q58.0411 278.439 58.0411 274.712 Q58.0411 270.963 56.1893 268.81 Q54.3606 266.657 51.2124 266.657 M60.4948 252.004 L60.4948 256.264 Q58.7355 255.43 56.93 254.99 Q55.1476 254.551 53.3884 254.551 Q48.7588 254.551 46.3051 257.676 Q43.8745 260.801 43.5273 267.12 Q44.893 265.106 46.9532 264.041 Q49.0134 262.953 51.4902 262.953 Q56.6985 262.953 59.7078 266.125 Q62.7402 269.273 62.7402 274.712 Q62.7402 280.037 59.592 283.254 Q56.4439 286.472 51.2124 286.472 Q45.2171 286.472 42.0458 281.888 Q38.8745 277.282 38.8745 268.555 Q38.8745 260.361 42.7634 255.5 Q46.6523 250.615 53.2032 250.615 Q54.9624 250.615 56.7448 250.963 Q58.5504 251.31 60.4948 252.004 Z" fill="#000000" fill-rule="nonzero" fill-opacity="1" /><path clip-path="url(#clip970)" d="M-112.982 1242.09 L-106.202 1242.09 Q-109.226 1245.34 -110.722 1249.03 Q-112.218 1252.69 -112.218 1256.83 Q-112.218 1264.97 -107.221 1269.3 Q-102.255 1273.63 -92.8342 1273.63 Q-83.4448 1273.63 -78.4477 1269.3 Q-73.4825 1264.97 -73.4825 1256.83 Q-73.4825 1252.69 -74.9784 1249.03 Q-76.4743 1245.34 -79.4981 1242.09 L-72.7822 1242.09 Q-70.4906 1245.46 -69.3448 1249.25 Q-68.1989 1253.01 -68.1989 1257.21 Q-68.1989 1268 -74.7874 1274.2 Q-81.4078 1280.41 -92.8342 1280.41 Q-104.292 1280.41 -110.881 1274.2 Q-117.501 1268 -117.501 1257.21 Q-117.501 1252.94 -116.355 1249.19 Q-115.241 1245.4 -112.982 1242.09 Z" fill="#000000" fill-rule="nonzero" fill-opacity="1" /><path clip-path="url(#clip970)" d="M-99.2954 1211.76 Q-99.8683 1212.74 -100.123 1213.92 Q-100.409 1215.07 -100.409 1216.47 Q-100.409 1221.43 -97.1629 1224.11 Q-93.9482 1226.75 -87.9008 1226.75 L-69.122 1226.75 L-69.122 1232.64 L-104.77 1232.64 L-104.77 1226.75 L-99.2317 1226.75 Q-102.478 1224.9 -104.038 1221.94 Q-105.629 1218.98 -105.629 1214.75 Q-105.629 1214.14 -105.534 1213.41 Q-105.47 1212.68 -105.311 1211.79 L-99.2954 1211.76 Z" fill="#000000" fill-rule="nonzero" fill-opacity="1" /><path clip-path="url(#clip970)" d="M-100.664 1193.23 Q-100.664 1197.94 -96.9719 1200.68 Q-93.3116 1203.42 -86.9141 1203.42 Q-80.5166 1203.42 -76.8245 1200.71 Q-73.1642 1197.97 -73.1642 1193.23 Q-73.1642 1188.55 -76.8563 1185.82 Q-80.5484 1183.08 -86.9141 1183.08 Q-93.248 1183.08 -96.9401 1185.82 Q-100.664 1188.55 -100.664 1193.23 M-105.629 1193.23 Q-105.629 1185.59 -100.664 1181.23 Q-95.6988 1176.87 -86.9141 1176.87 Q-78.1613 1176.87 -73.1642 1181.23 Q-68.1989 1185.59 -68.1989 1193.23 Q-68.1989 1200.9 -73.1642 1205.26 Q-78.1613 1209.59 -86.9141 1209.59 Q-95.6988 1209.59 -100.664 1205.26 Q-105.629 1200.9 -105.629 1193.23 Z" fill="#000000" fill-rule="nonzero" fill-opacity="1" /><path clip-path="url(#clip970)" d="M-103.72 1144.44 L-98.1814 1144.44 Q-99.4545 1146.92 -100.091 1149.6 Q-100.728 1152.27 -100.728 1155.13 Q-100.728 1159.49 -99.3909 1161.69 Q-98.0541 1163.85 -95.3805 1163.85 Q-93.3435 1163.85 -92.1658 1162.29 Q-91.02 1160.74 -89.9696 1156.02 L-89.524 1154.02 Q-88.1872 1147.78 -85.7364 1145.17 Q-83.3175 1142.53 -78.957 1142.53 Q-73.9917 1142.53 -71.0953 1146.48 Q-68.1989 1150.39 -68.1989 1157.27 Q-68.1989 1160.13 -68.7718 1163.25 Q-69.3129 1166.34 -70.4269 1169.77 L-76.4743 1169.77 Q-74.7874 1166.53 -73.9281 1163.38 Q-73.1005 1160.23 -73.1005 1157.14 Q-73.1005 1153 -74.501 1150.77 Q-75.9333 1148.55 -78.5114 1148.55 Q-80.8985 1148.55 -82.1716 1150.17 Q-83.4448 1151.76 -84.6224 1157.2 L-85.0999 1159.24 Q-86.2457 1164.68 -88.601 1167.1 Q-90.9882 1169.52 -95.1259 1169.52 Q-100.155 1169.52 -102.892 1165.96 Q-105.629 1162.39 -105.629 1155.83 Q-105.629 1152.59 -105.152 1149.72 Q-104.674 1146.86 -103.72 1144.44 Z" fill="#000000" fill-rule="nonzero" fill-opacity="1" /><path clip-path="url(#clip970)" d="M-103.72 1110.48 L-98.1814 1110.48 Q-99.4545 1112.96 -100.091 1115.63 Q-100.728 1118.31 -100.728 1121.17 Q-100.728 1125.53 -99.3909 1127.73 Q-98.0541 1129.89 -95.3805 1129.89 Q-93.3435 1129.89 -92.1658 1128.33 Q-91.02 1126.77 -89.9696 1122.06 L-89.524 1120.06 Q-88.1872 1113.82 -85.7364 1111.21 Q-83.3175 1108.57 -78.957 1108.57 Q-73.9917 1108.57 -71.0953 1112.52 Q-68.1989 1116.43 -68.1989 1123.3 Q-68.1989 1126.17 -68.7718 1129.29 Q-69.3129 1132.38 -70.4269 1135.81 L-76.4743 1135.81 Q-74.7874 1132.57 -73.9281 1129.42 Q-73.1005 1126.27 -73.1005 1123.18 Q-73.1005 1119.04 -74.501 1116.81 Q-75.9333 1114.58 -78.5114 1114.58 Q-80.8985 1114.58 -82.1716 1116.21 Q-83.4448 1117.8 -84.6224 1123.24 L-85.0999 1125.28 Q-86.2457 1130.72 -88.601 1133.14 Q-90.9882 1135.56 -95.1259 1135.56 Q-100.155 1135.56 -102.892 1131.99 Q-105.629 1128.43 -105.629 1121.87 Q-105.629 1118.63 -105.152 1115.76 Q-104.674 1112.9 -103.72 1110.48 Z" fill="#000000" fill-rule="nonzero" fill-opacity="1" /><path clip-path="url(#clip970)" d="M-89.5877 1102.2 L-89.5877 1085.05 L-84.3678 1085.05 L-84.3678 1102.2 L-89.5877 1102.2 Z" fill="#000000" fill-rule="nonzero" fill-opacity="1" /><path clip-path="url(#clip970)" d="M-116.642 1075.47 L-116.642 1045.42 L-111.231 1045.42 L-111.231 1069.04 L-97.1629 1069.04 L-97.1629 1046.41 L-91.752 1046.41 L-91.752 1069.04 L-74.5328 1069.04 L-74.5328 1044.85 L-69.122 1044.85 L-69.122 1075.47 L-116.642 1075.47 Z" fill="#000000" fill-rule="nonzero" fill-opacity="1" /><path clip-path="url(#clip970)" d="M-90.638 1004.9 L-69.122 1004.9 L-69.122 1010.76 L-90.4471 1010.76 Q-95.5078 1010.76 -98.0223 1012.73 Q-100.537 1014.71 -100.537 1018.65 Q-100.537 1023.4 -97.513 1026.13 Q-94.4893 1028.87 -89.2694 1028.87 L-69.122 1028.87 L-69.122 1034.76 L-104.77 1034.76 L-104.77 1028.87 L-99.2317 1028.87 Q-102.446 1026.77 -104.038 1023.94 Q-105.629 1021.07 -105.629 1017.35 Q-105.629 1011.2 -101.81 1008.05 Q-98.0223 1004.9 -90.638 1004.9 Z" fill="#000000" fill-rule="nonzero" fill-opacity="1" /><path clip-path="url(#clip970)" d="M-114.891 987.429 L-104.77 987.429 L-104.77 975.366 L-100.218 975.366 L-100.218 987.429 L-80.8667 987.429 Q-76.5062 987.429 -75.2649 986.251 Q-74.0235 985.042 -74.0235 981.382 L-74.0235 975.366 L-69.122 975.366 L-69.122 981.382 Q-69.122 988.161 -71.6364 990.739 Q-74.1827 993.317 -80.8667 993.317 L-100.218 993.317 L-100.218 997.614 L-104.77 997.614 L-104.77 993.317 L-114.891 993.317 L-114.891 987.429 Z" fill="#000000" fill-rule="nonzero" fill-opacity="1" /><path clip-path="url(#clip970)" d="M-99.2954 947.007 Q-99.8683 947.993 -100.123 949.171 Q-100.409 950.317 -100.409 951.717 Q-100.409 956.683 -97.1629 959.356 Q-93.9482 961.998 -87.9008 961.998 L-69.122 961.998 L-69.122 967.886 L-104.77 967.886 L-104.77 961.998 L-99.2317 961.998 Q-102.478 960.152 -104.038 957.192 Q-105.629 954.232 -105.629 949.999 Q-105.629 949.394 -105.534 948.662 Q-105.47 947.93 -105.311 947.039 L-99.2954 947.007 Z" fill="#000000" fill-rule="nonzero" fill-opacity="1" /><path clip-path="url(#clip970)" d="M-100.664 928.483 Q-100.664 933.193 -96.9719 935.93 Q-93.3116 938.668 -86.9141 938.668 Q-80.5166 938.668 -76.8245 935.962 Q-73.1642 933.225 -73.1642 928.483 Q-73.1642 923.804 -76.8563 921.066 Q-80.5484 918.329 -86.9141 918.329 Q-93.248 918.329 -96.9401 921.066 Q-100.664 923.804 -100.664 928.483 M-105.629 928.483 Q-105.629 920.844 -100.664 916.483 Q-95.6988 912.123 -86.9141 912.123 Q-78.1613 912.123 -73.1642 916.483 Q-68.1989 920.844 -68.1989 928.483 Q-68.1989 936.153 -73.1642 940.514 Q-78.1613 944.842 -86.9141 944.842 Q-95.6988 944.842 -100.664 940.514 Q-105.629 936.153 -105.629 928.483 Z" fill="#000000" fill-rule="nonzero" fill-opacity="1" /><path clip-path="url(#clip970)" d="M-74.4691 896.749 L-55.563 896.749 L-55.563 902.638 L-104.77 902.638 L-104.77 896.749 L-99.3591 896.749 Q-102.542 894.903 -104.07 892.103 Q-105.629 889.27 -105.629 885.355 Q-105.629 878.862 -100.473 874.82 Q-95.3168 870.746 -86.9141 870.746 Q-78.5114 870.746 -73.3551 874.82 Q-68.1989 878.862 -68.1989 885.355 Q-68.1989 889.27 -69.7267 892.103 Q-71.2863 894.903 -74.4691 896.749 M-86.9141 876.825 Q-93.3753 876.825 -97.0356 879.498 Q-100.728 882.14 -100.728 886.787 Q-100.728 891.434 -97.0356 894.108 Q-93.3753 896.749 -86.9141 896.749 Q-80.4529 896.749 -76.7608 894.108 Q-73.1005 891.434 -73.1005 886.787 Q-73.1005 882.14 -76.7608 879.498 Q-80.4529 876.825 -86.9141 876.825 Z" fill="#000000" fill-rule="nonzero" fill-opacity="1" /><path clip-path="url(#clip970)" d="M-65.8118 846.206 Q-59.4461 848.688 -57.5045 851.044 Q-55.563 853.399 -55.563 857.346 L-55.563 862.025 L-60.4646 862.025 L-60.4646 858.587 Q-60.4646 856.168 -61.6104 854.831 Q-62.7562 853.495 -67.0213 851.871 L-69.6949 850.821 L-104.77 865.239 L-104.77 859.033 L-76.8881 847.893 L-104.77 836.753 L-104.77 830.546 L-65.8118 846.206 Z" fill="#000000" fill-rule="nonzero" fill-opacity="1" /><path clip-path="url(#clip970)" d="M-116.642 801.487 L-116.642 795.057 L-74.5328 795.057 L-74.5328 771.918 L-69.122 771.918 L-69.122 801.487 L-116.642 801.487 Z" fill="#000000" fill-rule="nonzero" fill-opacity="1" /><path clip-path="url(#clip970)" d="M-100.664 752.757 Q-100.664 757.468 -96.9719 760.205 Q-93.3116 762.942 -86.9141 762.942 Q-80.5166 762.942 -76.8245 760.237 Q-73.1642 757.5 -73.1642 752.757 Q-73.1642 748.078 -76.8563 745.341 Q-80.5484 742.604 -86.9141 742.604 Q-93.248 742.604 -96.9401 745.341 Q-100.664 748.078 -100.664 752.757 M-105.629 752.757 Q-105.629 745.118 -100.664 740.758 Q-95.6988 736.397 -86.9141 736.397 Q-78.1613 736.397 -73.1642 740.758 Q-68.1989 745.118 -68.1989 752.757 Q-68.1989 760.428 -73.1642 764.788 Q-78.1613 769.117 -86.9141 769.117 Q-95.6988 769.117 -100.664 764.788 Q-105.629 760.428 -105.629 752.757 Z" fill="#000000" fill-rule="nonzero" fill-opacity="1" /><path clip-path="url(#clip970)" d="M-103.72 703.964 L-98.1814 703.964 Q-99.4545 706.447 -100.091 709.12 Q-100.728 711.794 -100.728 714.658 Q-100.728 719.019 -99.3909 721.215 Q-98.0541 723.379 -95.3805 723.379 Q-93.3435 723.379 -92.1658 721.82 Q-91.02 720.26 -89.9696 715.55 L-89.524 713.544 Q-88.1872 707.306 -85.7364 704.696 Q-83.3175 702.054 -78.957 702.054 Q-73.9917 702.054 -71.0953 706.001 Q-68.1989 709.916 -68.1989 716.791 Q-68.1989 719.656 -68.7718 722.775 Q-69.3129 725.862 -70.4269 729.3 L-76.4743 729.3 Q-74.7874 726.053 -73.9281 722.902 Q-73.1005 719.751 -73.1005 716.664 Q-73.1005 712.526 -74.501 710.298 Q-75.9333 708.07 -78.5114 708.07 Q-80.8985 708.07 -82.1716 709.693 Q-83.4448 711.285 -84.6224 716.727 L-85.0999 718.764 Q-86.2457 724.207 -88.601 726.626 Q-90.9882 729.045 -95.1259 729.045 Q-100.155 729.045 -102.892 725.48 Q-105.629 721.915 -105.629 715.359 Q-105.629 712.112 -105.152 709.248 Q-104.674 706.383 -103.72 703.964 Z" fill="#000000" fill-rule="nonzero" fill-opacity="1" /><path clip-path="url(#clip970)" d="M-103.72 670.003 L-98.1814 670.003 Q-99.4545 672.486 -100.091 675.159 Q-100.728 677.833 -100.728 680.697 Q-100.728 685.058 -99.3909 687.254 Q-98.0541 689.418 -95.3805 689.418 Q-93.3435 689.418 -92.1658 687.859 Q-91.02 686.299 -89.9696 681.589 L-89.524 679.583 Q-88.1872 673.345 -85.7364 670.735 Q-83.3175 668.093 -78.957 668.093 Q-73.9917 668.093 -71.0953 672.04 Q-68.1989 675.955 -68.1989 682.83 Q-68.1989 685.694 -68.7718 688.814 Q-69.3129 691.901 -70.4269 695.339 L-76.4743 695.339 Q-74.7874 692.092 -73.9281 688.941 Q-73.1005 685.79 -73.1005 682.703 Q-73.1005 678.565 -74.501 676.337 Q-75.9333 674.109 -78.5114 674.109 Q-80.8985 674.109 -82.1716 675.732 Q-83.4448 677.324 -84.6224 682.766 L-85.0999 684.803 Q-86.2457 690.246 -88.601 692.665 Q-90.9882 695.084 -95.1259 695.084 Q-100.155 695.084 -102.892 691.519 Q-105.629 687.954 -105.629 681.398 Q-105.629 678.151 -105.152 675.287 Q-104.674 672.422 -103.72 670.003 Z" fill="#000000" fill-rule="nonzero" fill-opacity="1" /><polyline clip-path="url(#clip972)" style="stroke:#009af9; stroke-linecap:round; stroke-linejoin:round; stroke-width:4; stroke-opacity:1; fill:none" points="196.835,99.7162 208.36,119.52 219.886,139.038 231.411,158.275 242.937,177.235 254.462,195.921 265.987,214.338 277.513,232.489 289.038,250.378 300.564,268.009 312.089,285.385 323.614,302.511 335.14,319.39 346.665,336.026 358.191,352.422 369.716,368.581 381.241,384.508 392.767,400.206 404.292,415.677 415.818,430.927 427.343,445.957 438.868,460.772 450.394,475.374 461.919,489.767 473.445,503.954 484.97,517.939 496.496,531.723 508.021,545.311 519.546,558.706 531.072,571.91 542.597,584.926 554.123,597.758 565.648,610.408 577.173,622.879 588.699,635.174 600.224,647.295 611.75,659.246 623.275,671.029 634.8,682.647 646.326,694.102 657.851,705.397 669.377,716.534 680.902,727.517 692.427,738.346 703.953,749.026 715.478,759.558 727.004,769.944 738.529,780.187 750.054,790.289 761.58,800.253 773.105,810.08 784.631,819.773 796.156,829.334 807.681,838.765 819.207,848.068 830.732,857.245 842.258,866.299 853.783,875.23 865.309,884.041 876.834,892.734 888.359,901.312 899.885,909.774 911.41,918.125 922.936,926.364 934.461,934.495 945.986,942.518 957.512,950.435 969.037,958.249 980.563,965.961 992.088,973.572 1003.61,981.084 1015.14,988.498 1026.66,995.817 1038.19,1003.04 1049.72,1010.17 1061.24,1017.21 1072.77,1024.16 1084.29,1031.02 1095.82,1037.8 1107.34,1044.48 1118.87,1051.09 1130.39,1057.61 1141.92,1064.04 1153.44,1070.4 1164.97,1076.68 1176.49,1082.88 1188.02,1089 1199.55,1095.05 1211.07,1101.02 1222.6,1106.92 1234.12,1112.75 1245.65,1118.5 1257.17,1124.19 1268.7,1129.8 1280.22,1135.35 1291.75,1140.83 1303.27,1146.25 1314.8,1151.6 1326.32,1156.88 1337.85,1162.1 1349.38,1167.26 1360.9,1172.36 1372.43,1177.4 1383.95,1182.38 1395.48,1187.31 1407,1192.17 1418.53,1196.98 1430.05,1201.73 1441.58,1206.42 1453.1,1211.07 1464.63,1215.65 1476.16,1220.19 1487.68,1224.67 1499.21,1229.11 1510.73,1233.49 1522.26,1237.82 1533.78,1242.11 1545.31,1246.34 1556.83,1250.53 1568.36,1254.67 1579.88,1258.77 1591.41,1262.82 1602.93,1266.82 1614.46,1270.78 1625.99,1274.7 1637.51,1278.57 1649.04,1282.41 1660.56,1286.2 1672.09,1289.95 1683.61,1293.65 1695.14,1297.32 1706.66,1300.95 1718.19,1304.54 1729.71,1308.09 1741.24,1311.61 1752.76,1315.08 1764.29,1318.52 1775.82,1321.93 1787.34,1325.29 1798.87,1328.63 1810.39,1331.92 1821.92,1335.19 1833.44,1338.42 1844.97,1341.61 1856.49,1344.78 1868.02,1347.91 1879.54,1351.01 1891.07,1354.07 1902.6,1357.11 1914.12,1360.12 1925.65,1363.09 1937.17,1366.04 1948.7,1368.95 1960.22,1371.84 1971.75,1374.69 1983.27,1377.52 1994.8,1380.32 2006.32,1383.1 2017.85,1385.84 2029.37,1388.56 2040.9,1391.25 2052.43,1393.92 2063.95,1396.56 2075.48,1399.18 2087,1401.77 2098.53,1404.33 2110.05,1406.87 2121.58,1409.39 2133.1,1411.88 2144.63,1414.35 2156.15,1416.79 2167.68,1419.21 2179.2,1421.61 2190.73,1423.99 2202.26,1426.34 2213.78,1428.67 2225.31,1430.98 2236.83,1433.27 2248.36,1435.54 2259.88,1437.79 2271.41,1440.01 2282.93,1442.22 2294.46,1444.41 2305.98,1446.57 2317.51,1448.72 2329.04,1450.85 2340.56,1452.95 2352.09,1455.04 2363.61,1457.11 2375.14,1459.16 2386.66,1461.2 2398.19,1463.21 2409.71,1465.21 2421.24,1467.19 2432.76,1469.15 2444.29,1471.1 2455.81,1473.03 2467.34,1474.94 2478.87,1476.84 2490.39,1478.71 2501.92,1480.58 2513.44,1482.42 2524.97,1484.26 2536.49,1486.07 2548.02,1487.87 2559.54,1489.65 2571.07,1491.42 2582.59,1493.18 2594.12,1494.92 2605.64,1496.64 2617.17,1498.35 2628.7,1500.05 2640.22,1501.73 2651.75,1503.4 2663.27,1505.06 2674.8,1506.7 2686.32,1508.32 2697.85,1509.94 2709.37,1511.54 2720.9,1513.13 2732.42,1514.7 2743.95,1516.27 2755.48,1517.81 2767,1519.35 2778.53,1520.88 2790.05,1522.39 2801.58,1523.89 2813.1,1525.38 2824.63,1526.86 2836.15,1528.32 2847.68,1529.78 2859.2,1531.22 2870.73,1532.65 2882.25,1534.07 2893.78,1535.48 2905.31,1536.88 2916.83,1538.26 2928.36,1539.64 2939.88,1541 2951.41,1542.36 2962.93,1543.7 2974.46,1545.04 2985.98,1546.36 2997.51,1547.68 3009.03,1548.98 3020.56,1550.28 3032.08,1551.56 3043.61,1552.84 3055.14,1554.1 3066.66,1555.36 "/>
<polyline clip-path="url(#clip972)" style="stroke:#e26f46; stroke-linecap:round; stroke-linejoin:round; stroke-width:4; stroke-opacity:1; fill:none" points="196.835,465.206 208.36,510.738 219.886,574.485 231.411,646.836 242.937,721.499 254.462,794.621 265.987,864.03 277.513,928.657 289.038,988.123 300.564,1042.46 312.089,1091.92 323.614,1136.87 335.14,1177.73 346.665,1214.89 358.191,1248.76 369.716,1279.68 381.241,1307.99 392.767,1333.95 404.292,1357.83 415.818,1379.85 427.343,1400.2 438.868,1419.05 450.394,1436.55 461.919,1452.84 473.445,1468.03 484.97,1482.21 496.496,1495.49 508.021,1507.94 519.546,1519.64 531.072,1530.64 542.597,1541 554.123,1550.78 565.648,1560.02 577.173,1568.77 588.699,1577.05 600.224,1584.9 611.75,1592.36 623.275,1599.45 634.8,1606.2 646.326,1612.62 657.851,1618.75 669.377,1624.6 680.902,1630.18 692.427,1635.52 703.953,1640.63 715.478,1645.53 727.004,1650.22 738.529,1654.71 750.054,1659.03 761.58,1663.18 773.105,1667.16 784.631,1671 796.156,1674.69 807.681,1678.24 819.207,1681.66 830.732,1684.96 842.258,1688.14 853.783,1691.22 865.309,1694.18 876.834,1697.05 888.359,1699.82 899.885,1702.5 911.41,1705.09 922.936,1707.61 934.461,1710.04 945.986,1712.39 957.512,1714.68 969.037,1716.89 980.563,1719.04 992.088,1721.12 1003.61,1723.15 1015.14,1725.11 1026.66,1727.02 1038.19,1728.88 1049.72,1730.68 1061.24,1732.44 1072.77,1734.15 1084.29,1735.81 1095.82,1737.43 1107.34,1739 1118.87,1740.54 1130.39,1742.04 1141.92,1743.49 1153.44,1744.92 1164.97,1746.3 1176.49,1747.65 1188.02,1748.97 1199.55,1750.26 1211.07,1751.52 1222.6,1752.75 1234.12,1753.95 1245.65,1755.12 1257.17,1756.27 1268.7,1757.39 1280.22,1758.48 1291.75,1759.55 1303.27,1760.6 1314.8,1761.62 1326.32,1762.63 1337.85,1763.61 1349.38,1764.57 1360.9,1765.51 1372.43,1766.43 1383.95,1767.33 1395.48,1768.22 1407,1769.08 1418.53,1769.93 1430.05,1770.77 1441.58,1771.58 1453.1,1772.38 1464.63,1773.17 1476.16,1773.94 1487.68,1774.69 1499.21,1775.43 1510.73,1776.16 1522.26,1776.87 1533.78,1777.57 1545.31,1778.26 1556.83,1778.94 1568.36,1779.6 1579.88,1780.25 1591.41,1780.9 1602.93,1781.52 1614.46,1782.14 1625.99,1782.75 1637.51,1783.35 1649.04,1783.94 1660.56,1784.51 1672.09,1785.08 1683.61,1785.64 1695.14,1786.19 1706.66,1786.73 1718.19,1787.26 1729.71,1787.78 1741.24,1788.3 1752.76,1788.81 1764.29,1789.31 1775.82,1789.8 1787.34,1790.28 1798.87,1790.76 1810.39,1791.22 1821.92,1791.69 1833.44,1792.14 1844.97,1792.59 1856.49,1793.03 1868.02,1793.47 1879.54,1793.89 1891.07,1794.32 1902.6,1794.73 1914.12,1795.14 1925.65,1795.55 1937.17,1795.94 1948.7,1796.34 1960.22,1796.72 1971.75,1797.11 1983.27,1797.48 1994.8,1797.86 2006.32,1798.22 2017.85,1798.58 2029.37,1798.94 2040.9,1799.29 2052.43,1799.64 2063.95,1799.98 2075.48,1800.32 2087,1800.65 2098.53,1800.98 2110.05,1801.31 2121.58,1801.63 2133.1,1801.95 2144.63,1802.26 2156.15,1802.57 2167.68,1802.87 2179.2,1803.17 2190.73,1803.47 2202.26,1803.76 2213.78,1804.05 2225.31,1804.34 2236.83,1804.62 2248.36,1804.9 2259.88,1805.18 2271.41,1805.45 2282.93,1805.72 2294.46,1805.99 2305.98,1806.25 2317.51,1806.51 2329.04,1806.77 2340.56,1807.03 2352.09,1807.28 2363.61,1807.53 2375.14,1807.77 2386.66,1808.02 2398.19,1808.26 2409.71,1808.49 2421.24,1808.73 2432.76,1808.96 2444.29,1809.19 2455.81,1809.42 2467.34,1809.64 2478.87,1809.87 2490.39,1810.09 2501.92,1810.3 2513.44,1810.52 2524.97,1810.73 2536.49,1810.94 2548.02,1811.15 2559.54,1811.36 2571.07,1811.56 2582.59,1811.76 2594.12,1811.96 2605.64,1812.16 2617.17,1812.36 2628.7,1812.55 2640.22,1812.74 2651.75,1812.93 2663.27,1813.12 2674.8,1813.31 2686.32,1813.49 2697.85,1813.68 2709.37,1813.86 2720.9,1814.03 2732.42,1814.21 2743.95,1814.39 2755.48,1814.56 2767,1814.73 2778.53,1814.9 2790.05,1815.07 2801.58,1815.24 2813.1,1815.41 2824.63,1815.57 2836.15,1815.73 2847.68,1815.89 2859.2,1816.05 2870.73,1816.21 2882.25,1816.37 2893.78,1816.52 2905.31,1816.68 2916.83,1816.83 2928.36,1816.98 2939.88,1817.13 2951.41,1817.28 2962.93,1817.43 2974.46,1817.57 2985.98,1817.72 2997.51,1817.86 3009.03,1818 3020.56,1818.14 3032.08,1818.28 3043.61,1818.42 3055.14,1818.56 3066.66,1818.69 "/>
<polyline clip-path="url(#clip972)" style="stroke:#3da44d; stroke-linecap:round; stroke-linejoin:round; stroke-width:4; stroke-opacity:1; fill:none" points="196.835,463.926 208.36,534.398 219.886,586.727 231.411,631.328 242.937,671.528 254.462,708.844 265.987,744.097 277.513,777.781 289.038,810.217 300.564,841.625 312.089,872.163 323.614,901.947 335.14,931.069 346.665,959.599 358.191,987.595 369.716,1015.1 381.241,1042.16 392.767,1068.79 404.292,1095.02 415.818,1120.86 427.343,1146.33 438.868,1171.42 450.394,1196.14 461.919,1220.48 473.445,1244.43 484.97,1267.98 496.496,1291.12 508.021,1313.82 519.546,1336.07 531.072,1357.85 542.597,1379.14 554.123,1399.91 565.648,1420.16 577.173,1439.85 588.699,1458.98 600.224,1477.54 611.75,1495.5 623.275,1512.87 634.8,1529.64 646.326,1545.81 657.851,1561.37 669.377,1576.34 680.902,1590.71 692.427,1604.5 703.953,1617.72 715.478,1630.37 727.004,1642.48 738.529,1654.05 750.054,1665.11 761.58,1675.67 773.105,1685.74 784.631,1695.35 796.156,1704.51 807.681,1713.23 819.207,1721.53 830.732,1729.43 842.258,1736.93 853.783,1744.05 865.309,1750.8 876.834,1757.2 888.359,1763.24 899.885,1768.95 911.41,1774.33 922.936,1779.4 934.461,1784.16 945.986,1788.63 957.512,1792.81 969.037,1796.73 980.563,1800.38 992.088,1803.8 1003.61,1806.98 1015.14,1809.94 1026.66,1812.7 1038.19,1815.27 1049.72,1817.65 1061.24,1819.87 1072.77,1821.92 1084.29,1823.83 1095.82,1825.6 1107.34,1827.25 1118.87,1828.77 1130.39,1830.19 1141.92,1831.5 1153.44,1832.72 1164.97,1833.85 1176.49,1834.9 1188.02,1835.87 1199.55,1836.77 1211.07,1837.61 1222.6,1838.38 1234.12,1839.1 1245.65,1839.77 1257.17,1840.39 1268.7,1840.97 1280.22,1841.51 1291.75,1842 1303.27,1842.47 1314.8,1842.9 1326.32,1843.3 1337.85,1843.67 1349.38,1844.01 1360.9,1844.34 1372.43,1844.63 1383.95,1844.91 1395.48,1845.17 1407,1845.41 1418.53,1845.64 1430.05,1845.85 1441.58,1846.05 1453.1,1846.23 1464.63,1846.4 1476.16,1846.56 1487.68,1846.7 1499.21,1846.84 1510.73,1846.97 1522.26,1847.09 1533.78,1847.2 1545.31,1847.31 1556.83,1847.4 1568.36,1847.5 1579.88,1847.58 1591.41,1847.66 1602.93,1847.73 1614.46,1847.8 1625.99,1847.87 1637.51,1847.93 1649.04,1847.98 1660.56,1848.04 1672.09,1848.09 1683.61,1848.13 1695.14,1848.17 1706.66,1848.21 1718.19,1848.25 1729.71,1848.29 1741.24,1848.32 1752.76,1848.35 1764.29,1848.38 1775.82,1848.4 1787.34,1848.43 1798.87,1848.45 1810.39,1848.47 1821.92,1848.49 1833.44,1848.51 1844.97,1848.52 1856.49,1848.54 1868.02,1848.55 1879.54,1848.57 1891.07,1848.58 1902.6,1848.59 1914.12,1848.6 1925.65,1848.61 1937.17,1848.62 1948.7,1848.63 1960.22,1848.64 1971.75,1848.65 1983.27,1848.65 1994.8,1848.66 2006.32,1848.67 2017.85,1848.67 2029.37,1848.68 2040.9,1848.68 2052.43,1848.69 2063.95,1848.69 2075.48,1848.7 2087,1848.7 2098.53,1848.7 2110.05,1848.71 2121.58,1848.71 2133.1,1848.71 2144.63,1848.72 2156.15,1848.72 2167.68,1848.72 2179.2,1848.72 2190.73,1848.73 2202.26,1848.73 2213.78,1848.73 2225.31,1848.73 2236.83,1848.74 2248.36,1848.74 2259.88,1848.74 2271.41,1848.74 2282.93,1848.74 2294.46,1848.74 2305.98,1848.75 2317.51,1848.75 2329.04,1848.75 2340.56,1848.75 2352.09,1848.75 2363.61,1848.75 2375.14,1848.75 2386.66,1848.76 2398.19,1848.76 2409.71,1848.76 2421.24,1848.76 2432.76,1848.76 2444.29,1848.76 2455.81,1848.76 2467.34,1848.76 2478.87,1848.76 2490.39,1848.76 2501.92,1848.77 2513.44,1848.77 2524.97,1848.77 2536.49,1848.77 2548.02,1848.77 2559.54,1848.77 2571.07,1848.77 2582.59,1848.77 2594.12,1848.77 2605.64,1848.77 2617.17,1848.77 2628.7,1848.77 2640.22,1848.77 2651.75,1848.77 2663.27,1848.77 2674.8,1848.78 2686.32,1848.78 2697.85,1848.78 2709.37,1848.78 2720.9,1848.78 2732.42,1848.78 2743.95,1848.78 2755.48,1848.78 2767,1848.78 2778.53,1848.78 2790.05,1848.78 2801.58,1848.78 2813.1,1848.78 2824.63,1848.78 2836.15,1848.78 2847.68,1848.78 2859.2,1848.78 2870.73,1848.78 2882.25,1848.78 2893.78,1848.78 2905.31,1848.78 2916.83,1848.78 2928.36,1848.78 2939.88,1848.78 2951.41,1848.78 2962.93,1848.79 2974.46,1848.79 2985.98,1848.79 2997.51,1848.79 3009.03,1848.79 3020.56,1848.79 3032.08,1848.79 3043.61,1848.79 3055.14,1848.79 3066.66,1848.79 "/>
<polyline clip-path="url(#clip972)" style="stroke:#c271d2; stroke-linecap:round; stroke-linejoin:round; stroke-width:4; stroke-opacity:1; fill:none" points="196.835,1269.89 208.36,1315.01 219.886,1362.76 231.411,1407.86 242.937,1448.5 254.462,1484.31 265.987,1515.52 277.513,1542.63 289.038,1566.16 300.564,1586.65 312.089,1604.56 323.614,1620.29 335.14,1634.18 346.665,1646.53 358.191,1657.55 369.716,1667.45 381.241,1676.39 392.767,1684.51 404.292,1691.9 415.818,1698.67 427.343,1704.89 438.868,1710.62 450.394,1715.93 461.919,1720.86 473.445,1725.46 484.97,1729.74 496.496,1733.76 508.021,1737.52 519.546,1741.06 531.072,1744.39 542.597,1747.54 554.123,1750.52 565.648,1753.33 577.173,1756.01 588.699,1758.55 600.224,1760.96 611.75,1763.26 623.275,1765.46 634.8,1767.55 646.326,1769.55 657.851,1771.46 669.377,1773.3 680.902,1775.05 692.427,1776.74 703.953,1778.36 715.478,1779.91 727.004,1781.41 738.529,1782.85 750.054,1784.24 761.58,1785.57 773.105,1786.86 784.631,1788.1 796.156,1789.31 807.681,1790.47 819.207,1791.59 830.732,1792.67 842.258,1793.72 853.783,1794.74 865.309,1795.73 876.834,1796.68 888.359,1797.61 899.885,1798.51 911.41,1799.38 922.936,1800.23 934.461,1801.05 945.986,1801.85 957.512,1802.63 969.037,1803.38 980.563,1804.12 992.088,1804.83 1003.61,1805.53 1015.14,1806.21 1026.66,1806.87 1038.19,1807.51 1049.72,1808.14 1061.24,1808.75 1072.77,1809.35 1084.29,1809.93 1095.82,1810.5 1107.34,1811.05 1118.87,1811.6 1130.39,1812.12 1141.92,1812.64 1153.44,1813.15 1164.97,1813.64 1176.49,1814.12 1188.02,1814.6 1199.55,1815.06 1211.07,1815.51 1222.6,1815.95 1234.12,1816.38 1245.65,1816.81 1257.17,1817.22 1268.7,1817.63 1280.22,1818.02 1291.75,1818.41 1303.27,1818.8 1314.8,1819.17 1326.32,1819.54 1337.85,1819.9 1349.38,1820.25 1360.9,1820.59 1372.43,1820.93 1383.95,1821.27 1395.48,1821.59 1407,1821.91 1418.53,1822.23 1430.05,1822.54 1441.58,1822.84 1453.1,1823.14 1464.63,1823.43 1476.16,1823.72 1487.68,1824 1499.21,1824.28 1510.73,1824.55 1522.26,1824.82 1533.78,1825.08 1545.31,1825.34 1556.83,1825.59 1568.36,1825.84 1579.88,1826.09 1591.41,1826.33 1602.93,1826.57 1614.46,1826.8 1625.99,1827.03 1637.51,1827.26 1649.04,1827.48 1660.56,1827.7 1672.09,1827.91 1683.61,1828.13 1695.14,1828.33 1706.66,1828.54 1718.19,1828.74 1729.71,1828.94 1741.24,1829.14 1752.76,1829.33 1764.29,1829.52 1775.82,1829.71 1787.34,1829.9 1798.87,1830.08 1810.39,1830.26 1821.92,1830.44 1833.44,1830.61 1844.97,1830.78 1856.49,1830.95 1868.02,1831.12 1879.54,1831.28 1891.07,1831.45 1902.6,1831.61 1914.12,1831.76 1925.65,1831.92 1937.17,1832.07 1948.7,1832.23 1960.22,1832.37 1971.75,1832.52 1983.27,1832.67 1994.8,1832.81 2006.32,1832.95 2017.85,1833.09 2029.37,1833.23 2040.9,1833.37 2052.43,1833.5 2063.95,1833.63 2075.48,1833.76 2087,1833.89 2098.53,1834.02 2110.05,1834.15 2121.58,1834.27 2133.1,1834.4 2144.63,1834.52 2156.15,1834.64 2167.68,1834.75 2179.2,1834.87 2190.73,1834.99 2202.26,1835.1 2213.78,1835.21 2225.31,1835.33 2236.83,1835.44 2248.36,1835.54 2259.88,1835.65 2271.41,1835.76 2282.93,1835.86 2294.46,1835.97 2305.98,1836.07 2317.51,1836.17 2329.04,1836.27 2340.56,1836.37 2352.09,1836.47 2363.61,1836.56 2375.14,1836.66 2386.66,1836.75 2398.19,1836.85 2409.71,1836.94 2421.24,1837.03 2432.76,1837.12 2444.29,1837.21 2455.81,1837.3 2467.34,1837.38 2478.87,1837.47 2490.39,1837.56 2501.92,1837.64 2513.44,1837.72 2524.97,1837.81 2536.49,1837.89 2548.02,1837.97 2559.54,1838.05 2571.07,1838.13 2582.59,1838.21 2594.12,1838.29 2605.64,1838.36 2617.17,1838.44 2628.7,1838.51 2640.22,1838.59 2651.75,1838.66 2663.27,1838.73 2674.8,1838.81 2686.32,1838.88 2697.85,1838.95 2709.37,1839.02 2720.9,1839.09 2732.42,1839.16 2743.95,1839.22 2755.48,1839.29 2767,1839.36 2778.53,1839.42 2790.05,1839.49 2801.58,1839.55 2813.1,1839.62 2824.63,1839.68 2836.15,1839.74 2847.68,1839.8 2859.2,1839.87 2870.73,1839.93 2882.25,1839.99 2893.78,1840.05 2905.31,1840.11 2916.83,1840.16 2928.36,1840.22 2939.88,1840.28 2951.41,1840.34 2962.93,1840.39 2974.46,1840.45 2985.98,1840.5 2997.51,1840.56 3009.03,1840.61 3020.56,1840.67 3032.08,1840.72 3043.61,1840.77 3055.14,1840.83 3066.66,1840.88 "/>
<path clip-path="url(#clip970)" d="M2335.3 368.245 L3051.36 368.245 L3051.36 109.045 L2335.3 109.045  Z" fill="#ffffff" fill-rule="evenodd" fill-opacity="1"/>
<polyline clip-path="url(#clip970)" style="stroke:#000000; stroke-linecap:round; stroke-linejoin:round; stroke-width:4; stroke-opacity:1; fill:none" points="2335.3,368.245 3051.36,368.245 3051.36,109.045 2335.3,109.045 2335.3,368.245 "/>
<polyline clip-path="url(#clip970)" style="stroke:#009af9; stroke-linecap:round; stroke-linejoin:round; stroke-width:4; stroke-opacity:1; fill:none" points="2369.1,160.885 2571.91,160.885 "/>
<path clip-path="url(#clip970)" d="M2631.26 173.234 L2631.26 163.952 L2623.62 163.952 L2623.62 160.109 L2635.89 160.109 L2635.89 174.947 Q2633.18 176.868 2629.92 177.864 Q2626.65 178.836 2622.95 178.836 Q2614.85 178.836 2610.27 174.114 Q2605.71 169.368 2605.71 160.919 Q2605.71 152.447 2610.27 147.725 Q2614.85 142.98 2622.95 142.98 Q2626.33 142.98 2629.36 143.813 Q2632.42 144.646 2634.99 146.267 L2634.99 151.243 Q2632.4 149.044 2629.48 147.933 Q2626.56 146.822 2623.34 146.822 Q2617 146.822 2613.81 150.364 Q2610.64 153.905 2610.64 160.919 Q2610.64 167.91 2613.81 171.452 Q2617 174.993 2623.34 174.993 Q2625.82 174.993 2627.77 174.577 Q2629.71 174.137 2631.26 173.234 Z" fill="#000000" fill-rule="nonzero" fill-opacity="1" /><path clip-path="url(#clip970)" d="M2659.27 156.22 Q2658.55 155.804 2657.7 155.618 Q2656.86 155.41 2655.84 155.41 Q2652.23 155.41 2650.29 157.771 Q2648.37 160.109 2648.37 164.507 L2648.37 178.165 L2644.08 178.165 L2644.08 152.239 L2648.37 152.239 L2648.37 156.267 Q2649.71 153.905 2651.86 152.771 Q2654.02 151.614 2657.09 151.614 Q2657.53 151.614 2658.07 151.683 Q2658.6 151.73 2659.25 151.845 L2659.27 156.22 Z" fill="#000000" fill-rule="nonzero" fill-opacity="1" /><path clip-path="url(#clip970)" d="M2675.52 165.132 Q2670.36 165.132 2668.37 166.313 Q2666.38 167.493 2666.38 170.341 Q2666.38 172.609 2667.86 173.952 Q2669.36 175.271 2671.93 175.271 Q2675.47 175.271 2677.6 172.771 Q2679.76 170.248 2679.76 166.081 L2679.76 165.132 L2675.52 165.132 M2684.02 163.373 L2684.02 178.165 L2679.76 178.165 L2679.76 174.229 Q2678.3 176.591 2676.12 177.725 Q2673.95 178.836 2670.8 178.836 Q2666.82 178.836 2664.46 176.614 Q2662.12 174.368 2662.12 170.618 Q2662.12 166.243 2665.03 164.021 Q2667.97 161.799 2673.78 161.799 L2679.76 161.799 L2679.76 161.382 Q2679.76 158.443 2677.81 156.845 Q2675.89 155.225 2672.4 155.225 Q2670.17 155.225 2668.07 155.757 Q2665.96 156.29 2664.02 157.355 L2664.02 153.419 Q2666.35 152.517 2668.55 152.077 Q2670.75 151.614 2672.83 151.614 Q2678.46 151.614 2681.24 154.53 Q2684.02 157.447 2684.02 163.373 Z" fill="#000000" fill-rule="nonzero" fill-opacity="1" /><path clip-path="url(#clip970)" d="M2709.85 156.174 L2709.85 142.146 L2714.11 142.146 L2714.11 178.165 L2709.85 178.165 L2709.85 174.276 Q2708.51 176.591 2706.45 177.725 Q2704.41 178.836 2701.54 178.836 Q2696.84 178.836 2693.88 175.086 Q2690.94 171.336 2690.94 165.225 Q2690.94 159.114 2693.88 155.364 Q2696.84 151.614 2701.54 151.614 Q2704.41 151.614 2706.45 152.748 Q2708.51 153.859 2709.85 156.174 M2695.33 165.225 Q2695.33 169.924 2697.26 172.609 Q2699.2 175.271 2702.58 175.271 Q2705.96 175.271 2707.9 172.609 Q2709.85 169.924 2709.85 165.225 Q2709.85 160.526 2707.9 157.864 Q2705.96 155.179 2702.58 155.179 Q2699.2 155.179 2697.26 157.864 Q2695.33 160.526 2695.33 165.225 Z" fill="#000000" fill-rule="nonzero" fill-opacity="1" /><path clip-path="url(#clip970)" d="M2722.88 152.239 L2727.14 152.239 L2727.14 178.165 L2722.88 178.165 L2722.88 152.239 M2722.88 142.146 L2727.14 142.146 L2727.14 147.54 L2722.88 147.54 L2722.88 142.146 Z" fill="#000000" fill-rule="nonzero" fill-opacity="1" /><path clip-path="url(#clip970)" d="M2758.23 164.137 L2758.23 166.22 L2738.64 166.22 Q2738.92 170.618 2741.28 172.933 Q2743.67 175.225 2747.9 175.225 Q2750.36 175.225 2752.65 174.623 Q2754.96 174.021 2757.23 172.817 L2757.23 176.845 Q2754.94 177.817 2752.53 178.327 Q2750.13 178.836 2747.65 178.836 Q2741.45 178.836 2737.81 175.225 Q2734.2 171.614 2734.2 165.456 Q2734.2 159.091 2737.63 155.364 Q2741.08 151.614 2746.91 151.614 Q2752.14 151.614 2755.17 154.993 Q2758.23 158.35 2758.23 164.137 M2753.97 162.887 Q2753.92 159.392 2752 157.308 Q2750.1 155.225 2746.95 155.225 Q2743.39 155.225 2741.24 157.239 Q2739.11 159.253 2738.78 162.91 L2753.97 162.887 Z" fill="#000000" fill-rule="nonzero" fill-opacity="1" /><path clip-path="url(#clip970)" d="M2786.77 162.517 L2786.77 178.165 L2782.51 178.165 L2782.51 162.655 Q2782.51 158.975 2781.07 157.146 Q2779.64 155.318 2776.77 155.318 Q2773.32 155.318 2771.33 157.517 Q2769.34 159.716 2769.34 163.512 L2769.34 178.165 L2765.06 178.165 L2765.06 152.239 L2769.34 152.239 L2769.34 156.267 Q2770.87 153.929 2772.93 152.771 Q2775.01 151.614 2777.72 151.614 Q2782.19 151.614 2784.48 154.392 Q2786.77 157.146 2786.77 162.517 Z" fill="#000000" fill-rule="nonzero" fill-opacity="1" /><path clip-path="url(#clip970)" d="M2799.48 144.878 L2799.48 152.239 L2808.25 152.239 L2808.25 155.549 L2799.48 155.549 L2799.48 169.623 Q2799.48 172.794 2800.33 173.697 Q2801.21 174.6 2803.88 174.6 L2808.25 174.6 L2808.25 178.165 L2803.88 178.165 Q2798.95 178.165 2797.07 176.336 Q2795.2 174.484 2795.2 169.623 L2795.2 155.549 L2792.07 155.549 L2792.07 152.239 L2795.2 152.239 L2795.2 144.878 L2799.48 144.878 Z" fill="#000000" fill-rule="nonzero" fill-opacity="1" /><path clip-path="url(#clip970)" d="M2833.78 147.447 L2833.78 174.322 L2839.43 174.322 Q2846.58 174.322 2849.89 171.081 Q2853.23 167.841 2853.23 160.85 Q2853.23 153.905 2849.89 150.688 Q2846.58 147.447 2839.43 147.447 L2833.78 147.447 M2829.11 143.605 L2838.71 143.605 Q2848.76 143.605 2853.46 147.794 Q2858.16 151.961 2858.16 160.85 Q2858.16 169.785 2853.44 173.975 Q2848.71 178.165 2838.71 178.165 L2829.11 178.165 L2829.11 143.605 Z" fill="#000000" fill-rule="nonzero" fill-opacity="1" /><path clip-path="url(#clip970)" d="M2887.6 164.137 L2887.6 166.22 L2868.02 166.22 Q2868.3 170.618 2870.66 172.933 Q2873.04 175.225 2877.28 175.225 Q2879.73 175.225 2882.02 174.623 Q2884.34 174.021 2886.61 172.817 L2886.61 176.845 Q2884.32 177.817 2881.91 178.327 Q2879.5 178.836 2877.02 178.836 Q2870.82 178.836 2867.19 175.225 Q2863.57 171.614 2863.57 165.456 Q2863.57 159.091 2867 155.364 Q2870.45 151.614 2876.28 151.614 Q2881.51 151.614 2884.55 154.993 Q2887.6 158.35 2887.6 164.137 M2883.34 162.887 Q2883.3 159.392 2881.38 157.308 Q2879.48 155.225 2876.33 155.225 Q2872.76 155.225 2870.61 157.239 Q2868.48 159.253 2868.16 162.91 L2883.34 162.887 Z" fill="#000000" fill-rule="nonzero" fill-opacity="1" /><path clip-path="url(#clip970)" d="M2911.12 153.003 L2911.12 157.03 Q2909.32 156.105 2907.37 155.642 Q2905.43 155.179 2903.34 155.179 Q2900.17 155.179 2898.57 156.151 Q2897 157.123 2897 159.067 Q2897 160.549 2898.13 161.405 Q2899.27 162.239 2902.69 163.003 L2904.15 163.327 Q2908.69 164.299 2910.59 166.081 Q2912.51 167.841 2912.51 171.012 Q2912.51 174.623 2909.64 176.729 Q2906.79 178.836 2901.79 178.836 Q2899.71 178.836 2897.44 178.419 Q2895.19 178.026 2892.69 177.216 L2892.69 172.817 Q2895.06 174.044 2897.35 174.669 Q2899.64 175.271 2901.88 175.271 Q2904.89 175.271 2906.51 174.253 Q2908.13 173.211 2908.13 171.336 Q2908.13 169.6 2906.95 168.674 Q2905.8 167.748 2901.84 166.892 L2900.36 166.544 Q2896.4 165.711 2894.64 163.998 Q2892.88 162.262 2892.88 159.253 Q2892.88 155.595 2895.47 153.605 Q2898.07 151.614 2902.83 151.614 Q2905.19 151.614 2907.28 151.961 Q2909.36 152.308 2911.12 153.003 Z" fill="#000000" fill-rule="nonzero" fill-opacity="1" /><path clip-path="url(#clip970)" d="M2937.95 153.234 L2937.95 157.216 Q2936.14 156.22 2934.31 155.734 Q2932.51 155.225 2930.66 155.225 Q2926.51 155.225 2924.22 157.864 Q2921.93 160.48 2921.93 165.225 Q2921.93 169.97 2924.22 172.609 Q2926.51 175.225 2930.66 175.225 Q2932.51 175.225 2934.31 174.739 Q2936.14 174.229 2937.95 173.234 L2937.95 177.169 Q2936.17 178.003 2934.25 178.419 Q2932.35 178.836 2930.19 178.836 Q2924.34 178.836 2920.89 175.155 Q2917.44 171.475 2917.44 165.225 Q2917.44 158.882 2920.91 155.248 Q2924.41 151.614 2930.47 151.614 Q2932.44 151.614 2934.31 152.031 Q2936.19 152.424 2937.95 153.234 Z" fill="#000000" fill-rule="nonzero" fill-opacity="1" /><path clip-path="url(#clip970)" d="M2967.53 164.137 L2967.53 166.22 L2947.95 166.22 Q2948.23 170.618 2950.59 172.933 Q2952.97 175.225 2957.21 175.225 Q2959.66 175.225 2961.95 174.623 Q2964.27 174.021 2966.54 172.817 L2966.54 176.845 Q2964.25 177.817 2961.84 178.327 Q2959.43 178.836 2956.95 178.836 Q2950.75 178.836 2947.12 175.225 Q2943.5 171.614 2943.5 165.456 Q2943.5 159.091 2946.93 155.364 Q2950.38 151.614 2956.21 151.614 Q2961.44 151.614 2964.48 154.993 Q2967.53 158.35 2967.53 164.137 M2963.27 162.887 Q2963.23 159.392 2961.31 157.308 Q2959.41 155.225 2956.26 155.225 Q2952.69 155.225 2950.54 157.239 Q2948.41 159.253 2948.09 162.91 L2963.27 162.887 Z" fill="#000000" fill-rule="nonzero" fill-opacity="1" /><path clip-path="url(#clip970)" d="M2996.07 162.517 L2996.07 178.165 L2991.81 178.165 L2991.81 162.655 Q2991.81 158.975 2990.38 157.146 Q2988.94 155.318 2986.07 155.318 Q2982.62 155.318 2980.63 157.517 Q2978.64 159.716 2978.64 163.512 L2978.64 178.165 L2974.36 178.165 L2974.36 152.239 L2978.64 152.239 L2978.64 156.267 Q2980.17 153.929 2982.23 152.771 Q2984.31 151.614 2987.02 151.614 Q2991.49 151.614 2993.78 154.392 Q2996.07 157.146 2996.07 162.517 Z" fill="#000000" fill-rule="nonzero" fill-opacity="1" /><path clip-path="url(#clip970)" d="M3008.78 144.878 L3008.78 152.239 L3017.56 152.239 L3017.56 155.549 L3008.78 155.549 L3008.78 169.623 Q3008.78 172.794 3009.64 173.697 Q3010.52 174.6 3013.18 174.6 L3017.56 174.6 L3017.56 178.165 L3013.18 178.165 Q3008.25 178.165 3006.37 176.336 Q3004.5 174.484 3004.5 169.623 L3004.5 155.549 L3001.37 155.549 L3001.37 152.239 L3004.5 152.239 L3004.5 144.878 L3008.78 144.878 Z" fill="#000000" fill-rule="nonzero" fill-opacity="1" /><polyline clip-path="url(#clip970)" style="stroke:#e26f46; stroke-linecap:round; stroke-linejoin:round; stroke-width:4; stroke-opacity:1; fill:none" points="2369.1,212.725 2571.91,212.725 "/>
<path clip-path="url(#clip970)" d="M2605.71 195.445 L2612.67 195.445 L2621.49 218.963 L2630.36 195.445 L2637.33 195.445 L2637.33 230.005 L2632.77 230.005 L2632.77 199.658 L2623.85 223.361 L2619.15 223.361 L2610.24 199.658 L2610.24 230.005 L2605.71 230.005 L2605.71 195.445 Z" fill="#000000" fill-rule="nonzero" fill-opacity="1" /><path clip-path="url(#clip970)" d="M2656.47 207.065 Q2653.04 207.065 2651.05 209.75 Q2649.06 212.412 2649.06 217.065 Q2649.06 221.718 2651.03 224.403 Q2653.02 227.065 2656.47 227.065 Q2659.87 227.065 2661.86 224.38 Q2663.85 221.694 2663.85 217.065 Q2663.85 212.458 2661.86 209.773 Q2659.87 207.065 2656.47 207.065 M2656.47 203.454 Q2662.02 203.454 2665.2 207.065 Q2668.37 210.676 2668.37 217.065 Q2668.37 223.431 2665.2 227.065 Q2662.02 230.676 2656.47 230.676 Q2650.89 230.676 2647.72 227.065 Q2644.57 223.431 2644.57 217.065 Q2644.57 210.676 2647.72 207.065 Q2650.89 203.454 2656.47 203.454 Z" fill="#000000" fill-rule="nonzero" fill-opacity="1" /><path clip-path="url(#clip970)" d="M2695.61 209.056 Q2697.21 206.185 2699.43 204.82 Q2701.65 203.454 2704.66 203.454 Q2708.71 203.454 2710.91 206.301 Q2713.11 209.125 2713.11 214.357 L2713.11 230.005 L2708.83 230.005 L2708.83 214.495 Q2708.83 210.769 2707.51 208.963 Q2706.19 207.158 2703.48 207.158 Q2700.17 207.158 2698.25 209.357 Q2696.33 211.556 2696.33 215.352 L2696.33 230.005 L2692.05 230.005 L2692.05 214.495 Q2692.05 210.745 2690.73 208.963 Q2689.41 207.158 2686.65 207.158 Q2683.39 207.158 2681.47 209.38 Q2679.55 211.579 2679.55 215.352 L2679.55 230.005 L2675.27 230.005 L2675.27 204.079 L2679.55 204.079 L2679.55 208.107 Q2681.01 205.722 2683.04 204.588 Q2685.08 203.454 2687.88 203.454 Q2690.71 203.454 2692.67 204.889 Q2694.66 206.324 2695.61 209.056 Z" fill="#000000" fill-rule="nonzero" fill-opacity="1" /><path clip-path="url(#clip970)" d="M2743.78 215.977 L2743.78 218.06 L2724.2 218.06 Q2724.48 222.458 2726.84 224.773 Q2729.22 227.065 2733.46 227.065 Q2735.91 227.065 2738.2 226.463 Q2740.52 225.861 2742.79 224.657 L2742.79 228.685 Q2740.5 229.657 2738.09 230.167 Q2735.68 230.676 2733.2 230.676 Q2727 230.676 2723.37 227.065 Q2719.76 223.454 2719.76 217.296 Q2719.76 210.931 2723.18 207.204 Q2726.63 203.454 2732.46 203.454 Q2737.7 203.454 2740.73 206.833 Q2743.78 210.19 2743.78 215.977 M2739.52 214.727 Q2739.48 211.232 2737.56 209.148 Q2735.66 207.065 2732.51 207.065 Q2728.95 207.065 2726.79 209.079 Q2724.66 211.093 2724.34 214.75 L2739.52 214.727 Z" fill="#000000" fill-rule="nonzero" fill-opacity="1" /><path clip-path="url(#clip970)" d="M2772.33 214.357 L2772.33 230.005 L2768.07 230.005 L2768.07 214.495 Q2768.07 210.815 2766.63 208.986 Q2765.2 207.158 2762.33 207.158 Q2758.88 207.158 2756.89 209.357 Q2754.89 211.556 2754.89 215.352 L2754.89 230.005 L2750.61 230.005 L2750.61 204.079 L2754.89 204.079 L2754.89 208.107 Q2756.42 205.769 2758.48 204.611 Q2760.57 203.454 2763.27 203.454 Q2767.74 203.454 2770.03 206.232 Q2772.33 208.986 2772.33 214.357 Z" fill="#000000" fill-rule="nonzero" fill-opacity="1" /><path clip-path="url(#clip970)" d="M2785.03 196.718 L2785.03 204.079 L2793.81 204.079 L2793.81 207.389 L2785.03 207.389 L2785.03 221.463 Q2785.03 224.634 2785.89 225.537 Q2786.77 226.44 2789.43 226.44 L2793.81 226.44 L2793.81 230.005 L2789.43 230.005 Q2784.5 230.005 2782.63 228.176 Q2780.75 226.324 2780.75 221.463 L2780.75 207.389 L2777.63 207.389 L2777.63 204.079 L2780.75 204.079 L2780.75 196.718 L2785.03 196.718 Z" fill="#000000" fill-rule="nonzero" fill-opacity="1" /><path clip-path="url(#clip970)" d="M2798.97 219.773 L2798.97 204.079 L2803.23 204.079 L2803.23 219.611 Q2803.23 223.292 2804.66 225.144 Q2806.1 226.972 2808.97 226.972 Q2812.42 226.972 2814.41 224.773 Q2816.42 222.574 2816.42 218.778 L2816.42 204.079 L2820.68 204.079 L2820.68 230.005 L2816.42 230.005 L2816.42 226.023 Q2814.87 228.384 2812.81 229.542 Q2810.77 230.676 2808.07 230.676 Q2803.6 230.676 2801.28 227.898 Q2798.97 225.12 2798.97 219.773 M2809.69 203.454 L2809.69 203.454 Z" fill="#000000" fill-rule="nonzero" fill-opacity="1" /><path clip-path="url(#clip970)" d="M2849.64 209.056 Q2851.24 206.185 2853.46 204.82 Q2855.68 203.454 2858.69 203.454 Q2862.74 203.454 2864.94 206.301 Q2867.14 209.125 2867.14 214.357 L2867.14 230.005 L2862.86 230.005 L2862.86 214.495 Q2862.86 210.769 2861.54 208.963 Q2860.22 207.158 2857.51 207.158 Q2854.2 207.158 2852.28 209.357 Q2850.36 211.556 2850.36 215.352 L2850.36 230.005 L2846.07 230.005 L2846.07 214.495 Q2846.07 210.745 2844.76 208.963 Q2843.44 207.158 2840.68 207.158 Q2837.42 207.158 2835.5 209.38 Q2833.57 211.579 2833.57 215.352 L2833.57 230.005 L2829.29 230.005 L2829.29 204.079 L2833.57 204.079 L2833.57 208.107 Q2835.03 205.722 2837.07 204.588 Q2839.11 203.454 2841.91 203.454 Q2844.73 203.454 2846.7 204.889 Q2848.69 206.324 2849.64 209.056 Z" fill="#000000" fill-rule="nonzero" fill-opacity="1" /><polyline clip-path="url(#clip970)" style="stroke:#3da44d; stroke-linecap:round; stroke-linejoin:round; stroke-width:4; stroke-opacity:1; fill:none" points="2369.1,264.565 2571.91,264.565 "/>
<path clip-path="url(#clip970)" d="M2622.09 265.641 Q2623.6 266.15 2625.01 267.817 Q2626.45 269.484 2627.88 272.4 L2632.63 281.845 L2627.6 281.845 L2623.18 272.979 Q2621.47 269.507 2619.85 268.372 Q2618.25 267.238 2615.47 267.238 L2610.38 267.238 L2610.38 281.845 L2605.71 281.845 L2605.71 247.285 L2616.26 247.285 Q2622.19 247.285 2625.1 249.761 Q2628.02 252.238 2628.02 257.238 Q2628.02 260.502 2626.49 262.655 Q2624.99 264.808 2622.09 265.641 M2610.38 251.127 L2610.38 263.396 L2616.26 263.396 Q2619.64 263.396 2621.35 261.845 Q2623.09 260.271 2623.09 257.238 Q2623.09 254.206 2621.35 252.678 Q2619.64 251.127 2616.26 251.127 L2610.38 251.127 Z" fill="#000000" fill-rule="nonzero" fill-opacity="1" /><path clip-path="url(#clip970)" d="M2638.65 247.285 L2645.61 247.285 L2654.43 270.803 L2663.3 247.285 L2670.27 247.285 L2670.27 281.845 L2665.71 281.845 L2665.71 251.498 L2656.79 275.201 L2652.09 275.201 L2643.18 251.498 L2643.18 281.845 L2638.65 281.845 L2638.65 247.285 Z" fill="#000000" fill-rule="nonzero" fill-opacity="1" /><path clip-path="url(#clip970)" d="M2700.27 248.419 L2700.27 252.979 Q2697.6 251.706 2695.24 251.081 Q2692.88 250.456 2690.68 250.456 Q2686.86 250.456 2684.78 251.937 Q2682.72 253.419 2682.72 256.15 Q2682.72 258.442 2684.08 259.623 Q2685.47 260.78 2689.32 261.498 L2692.14 262.076 Q2697.37 263.072 2699.85 265.595 Q2702.35 268.095 2702.35 272.308 Q2702.35 277.331 2698.97 279.923 Q2695.61 282.516 2689.11 282.516 Q2686.65 282.516 2683.88 281.96 Q2681.12 281.405 2678.16 280.317 L2678.16 275.502 Q2681.01 277.099 2683.74 277.909 Q2686.47 278.72 2689.11 278.72 Q2693.11 278.72 2695.29 277.146 Q2697.46 275.572 2697.46 272.655 Q2697.46 270.109 2695.89 268.673 Q2694.34 267.238 2690.77 266.521 L2687.93 265.965 Q2682.7 264.923 2680.36 262.701 Q2678.02 260.479 2678.02 256.521 Q2678.02 251.937 2681.24 249.298 Q2684.48 246.66 2690.15 246.66 Q2692.58 246.66 2695.1 247.099 Q2697.63 247.539 2700.27 248.419 Z" fill="#000000" fill-rule="nonzero" fill-opacity="1" /><path clip-path="url(#clip970)" d="M2713.58 277.956 L2713.58 291.706 L2709.29 291.706 L2709.29 255.919 L2713.58 255.919 L2713.58 259.854 Q2714.92 257.539 2716.95 256.428 Q2719.02 255.294 2721.86 255.294 Q2726.58 255.294 2729.52 259.044 Q2732.49 262.794 2732.49 268.905 Q2732.49 275.016 2729.52 278.766 Q2726.58 282.516 2721.86 282.516 Q2719.02 282.516 2716.95 281.405 Q2714.92 280.271 2713.58 277.956 M2728.07 268.905 Q2728.07 264.206 2726.12 261.544 Q2724.2 258.859 2720.82 258.859 Q2717.44 258.859 2715.5 261.544 Q2713.58 264.206 2713.58 268.905 Q2713.58 273.604 2715.5 276.289 Q2717.44 278.951 2720.82 278.951 Q2724.2 278.951 2726.12 276.289 Q2728.07 273.604 2728.07 268.905 Z" fill="#000000" fill-rule="nonzero" fill-opacity="1" /><path clip-path="url(#clip970)" d="M2754.57 259.9 Q2753.85 259.484 2753 259.298 Q2752.16 259.09 2751.14 259.09 Q2747.53 259.09 2745.59 261.451 Q2743.67 263.789 2743.67 268.187 L2743.67 281.845 L2739.39 281.845 L2739.39 255.919 L2743.67 255.919 L2743.67 259.947 Q2745.01 257.585 2747.16 256.451 Q2749.32 255.294 2752.39 255.294 Q2752.83 255.294 2753.37 255.363 Q2753.9 255.41 2754.55 255.525 L2754.57 259.9 Z" fill="#000000" fill-rule="nonzero" fill-opacity="1" /><path clip-path="url(#clip970)" d="M2768.04 258.905 Q2764.62 258.905 2762.63 261.59 Q2760.64 264.252 2760.64 268.905 Q2760.64 273.558 2762.6 276.243 Q2764.59 278.905 2768.04 278.905 Q2771.45 278.905 2773.44 276.22 Q2775.43 273.534 2775.43 268.905 Q2775.43 264.298 2773.44 261.613 Q2771.45 258.905 2768.04 258.905 M2768.04 255.294 Q2773.6 255.294 2776.77 258.905 Q2779.94 262.516 2779.94 268.905 Q2779.94 275.271 2776.77 278.905 Q2773.6 282.516 2768.04 282.516 Q2762.46 282.516 2759.29 278.905 Q2756.14 275.271 2756.14 268.905 Q2756.14 262.516 2759.29 258.905 Q2762.46 255.294 2768.04 255.294 Z" fill="#000000" fill-rule="nonzero" fill-opacity="1" /><path clip-path="url(#clip970)" d="M2791.12 277.956 L2791.12 291.706 L2786.84 291.706 L2786.84 255.919 L2791.12 255.919 L2791.12 259.854 Q2792.46 257.539 2794.5 256.428 Q2796.56 255.294 2799.41 255.294 Q2804.13 255.294 2807.07 259.044 Q2810.03 262.794 2810.03 268.905 Q2810.03 275.016 2807.07 278.766 Q2804.13 282.516 2799.41 282.516 Q2796.56 282.516 2794.5 281.405 Q2792.46 280.271 2791.12 277.956 M2805.61 268.905 Q2805.61 264.206 2803.67 261.544 Q2801.75 258.859 2798.37 258.859 Q2794.99 258.859 2793.04 261.544 Q2791.12 264.206 2791.12 268.905 Q2791.12 273.604 2793.04 276.289 Q2794.99 278.951 2798.37 278.951 Q2801.75 278.951 2803.67 276.289 Q2805.61 273.604 2805.61 268.905 Z" fill="#000000" fill-rule="nonzero" fill-opacity="1" /><polyline clip-path="url(#clip970)" style="stroke:#c271d2; stroke-linecap:round; stroke-linejoin:round; stroke-width:4; stroke-opacity:1; fill:none" points="2369.1,316.405 2571.91,316.405 "/>
<path clip-path="url(#clip970)" d="M2621.54 303.731 L2615.2 320.93 L2627.9 320.93 L2621.54 303.731 M2618.9 299.125 L2624.2 299.125 L2637.37 333.685 L2632.51 333.685 L2629.36 324.819 L2613.78 324.819 L2610.64 333.685 L2605.71 333.685 L2618.9 299.125 Z" fill="#000000" fill-rule="nonzero" fill-opacity="1" /><path clip-path="url(#clip970)" d="M2647.09 302.967 L2647.09 329.842 L2652.74 329.842 Q2659.9 329.842 2663.21 326.601 Q2666.54 323.361 2666.54 316.37 Q2666.54 309.425 2663.21 306.208 Q2659.9 302.967 2652.74 302.967 L2647.09 302.967 M2642.42 299.125 L2652.02 299.125 Q2662.07 299.125 2666.77 303.314 Q2671.47 307.481 2671.47 316.37 Q2671.47 325.305 2666.75 329.495 Q2662.02 333.685 2652.02 333.685 L2642.42 333.685 L2642.42 299.125 Z" fill="#000000" fill-rule="nonzero" fill-opacity="1" /><path clip-path="url(#clip970)" d="M2689.64 303.731 L2683.3 320.93 L2696.01 320.93 L2689.64 303.731 M2687 299.125 L2692.3 299.125 L2705.47 333.685 L2700.61 333.685 L2697.46 324.819 L2681.89 324.819 L2678.74 333.685 L2673.81 333.685 L2687 299.125 Z" fill="#000000" fill-rule="nonzero" fill-opacity="1" /><path clip-path="url(#clip970)" d="M2710.52 299.125 L2717.49 299.125 L2726.31 322.643 L2735.17 299.125 L2742.14 299.125 L2742.14 333.685 L2737.58 333.685 L2737.58 303.338 L2728.67 327.041 L2723.97 327.041 L2715.06 303.338 L2715.06 333.685 L2710.52 333.685 L2710.52 299.125 Z" fill="#000000" fill-rule="nonzero" fill-opacity="1" /></svg>
