<?xml version="1.0" encoding="utf-8"?>
<svg xmlns="http://www.w3.org/2000/svg" xmlns:xlink="http://www.w3.org/1999/xlink" width="800" height="500" viewBox="0 0 3200 2000">
<defs>
  <clipPath id="clip920">
    <rect x="0" y="0" width="3200" height="2000"/>
  </clipPath>
</defs>
<path clip-path="url(#clip920)" d="M0 2000 L3200 2000 L3200 0 L0 0  Z" fill="#ffffff" fill-rule="evenodd" fill-opacity="1"/>
<defs>
  <clipPath id="clip921">
    <rect x="640" y="0" width="2241" height="2000"/>
  </clipPath>
</defs>
<path clip-path="url(#clip920)" d="M110.74 1901.26 L3152.76 1901.26 L3152.76 47.2441 L110.74 47.2441  Z" fill="#ffffff" fill-rule="evenodd" fill-opacity="1"/>
<defs>
  <clipPath id="clip922">
    <rect x="110" y="47" width="3043" height="1855"/>
  </clipPath>
</defs>
<polyline clip-path="url(#clip922)" style="stroke:#000000; stroke-linecap:round; stroke-linejoin:round; stroke-width:2; stroke-opacity:0.1; fill:none" points="196.835,1901.26 196.835,47.2441 "/>
<polyline clip-path="url(#clip922)" style="stroke:#000000; stroke-linecap:round; stroke-linejoin:round; stroke-width:2; stroke-opacity:0.1; fill:none" points="914.291,1901.26 914.291,47.2441 "/>
<polyline clip-path="url(#clip922)" style="stroke:#000000; stroke-linecap:round; stroke-linejoin:round; stroke-width:2; stroke-opacity:0.1; fill:none" points="1631.75,1901.26 1631.75,47.2441 "/>
<polyline clip-path="url(#clip922)" style="stroke:#000000; stroke-linecap:round; stroke-linejoin:round; stroke-width:2; stroke-opacity:0.1; fill:none" points="2349.2,1901.26 2349.2,47.2441 "/>
<polyline clip-path="url(#clip922)" style="stroke:#000000; stroke-linecap:round; stroke-linejoin:round; stroke-width:2; stroke-opacity:0.1; fill:none" points="3066.66,1901.26 3066.66,47.2441 "/>
<polyline clip-path="url(#clip920)" style="stroke:#000000; stroke-linecap:round; stroke-linejoin:round; stroke-width:4; stroke-opacity:1; fill:none" points="110.74,1901.26 3152.76,1901.26 "/>
<polyline clip-path="url(#clip920)" style="stroke:#000000; stroke-linecap:round; stroke-linejoin:round; stroke-width:4; stroke-opacity:1; fill:none" points="196.835,1901.26 196.835,1882.36 "/>
<polyline clip-path="url(#clip920)" style="stroke:#000000; stroke-linecap:round; stroke-linejoin:round; stroke-width:4; stroke-opacity:1; fill:none" points="914.291,1901.26 914.291,1882.36 "/>
<polyline clip-path="url(#clip920)" style="stroke:#000000; stroke-linecap:round; stroke-linejoin:round; stroke-width:4; stroke-opacity:1; fill:none" points="1631.75,1901.26 1631.75,1882.36 "/>
<polyline clip-path="url(#clip920)" style="stroke:#000000; stroke-linecap:round; stroke-linejoin:round; stroke-width:4; stroke-opacity:1; fill:none" points="2349.2,1901.26 2349.2,1882.36 "/>
<polyline clip-path="url(#clip920)" style="stroke:#000000; stroke-linecap:round; stroke-linejoin:round; stroke-width:4; stroke-opacity:1; fill:none" points="3066.66,1901.26 3066.66,1882.36 "/>
<path clip-path="url(#clip920)" d="M159.138 1938.58 Q155.527 1938.58 153.699 1942.14 Q151.893 1945.68 151.893 1952.81 Q151.893 1959.92 153.699 1963.49 Q155.527 1967.03 159.138 1967.03 Q162.773 1967.03 164.578 1963.49 Q166.407 1959.92 166.407 1952.81 Q166.407 1945.68 164.578 1942.14 Q162.773 1938.58 159.138 1938.58 M159.138 1934.87 Q164.949 1934.87 168.004 1939.48 Q171.083 1944.06 171.083 1952.81 Q171.083 1961.54 168.004 1966.15 Q164.949 1970.73 159.138 1970.73 Q153.328 1970.73 150.25 1966.15 Q147.194 1961.54 147.194 1952.81 Q147.194 1944.06 150.25 1939.48 Q153.328 1934.87 159.138 1934.87 Z" fill="#000000" fill-rule="nonzero" fill-opacity="1" /><path clip-path="url(#clip920)" d="M179.3 1964.18 L184.185 1964.18 L184.185 1970.06 L179.3 1970.06 L179.3 1964.18 Z" fill="#000000" fill-rule="nonzero" fill-opacity="1" /><path clip-path="url(#clip920)" d="M204.37 1938.58 Q200.759 1938.58 198.93 1942.14 Q197.124 1945.68 197.124 1952.81 Q197.124 1959.92 198.93 1963.49 Q200.759 1967.03 204.37 1967.03 Q208.004 1967.03 209.809 1963.49 Q211.638 1959.92 211.638 1952.81 Q211.638 1945.68 209.809 1942.14 Q208.004 1938.58 204.37 1938.58 M204.37 1934.87 Q210.18 1934.87 213.235 1939.48 Q216.314 1944.06 216.314 1952.81 Q216.314 1961.54 213.235 1966.15 Q210.18 1970.73 204.37 1970.73 Q198.559 1970.73 195.481 1966.15 Q192.425 1961.54 192.425 1952.81 Q192.425 1944.06 195.481 1939.48 Q198.559 1934.87 204.37 1934.87 Z" fill="#000000" fill-rule="nonzero" fill-opacity="1" /><path clip-path="url(#clip920)" d="M234.532 1938.58 Q230.92 1938.58 229.092 1942.14 Q227.286 1945.68 227.286 1952.81 Q227.286 1959.92 229.092 1963.49 Q230.92 1967.03 234.532 1967.03 Q238.166 1967.03 239.971 1963.49 Q241.8 1959.92 241.8 1952.81 Q241.8 1945.68 239.971 1942.14 Q238.166 1938.58 234.532 1938.58 M234.532 1934.87 Q240.342 1934.87 243.397 1939.48 Q246.476 1944.06 246.476 1952.81 Q246.476 1961.54 243.397 1966.15 Q240.342 1970.73 234.532 1970.73 Q228.721 1970.73 225.643 1966.15 Q222.587 1961.54 222.587 1952.81 Q222.587 1944.06 225.643 1939.48 Q228.721 1934.87 234.532 1934.87 Z" fill="#000000" fill-rule="nonzero" fill-opacity="1" /><path clip-path="url(#clip920)" d="M877.093 1938.58 Q873.482 1938.58 871.653 1942.14 Q869.847 1945.68 869.847 1952.81 Q869.847 1959.92 871.653 1963.49 Q873.482 1967.03 877.093 1967.03 Q880.727 1967.03 882.532 1963.49 Q884.361 1959.92 884.361 1952.81 Q884.361 1945.68 882.532 1942.14 Q880.727 1938.58 877.093 1938.58 M877.093 1934.87 Q882.903 1934.87 885.958 1939.48 Q889.037 1944.06 889.037 1952.81 Q889.037 1961.54 885.958 1966.15 Q882.903 1970.73 877.093 1970.73 Q871.282 1970.73 868.204 1966.15 Q865.148 1961.54 865.148 1952.81 Q865.148 1944.06 868.204 1939.48 Q871.282 1934.87 877.093 1934.87 Z" fill="#000000" fill-rule="nonzero" fill-opacity="1" /><path clip-path="url(#clip920)" d="M897.255 1964.18 L902.139 1964.18 L902.139 1970.06 L897.255 1970.06 L897.255 1964.18 Z" fill="#000000" fill-rule="nonzero" fill-opacity="1" /><path clip-path="url(#clip920)" d="M916.352 1966.12 L932.671 1966.12 L932.671 1970.06 L910.727 1970.06 L910.727 1966.12 Q913.389 1963.37 917.972 1958.74 Q922.578 1954.09 923.759 1952.75 Q926.004 1950.22 926.884 1948.49 Q927.787 1946.73 927.787 1945.04 Q927.787 1942.28 925.842 1940.55 Q923.921 1938.81 920.819 1938.81 Q918.62 1938.81 916.166 1939.57 Q913.736 1940.34 910.958 1941.89 L910.958 1937.17 Q913.782 1936.03 916.236 1935.45 Q918.69 1934.87 920.727 1934.87 Q926.097 1934.87 929.291 1937.56 Q932.486 1940.25 932.486 1944.74 Q932.486 1946.87 931.676 1948.79 Q930.889 1950.68 928.782 1953.28 Q928.203 1953.95 925.102 1957.17 Q922 1960.36 916.352 1966.12 Z" fill="#000000" fill-rule="nonzero" fill-opacity="1" /><path clip-path="url(#clip920)" d="M942.532 1935.5 L960.888 1935.5 L960.888 1939.44 L946.814 1939.44 L946.814 1947.91 Q947.833 1947.56 948.851 1947.4 Q949.87 1947.21 950.889 1947.21 Q956.676 1947.21 960.055 1950.38 Q963.435 1953.56 963.435 1958.97 Q963.435 1964.55 959.963 1967.65 Q956.49 1970.73 950.171 1970.73 Q947.995 1970.73 945.727 1970.36 Q943.481 1969.99 941.074 1969.25 L941.074 1964.55 Q943.157 1965.68 945.379 1966.24 Q947.601 1966.8 950.078 1966.8 Q954.083 1966.8 956.421 1964.69 Q958.759 1962.58 958.759 1958.97 Q958.759 1955.36 956.421 1953.25 Q954.083 1951.15 950.078 1951.15 Q948.203 1951.15 946.328 1951.56 Q944.477 1951.98 942.532 1952.86 L942.532 1935.5 Z" fill="#000000" fill-rule="nonzero" fill-opacity="1" /><path clip-path="url(#clip920)" d="M1594.05 1938.58 Q1590.44 1938.58 1588.61 1942.14 Q1586.81 1945.68 1586.81 1952.81 Q1586.81 1959.92 1588.61 1963.49 Q1590.44 1967.03 1594.05 1967.03 Q1597.69 1967.03 1599.49 1963.49 Q1601.32 1959.92 1601.32 1952.81 Q1601.32 1945.68 1599.49 1942.14 Q1597.69 1938.58 1594.05 1938.58 M1594.05 1934.87 Q1599.86 1934.87 1602.92 1939.48 Q1606 1944.06 1606 1952.81 Q1606 1961.54 1602.92 1966.15 Q1599.86 1970.73 1594.05 1970.73 Q1588.24 1970.73 1585.16 1966.15 Q1582.11 1961.54 1582.11 1952.81 Q1582.11 1944.06 1585.16 1939.48 Q1588.24 1934.87 1594.05 1934.87 Z" fill="#000000" fill-rule="nonzero" fill-opacity="1" /><path clip-path="url(#clip920)" d="M1614.21 1964.18 L1619.1 1964.18 L1619.1 1970.06 L1614.21 1970.06 L1614.21 1964.18 Z" fill="#000000" fill-rule="nonzero" fill-opacity="1" /><path clip-path="url(#clip920)" d="M1629.33 1935.5 L1647.69 1935.5 L1647.69 1939.44 L1633.61 1939.44 L1633.61 1947.91 Q1634.63 1947.56 1635.65 1947.4 Q1636.67 1947.21 1637.69 1947.21 Q1643.47 1947.21 1646.85 1950.38 Q1650.23 1953.56 1650.23 1958.97 Q1650.23 1964.55 1646.76 1967.65 Q1643.29 1970.73 1636.97 1970.73 Q1634.79 1970.73 1632.52 1970.36 Q1630.28 1969.99 1627.87 1969.25 L1627.87 1964.55 Q1629.95 1965.68 1632.18 1966.24 Q1634.4 1966.8 1636.88 1966.8 Q1640.88 1966.8 1643.22 1964.69 Q1645.56 1962.58 1645.56 1958.97 Q1645.56 1955.36 1643.22 1953.25 Q1640.88 1951.15 1636.88 1951.15 Q1635 1951.15 1633.13 1951.56 Q1631.27 1951.98 1629.33 1952.86 L1629.33 1935.5 Z" fill="#000000" fill-rule="nonzero" fill-opacity="1" /><path clip-path="url(#clip920)" d="M1669.44 1938.58 Q1665.83 1938.58 1664 1942.14 Q1662.2 1945.68 1662.2 1952.81 Q1662.2 1959.92 1664 1963.49 Q1665.83 1967.03 1669.44 1967.03 Q1673.08 1967.03 1674.88 1963.49 Q1676.71 1959.92 1676.71 1952.81 Q1676.71 1945.68 1674.88 1942.14 Q1673.08 1938.58 1669.44 1938.58 M1669.44 1934.87 Q1675.25 1934.87 1678.31 1939.48 Q1681.39 1944.06 1681.39 1952.81 Q1681.39 1961.54 1678.31 1966.15 Q1675.25 1970.73 1669.44 1970.73 Q1663.63 1970.73 1660.56 1966.15 Q1657.5 1961.54 1657.5 1952.81 Q1657.5 1944.06 1660.56 1939.48 Q1663.63 1934.87 1669.44 1934.87 Z" fill="#000000" fill-rule="nonzero" fill-opacity="1" /><path clip-path="url(#clip920)" d="M2312.01 1938.58 Q2308.39 1938.58 2306.57 1942.14 Q2304.76 1945.68 2304.76 1952.81 Q2304.76 1959.92 2306.57 1963.49 Q2308.39 1967.03 2312.01 1967.03 Q2315.64 1967.03 2317.45 1963.49 Q2319.27 1959.92 2319.27 1952.81 Q2319.27 1945.68 2317.45 1942.14 Q2315.64 1938.58 2312.01 1938.58 M2312.01 1934.87 Q2317.82 1934.87 2320.87 1939.48 Q2323.95 1944.06 2323.95 1952.81 Q2323.95 1961.54 2320.87 1966.15 Q2317.82 1970.73 2312.01 1970.73 Q2306.2 1970.73 2303.12 1966.15 Q2300.06 1961.54 2300.06 1952.81 Q2300.06 1944.06 2303.12 1939.48 Q2306.2 1934.87 2312.01 1934.87 Z" fill="#000000" fill-rule="nonzero" fill-opacity="1" /><path clip-path="url(#clip920)" d="M2332.17 1964.18 L2337.05 1964.18 L2337.05 1970.06 L2332.17 1970.06 L2332.17 1964.18 Z" fill="#000000" fill-rule="nonzero" fill-opacity="1" /><path clip-path="url(#clip920)" d="M2346.06 1935.5 L2368.28 1935.5 L2368.28 1937.49 L2355.73 1970.06 L2350.85 1970.06 L2362.65 1939.44 L2346.06 1939.44 L2346.06 1935.5 Z" fill="#000000" fill-rule="nonzero" fill-opacity="1" /><path clip-path="url(#clip920)" d="M2377.45 1935.5 L2395.8 1935.5 L2395.8 1939.44 L2381.73 1939.44 L2381.73 1947.91 Q2382.75 1947.56 2383.76 1947.4 Q2384.78 1947.21 2385.8 1947.21 Q2391.59 1947.21 2394.97 1950.38 Q2398.35 1953.56 2398.35 1958.97 Q2398.35 1964.55 2394.88 1967.65 Q2391.4 1970.73 2385.08 1970.73 Q2382.91 1970.73 2380.64 1970.36 Q2378.39 1969.99 2375.99 1969.25 L2375.99 1964.55 Q2378.07 1965.68 2380.29 1966.24 Q2382.51 1966.8 2384.99 1966.8 Q2389 1966.8 2391.33 1964.69 Q2393.67 1962.58 2393.67 1958.97 Q2393.67 1955.36 2391.33 1953.25 Q2389 1951.15 2384.99 1951.15 Q2383.12 1951.15 2381.24 1951.56 Q2379.39 1951.98 2377.45 1952.86 L2377.45 1935.5 Z" fill="#000000" fill-rule="nonzero" fill-opacity="1" /><path clip-path="url(#clip920)" d="M3018.73 1966.12 L3026.37 1966.12 L3026.37 1939.76 L3018.06 1941.43 L3018.06 1937.17 L3026.33 1935.5 L3031 1935.5 L3031 1966.12 L3038.64 1966.12 L3038.64 1970.06 L3018.73 1970.06 L3018.73 1966.12 Z" fill="#000000" fill-rule="nonzero" fill-opacity="1" /><path clip-path="url(#clip920)" d="M3048.08 1964.18 L3052.97 1964.18 L3052.97 1970.06 L3048.08 1970.06 L3048.08 1964.18 Z" fill="#000000" fill-rule="nonzero" fill-opacity="1" /><path clip-path="url(#clip920)" d="M3073.15 1938.58 Q3069.54 1938.58 3067.71 1942.14 Q3065.91 1945.68 3065.91 1952.81 Q3065.91 1959.92 3067.71 1963.49 Q3069.54 1967.03 3073.15 1967.03 Q3076.79 1967.03 3078.59 1963.49 Q3080.42 1959.92 3080.42 1952.81 Q3080.42 1945.68 3078.59 1942.14 Q3076.79 1938.58 3073.15 1938.58 M3073.15 1934.87 Q3078.96 1934.87 3082.02 1939.48 Q3085.1 1944.06 3085.1 1952.81 Q3085.1 1961.54 3082.02 1966.15 Q3078.96 1970.73 3073.15 1970.73 Q3067.34 1970.73 3064.27 1966.15 Q3061.21 1961.54 3061.21 1952.81 Q3061.21 1944.06 3064.27 1939.48 Q3067.34 1934.87 3073.15 1934.87 Z" fill="#000000" fill-rule="nonzero" fill-opacity="1" /><path clip-path="url(#clip920)" d="M3103.32 1938.58 Q3099.7 1938.58 3097.88 1942.14 Q3096.07 1945.68 3096.07 1952.81 Q3096.07 1959.92 3097.88 1963.49 Q3099.7 1967.03 3103.32 1967.03 Q3106.95 1967.03 3108.76 1963.49 Q3110.58 1959.92 3110.58 1952.81 Q3110.58 1945.68 3108.76 1942.14 Q3106.95 1938.58 3103.32 1938.58 M3103.32 1934.87 Q3109.13 1934.87 3112.18 1939.48 Q3115.26 1944.06 3115.26 1952.81 Q3115.26 1961.54 3112.18 1966.15 Q3109.13 1970.73 3103.32 1970.73 Q3097.51 1970.73 3094.43 1966.15 Q3091.37 1961.54 3091.37 1952.81 Q3091.37 1944.06 3094.43 1939.48 Q3097.51 1934.87 3103.32 1934.87 Z" fill="#000000" fill-rule="nonzero" fill-opacity="1" /><path clip-path="url(#clip920)" d="M1537.92 2010.6 L1567.96 2010.6 L1567.96 2016.01 L1544.35 2016.01 L1544.35 2030.08 L1566.98 2030.08 L1566.98 2035.49 L1544.35 2035.49 L1544.35 2052.71 L1568.54 2052.71 L1568.54 2058.12 L1537.92 2058.12 L1537.92 2010.6 Z" fill="#000000" fill-rule="nonzero" fill-opacity="1" /><path clip-path="url(#clip920)" d="M1584.51 2052.78 L1584.51 2071.68 L1578.63 2071.68 L1578.63 2022.48 L1584.51 2022.48 L1584.51 2027.89 Q1586.36 2024.7 1589.16 2023.18 Q1591.99 2021.62 1595.91 2021.62 Q1602.4 2021.62 1606.44 2026.77 Q1610.52 2031.93 1610.52 2040.33 Q1610.52 2048.73 1606.44 2053.89 Q1602.4 2059.05 1595.91 2059.05 Q1591.99 2059.05 1589.16 2057.52 Q1586.36 2055.96 1584.51 2052.78 M1604.44 2040.33 Q1604.44 2033.87 1601.77 2030.21 Q1599.12 2026.52 1594.48 2026.52 Q1589.83 2026.52 1587.16 2030.21 Q1584.51 2033.87 1584.51 2040.33 Q1584.51 2046.79 1587.16 2050.48 Q1589.83 2054.15 1594.48 2054.15 Q1599.12 2054.15 1601.77 2050.48 Q1604.44 2046.79 1604.44 2040.33 Z" fill="#000000" fill-rule="nonzero" fill-opacity="1" /><path clip-path="url(#clip920)" d="M1634.04 2026.58 Q1629.33 2026.58 1626.59 2030.27 Q1623.85 2033.93 1623.85 2040.33 Q1623.85 2046.73 1626.56 2050.42 Q1629.3 2054.08 1634.04 2054.08 Q1638.72 2054.08 1641.46 2050.39 Q1644.19 2046.7 1644.19 2040.33 Q1644.19 2034 1641.46 2030.31 Q1638.72 2026.58 1634.04 2026.58 M1634.04 2021.62 Q1641.68 2021.62 1646.04 2026.58 Q1650.4 2031.55 1650.4 2040.33 Q1650.4 2049.08 1646.04 2054.08 Q1641.68 2059.05 1634.04 2059.05 Q1626.37 2059.05 1622.01 2054.08 Q1617.68 2049.08 1617.68 2040.33 Q1617.68 2031.55 1622.01 2026.58 Q1626.37 2021.62 1634.04 2021.62 Z" fill="#000000" fill-rule="nonzero" fill-opacity="1" /><path clip-path="url(#clip920)" d="M1685.76 2023.84 L1685.76 2029.32 Q1683.28 2027.95 1680.76 2027.28 Q1678.28 2026.58 1675.74 2026.58 Q1670.04 2026.58 1666.89 2030.21 Q1663.74 2033.81 1663.74 2040.33 Q1663.74 2046.86 1666.89 2050.48 Q1670.04 2054.08 1675.74 2054.08 Q1678.28 2054.08 1680.76 2053.41 Q1683.28 2052.71 1685.76 2051.34 L1685.76 2056.76 Q1683.31 2057.9 1680.67 2058.47 Q1678.06 2059.05 1675.1 2059.05 Q1667.05 2059.05 1662.3 2053.99 Q1657.56 2048.93 1657.56 2040.33 Q1657.56 2031.61 1662.34 2026.61 Q1667.14 2021.62 1675.48 2021.62 Q1678.19 2021.62 1680.76 2022.19 Q1683.34 2022.73 1685.76 2023.84 Z" fill="#000000" fill-rule="nonzero" fill-opacity="1" /><path clip-path="url(#clip920)" d="M1725.58 2036.61 L1725.58 2058.12 L1719.72 2058.12 L1719.72 2036.8 Q1719.72 2031.74 1717.75 2029.22 Q1715.78 2026.71 1711.83 2026.71 Q1707.09 2026.71 1704.35 2029.73 Q1701.61 2032.76 1701.61 2037.98 L1701.61 2058.12 L1695.72 2058.12 L1695.72 2008.6 L1701.61 2008.6 L1701.61 2028.01 Q1703.71 2024.8 1706.55 2023.21 Q1709.41 2021.62 1713.13 2021.62 Q1719.28 2021.62 1722.43 2025.44 Q1725.58 2029.22 1725.58 2036.61 Z" fill="#000000" fill-rule="nonzero" fill-opacity="1" /><polyline clip-path="url(#clip922)" style="stroke:#000000; stroke-linecap:round; stroke-linejoin:round; stroke-width:2; stroke-opacity:0.1; fill:none" points="110.74,1848.79 3152.76,1848.79 "/>
<polyline clip-path="url(#clip922)" style="stroke:#000000; stroke-linecap:round; stroke-linejoin:round; stroke-width:2; stroke-opacity:0.1; fill:none" points="110.74,1411.52 3152.76,1411.52 "/>
<polyline clip-path="url(#clip922)" style="stroke:#000000; stroke-linecap:round; stroke-linejoin:round; stroke-width:2; stroke-opacity:0.1; fill:none" points="110.74,974.252 3152.76,974.252 "/>
<polyline clip-path="url(#clip922)" style="stroke:#000000; stroke-linecap:round; stroke-linejoin:round; stroke-width:2; stroke-opacity:0.1; fill:none" points="110.74,536.984 3152.76,536.984 "/>
<polyline clip-path="url(#clip922)" style="stroke:#000000; stroke-linecap:round; stroke-linejoin:round; stroke-width:2; stroke-opacity:0.1; fill:none" points="110.74,99.7162 3152.76,99.7162 "/>
<polyline clip-path="url(#clip920)" style="stroke:#000000; stroke-linecap:round; stroke-linejoin:round; stroke-width:4; stroke-opacity:1; fill:none" points="110.74,1901.26 110.74,47.2441 "/>
<polyline clip-path="url(#clip920)" style="stroke:#000000; stroke-linecap:round; stroke-linejoin:round; stroke-width:4; stroke-opacity:1; fill:none" points="110.74,1848.79 129.638,1848.79 "/>
<polyline clip-path="url(#clip920)" style="stroke:#000000; stroke-linecap:round; stroke-linejoin:round; stroke-width:4; stroke-opacity:1; fill:none" points="110.74,1411.52 129.638,1411.52 "/>
<polyline clip-path="url(#clip920)" style="stroke:#000000; stroke-linecap:round; stroke-linejoin:round; stroke-width:4; stroke-opacity:1; fill:none" points="110.74,974.252 129.638,974.252 "/>
<polyline clip-path="url(#clip920)" style="stroke:#000000; stroke-linecap:round; stroke-linejoin:round; stroke-width:4; stroke-opacity:1; fill:none" points="110.74,536.984 129.638,536.984 "/>
<polyline clip-path="url(#clip920)" style="stroke:#000000; stroke-linecap:round; stroke-linejoin:round; stroke-width:4; stroke-opacity:1; fill:none" points="110.74,99.7162 129.638,99.7162 "/>
<path clip-path="url(#clip920)" d="M-24.5973 1834.59 Q-28.2084 1834.59 -30.0371 1838.15 Q-31.8427 1841.69 -31.8427 1848.82 Q-31.8427 1855.93 -30.0371 1859.49 Q-28.2084 1863.04 -24.5973 1863.04 Q-20.9631 1863.04 -19.1576 1859.49 Q-17.3289 1855.93 -17.3289 1848.82 Q-17.3289 1841.69 -19.1576 1838.15 Q-20.9631 1834.59 -24.5973 1834.59 M-24.5973 1830.88 Q-18.7872 1830.88 -15.7316 1835.49 Q-12.653 1840.07 -12.653 1848.82 Q-12.653 1857.55 -15.7316 1862.16 Q-18.7872 1866.74 -24.5973 1866.74 Q-30.4075 1866.74 -33.4862 1862.16 Q-36.5417 1857.55 -36.5417 1848.82 Q-36.5417 1840.07 -33.4862 1835.49 Q-30.4075 1830.88 -24.5973 1830.88 Z" fill="#000000" fill-rule="nonzero" fill-opacity="1" /><path clip-path="url(#clip920)" d="M-4.43541 1860.19 L0.448825 1860.19 L0.448825 1866.07 L-4.43541 1866.07 L-4.43541 1860.19 Z" fill="#000000" fill-rule="nonzero" fill-opacity="1" /><path clip-path="url(#clip920)" d="M20.6339 1834.59 Q17.0228 1834.59 15.1941 1838.15 Q13.3886 1841.69 13.3886 1848.82 Q13.3886 1855.93 15.1941 1859.49 Q17.0228 1863.04 20.6339 1863.04 Q24.2681 1863.04 26.0737 1859.49 Q27.9024 1855.93 27.9024 1848.82 Q27.9024 1841.69 26.0737 1838.15 Q24.2681 1834.59 20.6339 1834.59 M20.6339 1830.88 Q26.4441 1830.88 29.4996 1835.49 Q32.5783 1840.07 32.5783 1848.82 Q32.5783 1857.55 29.4996 1862.16 Q26.4441 1866.74 20.6339 1866.74 Q14.8237 1866.74 11.7451 1862.16 Q8.68952 1857.55 8.68952 1848.82 Q8.68952 1840.07 11.7451 1835.49 Q14.8237 1830.88 20.6339 1830.88 Z" fill="#000000" fill-rule="nonzero" fill-opacity="1" /><path clip-path="url(#clip920)" d="M50.7958 1834.59 Q47.1847 1834.59 45.356 1838.15 Q43.5504 1841.69 43.5504 1848.82 Q43.5504 1855.93 45.356 1859.49 Q47.1847 1863.04 50.7958 1863.04 Q54.43 1863.04 56.2356 1859.49 Q58.0643 1855.93 58.0643 1848.82 Q58.0643 1841.69 56.2356 1838.15 Q54.43 1834.59 50.7958 1834.59 M50.7958 1830.88 Q56.6059 1830.88 59.6615 1835.49 Q62.7402 1840.07 62.7402 1848.82 Q62.7402 1857.55 59.6615 1862.16 Q56.6059 1866.74 50.7958 1866.74 Q44.9856 1866.74 41.9069 1862.16 Q38.8514 1857.55 38.8514 1848.82 Q38.8514 1840.07 41.9069 1835.49 Q44.9856 1830.88 50.7958 1830.88 Z" fill="#000000" fill-rule="nonzero" fill-opacity="1" /><path clip-path="url(#clip920)" d="M-23.602 1397.32 Q-27.2131 1397.32 -29.0418 1400.88 Q-30.8473 1404.42 -30.8473 1411.55 Q-30.8473 1418.66 -29.0418 1422.23 Q-27.2131 1425.77 -23.602 1425.77 Q-19.9677 1425.77 -18.1622 1422.23 Q-16.3335 1418.66 -16.3335 1411.55 Q-16.3335 1404.42 -18.1622 1400.88 Q-19.9677 1397.32 -23.602 1397.32 M-23.602 1393.61 Q-17.7918 1393.61 -14.7363 1398.22 Q-11.6576 1402.8 -11.6576 1411.55 Q-11.6576 1420.28 -14.7363 1424.89 Q-17.7918 1429.47 -23.602 1429.47 Q-29.4121 1429.47 -32.4908 1424.89 Q-35.5464 1420.28 -35.5464 1411.55 Q-35.5464 1402.8 -32.4908 1398.22 Q-29.4121 1393.61 -23.602 1393.61 Z" fill="#000000" fill-rule="nonzero" fill-opacity="1" /><path clip-path="url(#clip920)" d="M-3.44004 1422.92 L1.44419 1422.92 L1.44419 1428.8 L-3.44004 1428.8 L-3.44004 1422.92 Z" fill="#000000" fill-rule="nonzero" fill-opacity="1" /><path clip-path="url(#clip920)" d="M15.6571 1424.86 L31.9764 1424.86 L31.9764 1428.8 L10.0321 1428.8 L10.0321 1424.86 Q12.6941 1422.11 17.2774 1417.48 Q21.8839 1412.83 23.0644 1411.49 Q25.3098 1408.96 26.1894 1407.23 Q27.0922 1405.47 27.0922 1403.78 Q27.0922 1401.02 25.1478 1399.29 Q23.2265 1397.55 20.1246 1397.55 Q17.9256 1397.55 15.4719 1398.31 Q13.0413 1399.08 10.2636 1400.63 L10.2636 1395.91 Q13.0876 1394.77 15.5413 1394.19 Q17.995 1393.61 20.0321 1393.61 Q25.4024 1393.61 28.5968 1396.3 Q31.7912 1398.99 31.7912 1403.48 Q31.7912 1405.61 30.9811 1407.53 Q30.194 1409.42 28.0876 1412.02 Q27.5089 1412.69 24.407 1415.91 Q21.3052 1419.1 15.6571 1424.86 Z" fill="#000000" fill-rule="nonzero" fill-opacity="1" /><path clip-path="url(#clip920)" d="M41.8375 1394.24 L60.1939 1394.24 L60.1939 1398.17 L46.1199 1398.17 L46.1199 1406.65 Q47.1384 1406.3 48.1569 1406.14 Q49.1754 1405.95 50.1939 1405.95 Q55.9809 1405.95 59.3605 1409.12 Q62.7402 1412.3 62.7402 1417.71 Q62.7402 1423.29 59.268 1426.39 Q55.7958 1429.47 49.4763 1429.47 Q47.3004 1429.47 45.0319 1429.1 Q42.7866 1428.73 40.3792 1427.99 L40.3792 1423.29 Q42.4625 1424.42 44.6847 1424.98 Q46.9069 1425.54 49.3837 1425.54 Q53.3884 1425.54 55.7263 1423.43 Q58.0643 1421.32 58.0643 1417.71 Q58.0643 1414.1 55.7263 1411.99 Q53.3884 1409.89 49.3837 1409.89 Q47.5088 1409.89 45.6338 1410.3 Q43.7819 1410.72 41.8375 1411.6 L41.8375 1394.24 Z" fill="#000000" fill-rule="nonzero" fill-opacity="1" /><path clip-path="url(#clip920)" d="M-24.5973 960.051 Q-28.2084 960.051 -30.0371 963.615 Q-31.8427 967.157 -31.8427 974.287 Q-31.8427 981.393 -30.0371 984.958 Q-28.2084 988.5 -24.5973 988.5 Q-20.9631 988.5 -19.1576 984.958 Q-17.3289 981.393 -17.3289 974.287 Q-17.3289 967.157 -19.1576 963.615 Q-20.9631 960.051 -24.5973 960.051 M-24.5973 956.347 Q-18.7872 956.347 -15.7316 960.953 Q-12.653 965.537 -12.653 974.287 Q-12.653 983.013 -15.7316 987.62 Q-18.7872 992.203 -24.5973 992.203 Q-30.4075 992.203 -33.4862 987.62 Q-36.5417 983.013 -36.5417 974.287 Q-36.5417 965.537 -33.4862 960.953 Q-30.4075 956.347 -24.5973 956.347 Z" fill="#000000" fill-rule="nonzero" fill-opacity="1" /><path clip-path="url(#clip920)" d="M-4.43541 985.652 L0.448825 985.652 L0.448825 991.532 L-4.43541 991.532 L-4.43541 985.652 Z" fill="#000000" fill-rule="nonzero" fill-opacity="1" /><path clip-path="url(#clip920)" d="M10.6803 956.972 L29.0366 956.972 L29.0366 960.907 L14.9626 960.907 L14.9626 969.379 Q15.9811 969.032 16.9997 968.87 Q18.0182 968.685 19.0367 968.685 Q24.8237 968.685 28.2033 971.856 Q31.5829 975.027 31.5829 980.444 Q31.5829 986.023 28.1107 989.125 Q24.6385 992.203 18.3191 992.203 Q16.1432 992.203 13.8747 991.833 Q11.6293 991.463 9.22193 990.722 L9.22193 986.023 Q11.3052 987.157 13.5275 987.713 Q15.7497 988.268 18.2265 988.268 Q22.2311 988.268 24.5691 986.162 Q26.907 984.055 26.907 980.444 Q26.907 976.833 24.5691 974.727 Q22.2311 972.62 18.2265 972.62 Q16.3515 972.62 14.4765 973.037 Q12.6247 973.453 10.6803 974.333 L10.6803 956.972 Z" fill="#000000" fill-rule="nonzero" fill-opacity="1" /><path clip-path="url(#clip920)" d="M50.7958 960.051 Q47.1847 960.051 45.356 963.615 Q43.5504 967.157 43.5504 974.287 Q43.5504 981.393 45.356 984.958 Q47.1847 988.5 50.7958 988.5 Q54.43 988.5 56.2356 984.958 Q58.0643 981.393 58.0643 974.287 Q58.0643 967.157 56.2356 963.615 Q54.43 960.051 50.7958 960.051 M50.7958 956.347 Q56.6059 956.347 59.6615 960.953 Q62.7402 965.537 62.7402 974.287 Q62.7402 983.013 59.6615 987.62 Q56.6059 992.203 50.7958 992.203 Q44.9856 992.203 41.9069 987.62 Q38.8514 983.013 38.8514 974.287 Q38.8514 965.537 41.9069 960.953 Q44.9856 956.347 50.7958 956.347 Z" fill="#000000" fill-rule="nonzero" fill-opacity="1" /><path clip-path="url(#clip920)" d="M-23.602 522.783 Q-27.2131 522.783 -29.0418 526.348 Q-30.8473 529.889 -30.8473 537.019 Q-30.8473 544.125 -29.0418 547.69 Q-27.2131 551.232 -23.602 551.232 Q-19.9677 551.232 -18.1622 547.69 Q-16.3335 544.125 -16.3335 537.019 Q-16.3335 529.889 -18.1622 526.348 Q-19.9677 522.783 -23.602 522.783 M-23.602 519.079 Q-17.7918 519.079 -14.7363 523.686 Q-11.6576 528.269 -11.6576 537.019 Q-11.6576 545.746 -14.7363 550.352 Q-17.7918 554.935 -23.602 554.935 Q-29.4121 554.935 -32.4908 550.352 Q-35.5464 545.746 -35.5464 537.019 Q-35.5464 528.269 -32.4908 523.686 Q-29.4121 519.079 -23.602 519.079 Z" fill="#000000" fill-rule="nonzero" fill-opacity="1" /><path clip-path="url(#clip920)" d="M-3.44004 548.385 L1.44419 548.385 L1.44419 554.264 L-3.44004 554.264 L-3.44004 548.385 Z" fill="#000000" fill-rule="nonzero" fill-opacity="1" /><path clip-path="url(#clip920)" d="M10.4488 519.704 L32.6709 519.704 L32.6709 521.695 L20.1246 554.264 L15.2404 554.264 L27.0459 523.639 L10.4488 523.639 L10.4488 519.704 Z" fill="#000000" fill-rule="nonzero" fill-opacity="1" /><path clip-path="url(#clip920)" d="M41.8375 519.704 L60.1939 519.704 L60.1939 523.639 L46.1199 523.639 L46.1199 532.111 Q47.1384 531.764 48.1569 531.602 Q49.1754 531.417 50.1939 531.417 Q55.9809 531.417 59.3605 534.588 Q62.7402 537.76 62.7402 543.176 Q62.7402 548.755 59.268 551.857 Q55.7958 554.935 49.4763 554.935 Q47.3004 554.935 45.0319 554.565 Q42.7866 554.195 40.3792 553.454 L40.3792 548.755 Q42.4625 549.889 44.6847 550.445 Q46.9069 551 49.3837 551 Q53.3884 551 55.7263 548.894 Q58.0643 546.787 58.0643 543.176 Q58.0643 539.565 55.7263 537.459 Q53.3884 535.352 49.3837 535.352 Q47.5088 535.352 45.6338 535.769 Q43.7819 536.185 41.8375 537.065 L41.8375 519.704 Z" fill="#000000" fill-rule="nonzero" fill-opacity="1" /><path clip-path="url(#clip920)" d="M-33.7871 113.061 L-26.1483 113.061 L-26.1483 86.6955 L-34.4584 88.3621 L-34.4584 84.1029 L-26.1946 82.4362 L-21.5187 82.4362 L-21.5187 113.061 L-13.8798 113.061 L-13.8798 116.996 L-33.7871 116.996 L-33.7871 113.061 Z" fill="#000000" fill-rule="nonzero" fill-opacity="1" /><path clip-path="url(#clip920)" d="M-4.43541 111.117 L0.448825 111.117 L0.448825 116.996 L-4.43541 116.996 L-4.43541 111.117 Z" fill="#000000" fill-rule="nonzero" fill-opacity="1" /><path clip-path="url(#clip920)" d="M20.6339 85.5149 Q17.0228 85.5149 15.1941 89.0797 Q13.3886 92.6214 13.3886 99.751 Q13.3886 106.857 15.1941 110.422 Q17.0228 113.964 20.6339 113.964 Q24.2681 113.964 26.0737 110.422 Q27.9024 106.857 27.9024 99.751 Q27.9024 92.6214 26.0737 89.0797 Q24.2681 85.5149 20.6339 85.5149 M20.6339 81.8112 Q26.4441 81.8112 29.4996 86.4177 Q32.5783 91.001 32.5783 99.751 Q32.5783 108.478 29.4996 113.084 Q26.4441 117.668 20.6339 117.668 Q14.8237 117.668 11.7451 113.084 Q8.68952 108.478 8.68952 99.751 Q8.68952 91.001 11.7451 86.4177 Q14.8237 81.8112 20.6339 81.8112 Z" fill="#000000" fill-rule="nonzero" fill-opacity="1" /><path clip-path="url(#clip920)" d="M50.7958 85.5149 Q47.1847 85.5149 45.356 89.0797 Q43.5504 92.6214 43.5504 99.751 Q43.5504 106.857 45.356 110.422 Q47.1847 113.964 50.7958 113.964 Q54.43 113.964 56.2356 110.422 Q58.0643 106.857 58.0643 99.751 Q58.0643 92.6214 56.2356 89.0797 Q54.43 85.5149 50.7958 85.5149 M50.7958 81.8112 Q56.6059 81.8112 59.6615 86.4177 Q62.7402 91.001 62.7402 99.751 Q62.7402 108.478 59.6615 113.084 Q56.6059 117.668 50.7958 117.668 Q44.9856 117.668 41.9069 113.084 Q38.8514 108.478 38.8514 99.751 Q38.8514 91.001 41.9069 86.4177 Q44.9856 81.8112 50.7958 81.8112 Z" fill="#000000" fill-rule="nonzero" fill-opacity="1" /><path clip-path="url(#clip920)" d="M-142.657 1242.09 L-135.878 1242.09 Q-138.902 1245.34 -140.398 1249.03 Q-141.894 1252.69 -141.894 1256.83 Q-141.894 1264.97 -136.896 1269.3 Q-131.931 1273.63 -122.51 1273.63 Q-113.121 1273.63 -108.123 1269.3 Q-103.158 1264.97 -103.158 1256.83 Q-103.158 1252.69 -104.654 1249.03 Q-106.15 1245.34 -109.174 1242.09 L-102.458 1242.09 Q-100.166 1245.46 -99.0205 1249.25 Q-97.8747 1253.01 -97.8747 1257.21 Q-97.8747 1268 -104.463 1274.2 Q-111.084 1280.41 -122.51 1280.41 Q-133.968 1280.41 -140.557 1274.2 Q-147.177 1268 -147.177 1257.21 Q-147.177 1252.94 -146.031 1249.19 Q-144.917 1245.4 -142.657 1242.09 Z" fill="#000000" fill-rule="nonzero" fill-opacity="1" /><path clip-path="url(#clip920)" d="M-128.971 1211.76 Q-129.544 1212.74 -129.799 1213.92 Q-130.085 1215.07 -130.085 1216.47 Q-130.085 1221.43 -126.839 1224.11 Q-123.624 1226.75 -117.577 1226.75 L-98.7977 1226.75 L-98.7977 1232.64 L-134.446 1232.64 L-134.446 1226.75 L-128.908 1226.75 Q-132.154 1224.9 -133.714 1221.94 Q-135.305 1218.98 -135.305 1214.75 Q-135.305 1214.14 -135.21 1213.41 Q-135.146 1212.68 -134.987 1211.79 L-128.971 1211.76 Z" fill="#000000" fill-rule="nonzero" fill-opacity="1" /><path clip-path="url(#clip920)" d="M-130.34 1193.23 Q-130.34 1197.94 -126.648 1200.68 Q-122.987 1203.42 -116.59 1203.42 Q-110.192 1203.42 -106.5 1200.71 Q-102.84 1197.97 -102.84 1193.23 Q-102.84 1188.55 -106.532 1185.82 Q-110.224 1183.08 -116.59 1183.08 Q-122.924 1183.08 -126.616 1185.82 Q-130.34 1188.55 -130.34 1193.23 M-135.305 1193.23 Q-135.305 1185.59 -130.34 1181.23 Q-125.375 1176.87 -116.59 1176.87 Q-107.837 1176.87 -102.84 1181.23 Q-97.8747 1185.59 -97.8747 1193.23 Q-97.8747 1200.9 -102.84 1205.26 Q-107.837 1209.59 -116.59 1209.59 Q-125.375 1209.59 -130.34 1205.26 Q-135.305 1200.9 -135.305 1193.23 Z" fill="#000000" fill-rule="nonzero" fill-opacity="1" /><path clip-path="url(#clip920)" d="M-133.395 1144.44 L-127.857 1144.44 Q-129.13 1146.92 -129.767 1149.6 Q-130.403 1152.27 -130.403 1155.13 Q-130.403 1159.49 -129.067 1161.69 Q-127.73 1163.85 -125.056 1163.85 Q-123.019 1163.85 -121.842 1162.29 Q-120.696 1160.74 -119.645 1156.02 L-119.2 1154.02 Q-117.863 1147.78 -115.412 1145.17 Q-112.993 1142.53 -108.633 1142.53 Q-103.667 1142.53 -100.771 1146.48 Q-97.8747 1150.39 -97.8747 1157.27 Q-97.8747 1160.13 -98.4476 1163.25 Q-98.9887 1166.34 -100.103 1169.77 L-106.15 1169.77 Q-104.463 1166.53 -103.604 1163.38 Q-102.776 1160.23 -102.776 1157.14 Q-102.776 1153 -104.177 1150.77 Q-105.609 1148.55 -108.187 1148.55 Q-110.574 1148.55 -111.847 1150.17 Q-113.121 1151.76 -114.298 1157.2 L-114.776 1159.24 Q-115.921 1164.68 -118.277 1167.1 Q-120.664 1169.52 -124.802 1169.52 Q-129.831 1169.52 -132.568 1165.96 Q-135.305 1162.39 -135.305 1155.83 Q-135.305 1152.59 -134.828 1149.72 Q-134.35 1146.86 -133.395 1144.44 Z" fill="#000000" fill-rule="nonzero" fill-opacity="1" /><path clip-path="url(#clip920)" d="M-133.395 1110.48 L-127.857 1110.48 Q-129.13 1112.96 -129.767 1115.63 Q-130.403 1118.31 -130.403 1121.17 Q-130.403 1125.53 -129.067 1127.73 Q-127.73 1129.89 -125.056 1129.89 Q-123.019 1129.89 -121.842 1128.33 Q-120.696 1126.77 -119.645 1122.06 L-119.2 1120.06 Q-117.863 1113.82 -115.412 1111.21 Q-112.993 1108.57 -108.633 1108.57 Q-103.667 1108.57 -100.771 1112.52 Q-97.8747 1116.43 -97.8747 1123.3 Q-97.8747 1126.17 -98.4476 1129.29 Q-98.9887 1132.38 -100.103 1135.81 L-106.15 1135.81 Q-104.463 1132.57 -103.604 1129.42 Q-102.776 1126.27 -102.776 1123.18 Q-102.776 1119.04 -104.177 1116.81 Q-105.609 1114.58 -108.187 1114.58 Q-110.574 1114.58 -111.847 1116.21 Q-113.121 1117.8 -114.298 1123.24 L-114.776 1125.28 Q-115.921 1130.72 -118.277 1133.14 Q-120.664 1135.56 -124.802 1135.56 Q-129.831 1135.56 -132.568 1131.99 Q-135.305 1128.43 -135.305 1121.87 Q-135.305 1118.63 -134.828 1115.76 Q-134.35 1112.9 -133.395 1110.48 Z" fill="#000000" fill-rule="nonzero" fill-opacity="1" /><path clip-path="url(#clip920)" d="M-119.263 1102.2 L-119.263 1085.05 L-114.044 1085.05 L-114.044 1102.2 L-119.263 1102.2 Z" fill="#000000" fill-rule="nonzero" fill-opacity="1" /><path clip-path="url(#clip920)" d="M-146.318 1075.47 L-146.318 1045.42 L-140.907 1045.42 L-140.907 1069.04 L-126.839 1069.04 L-126.839 1046.41 L-121.428 1046.41 L-121.428 1069.04 L-104.209 1069.04 L-104.209 1044.85 L-98.7977 1044.85 L-98.7977 1075.47 L-146.318 1075.47 Z" fill="#000000" fill-rule="nonzero" fill-opacity="1" /><path clip-path="url(#clip920)" d="M-120.314 1004.9 L-98.7977 1004.9 L-98.7977 1010.76 L-120.123 1010.76 Q-125.184 1010.76 -127.698 1012.73 Q-130.212 1014.71 -130.212 1018.65 Q-130.212 1023.4 -127.189 1026.13 Q-124.165 1028.87 -118.945 1028.87 L-98.7977 1028.87 L-98.7977 1034.76 L-134.446 1034.76 L-134.446 1028.87 L-128.908 1028.87 Q-132.122 1026.77 -133.714 1023.94 Q-135.305 1021.07 -135.305 1017.35 Q-135.305 1011.2 -131.486 1008.05 Q-127.698 1004.9 -120.314 1004.9 Z" fill="#000000" fill-rule="nonzero" fill-opacity="1" /><path clip-path="url(#clip920)" d="M-144.567 987.429 L-134.446 987.429 L-134.446 975.366 L-129.894 975.366 L-129.894 987.429 L-110.542 987.429 Q-106.182 987.429 -104.941 986.251 Q-103.699 985.042 -103.699 981.382 L-103.699 975.366 L-98.7977 975.366 L-98.7977 981.382 Q-98.7977 988.161 -101.312 990.739 Q-103.858 993.317 -110.542 993.317 L-129.894 993.317 L-129.894 997.614 L-134.446 997.614 L-134.446 993.317 L-144.567 993.317 L-144.567 987.429 Z" fill="#000000" fill-rule="nonzero" fill-opacity="1" /><path clip-path="url(#clip920)" d="M-128.971 947.007 Q-129.544 947.993 -129.799 949.171 Q-130.085 950.317 -130.085 951.717 Q-130.085 956.683 -126.839 959.356 Q-123.624 961.998 -117.577 961.998 L-98.7977 961.998 L-98.7977 967.886 L-134.446 967.886 L-134.446 961.998 L-128.908 961.998 Q-132.154 960.152 -133.714 957.192 Q-135.305 954.232 -135.305 949.999 Q-135.305 949.394 -135.21 948.662 Q-135.146 947.93 -134.987 947.039 L-128.971 947.007 Z" fill="#000000" fill-rule="nonzero" fill-opacity="1" /><path clip-path="url(#clip920)" d="M-130.34 928.483 Q-130.34 933.193 -126.648 935.93 Q-122.987 938.668 -116.59 938.668 Q-110.192 938.668 -106.5 935.962 Q-102.84 933.225 -102.84 928.483 Q-102.84 923.804 -106.532 921.066 Q-110.224 918.329 -116.59 918.329 Q-122.924 918.329 -126.616 921.066 Q-130.34 923.804 -130.34 928.483 M-135.305 928.483 Q-135.305 920.844 -130.34 916.483 Q-125.375 912.123 -116.59 912.123 Q-107.837 912.123 -102.84 916.483 Q-97.8747 920.844 -97.8747 928.483 Q-97.8747 936.153 -102.84 940.514 Q-107.837 944.842 -116.59 944.842 Q-125.375 944.842 -130.34 940.514 Q-135.305 936.153 -135.305 928.483 Z" fill="#000000" fill-rule="nonzero" fill-opacity="1" /><path clip-path="url(#clip920)" d="M-104.145 896.749 L-85.2388 896.749 L-85.2388 902.638 L-134.446 902.638 L-134.446 896.749 L-129.035 896.749 Q-132.218 894.903 -133.745 892.103 Q-135.305 889.27 -135.305 885.355 Q-135.305 878.862 -130.149 874.82 Q-124.993 870.746 -116.59 870.746 Q-108.187 870.746 -103.031 874.82 Q-97.8747 878.862 -97.8747 885.355 Q-97.8747 889.27 -99.4025 892.103 Q-100.962 894.903 -104.145 896.749 M-116.59 876.825 Q-123.051 876.825 -126.711 879.498 Q-130.403 882.14 -130.403 886.787 Q-130.403 891.434 -126.711 894.108 Q-123.051 896.749 -116.59 896.749 Q-110.129 896.749 -106.437 894.108 Q-102.776 891.434 -102.776 886.787 Q-102.776 882.14 -106.437 879.498 Q-110.129 876.825 -116.59 876.825 Z" fill="#000000" fill-rule="nonzero" fill-opacity="1" /><path clip-path="url(#clip920)" d="M-95.4876 846.206 Q-89.1218 848.688 -87.1803 851.044 Q-85.2388 853.399 -85.2388 857.346 L-85.2388 862.025 L-90.1404 862.025 L-90.1404 858.587 Q-90.1404 856.168 -91.2862 854.831 Q-92.432 853.495 -96.697 851.871 L-99.3706 850.821 L-134.446 865.239 L-134.446 859.033 L-106.564 847.893 L-134.446 836.753 L-134.446 830.546 L-95.4876 846.206 Z" fill="#000000" fill-rule="nonzero" fill-opacity="1" /><path clip-path="url(#clip920)" d="M-146.318 801.487 L-146.318 795.057 L-104.209 795.057 L-104.209 771.918 L-98.7977 771.918 L-98.7977 801.487 L-146.318 801.487 Z" fill="#000000" fill-rule="nonzero" fill-opacity="1" /><path clip-path="url(#clip920)" d="M-130.34 752.757 Q-130.34 757.468 -126.648 760.205 Q-122.987 762.942 -116.59 762.942 Q-110.192 762.942 -106.5 760.237 Q-102.84 757.5 -102.84 752.757 Q-102.84 748.078 -106.532 745.341 Q-110.224 742.604 -116.59 742.604 Q-122.924 742.604 -126.616 745.341 Q-130.34 748.078 -130.34 752.757 M-135.305 752.757 Q-135.305 745.118 -130.34 740.758 Q-125.375 736.397 -116.59 736.397 Q-107.837 736.397 -102.84 740.758 Q-97.8747 745.118 -97.8747 752.757 Q-97.8747 760.428 -102.84 764.788 Q-107.837 769.117 -116.59 769.117 Q-125.375 769.117 -130.34 764.788 Q-135.305 760.428 -135.305 752.757 Z" fill="#000000" fill-rule="nonzero" fill-opacity="1" /><path clip-path="url(#clip920)" d="M-133.395 703.964 L-127.857 703.964 Q-129.13 706.447 -129.767 709.12 Q-130.403 711.794 -130.403 714.658 Q-130.403 719.019 -129.067 721.215 Q-127.73 723.379 -125.056 723.379 Q-123.019 723.379 -121.842 721.82 Q-120.696 720.26 -119.645 715.55 L-119.2 713.544 Q-117.863 707.306 -115.412 704.696 Q-112.993 702.054 -108.633 702.054 Q-103.667 702.054 -100.771 706.001 Q-97.8747 709.916 -97.8747 716.791 Q-97.8747 719.656 -98.4476 722.775 Q-98.9887 725.862 -100.103 729.3 L-106.15 729.3 Q-104.463 726.053 -103.604 722.902 Q-102.776 719.751 -102.776 716.664 Q-102.776 712.526 -104.177 710.298 Q-105.609 708.07 -108.187 708.07 Q-110.574 708.07 -111.847 709.693 Q-113.121 711.285 -114.298 716.727 L-114.776 718.764 Q-115.921 724.207 -118.277 726.626 Q-120.664 729.045 -124.802 729.045 Q-129.831 729.045 -132.568 725.48 Q-135.305 721.915 -135.305 715.359 Q-135.305 712.112 -134.828 709.248 Q-134.35 706.383 -133.395 703.964 Z" fill="#000000" fill-rule="nonzero" fill-opacity="1" /><path clip-path="url(#clip920)" d="M-133.395 670.003 L-127.857 670.003 Q-129.13 672.486 -129.767 675.159 Q-130.403 677.833 -130.403 680.697 Q-130.403 685.058 -129.067 687.254 Q-127.73 689.418 -125.056 689.418 Q-123.019 689.418 -121.842 687.859 Q-120.696 686.299 -119.645 681.589 L-119.2 679.583 Q-117.863 673.345 -115.412 670.735 Q-112.993 668.093 -108.633 668.093 Q-103.667 668.093 -100.771 672.04 Q-97.8747 675.955 -97.8747 682.83 Q-97.8747 685.694 -98.4476 688.814 Q-98.9887 691.901 -100.103 695.339 L-106.15 695.339 Q-104.463 692.092 -103.604 688.941 Q-102.776 685.79 -102.776 682.703 Q-102.776 678.565 -104.177 676.337 Q-105.609 674.109 -108.187 674.109 Q-110.574 674.109 -111.847 675.732 Q-113.121 677.324 -114.298 682.766 L-114.776 684.803 Q-115.921 690.246 -118.277 692.665 Q-120.664 695.084 -124.802 695.084 Q-129.831 695.084 -132.568 691.519 Q-135.305 687.954 -135.305 681.398 Q-135.305 678.151 -134.828 675.287 Q-134.35 672.422 -133.395 670.003 Z" fill="#000000" fill-rule="nonzero" fill-opacity="1" /></svg>
