<?xml version="1.0" encoding="utf-8"?>
<svg xmlns="http://www.w3.org/2000/svg" xmlns:xlink="http://www.w3.org/1999/xlink" width="800" height="500" viewBox="0 0 3200 2000">
<defs>
  <clipPath id="clip850">
    <rect x="0" y="0" width="3200" height="2000"/>
  </clipPath>
</defs>
<path clip-path="url(#clip850)" d="M0 2000 L3200 2000 L3200 0 L0 0  Z" fill="#ffffff" fill-rule="evenodd" fill-opacity="1"/>
<defs>
  <clipPath id="clip851">
    <rect x="640" y="0" width="2241" height="2000"/>
  </clipPath>
</defs>
<path clip-path="url(#clip850)" d="M110.74 1901.26 L3152.76 1901.26 L3152.76 47.2441 L110.74 47.2441  Z" fill="#ffffff" fill-rule="evenodd" fill-opacity="1"/>
<defs>
  <clipPath id="clip852">
    <rect x="110" y="47" width="3043" height="1855"/>
  </clipPath>
</defs>
<polyline clip-path="url(#clip852)" style="stroke:#000000; stroke-linecap:round; stroke-linejoin:round; stroke-width:2; stroke-opacity:0.1; fill:none" points="185.31,1901.26 185.31,47.2441 "/>
<polyline clip-path="url(#clip852)" style="stroke:#000000; stroke-linecap:round; stroke-linejoin:round; stroke-width:2; stroke-opacity:0.1; fill:none" points="761.58,1901.26 761.58,47.2441 "/>
<polyline clip-path="url(#clip852)" style="stroke:#000000; stroke-linecap:round; stroke-linejoin:round; stroke-width:2; stroke-opacity:0.1; fill:none" points="1337.85,1901.26 1337.85,47.2441 "/>
<polyline clip-path="url(#clip852)" style="stroke:#000000; stroke-linecap:round; stroke-linejoin:round; stroke-width:2; stroke-opacity:0.1; fill:none" points="1914.12,1901.26 1914.12,47.2441 "/>
<polyline clip-path="url(#clip852)" style="stroke:#000000; stroke-linecap:round; stroke-linejoin:round; stroke-width:2; stroke-opacity:0.1; fill:none" points="2490.39,1901.26 2490.39,47.2441 "/>
<polyline clip-path="url(#clip852)" style="stroke:#000000; stroke-linecap:round; stroke-linejoin:round; stroke-width:2; stroke-opacity:0.1; fill:none" points="3066.66,1901.26 3066.66,47.2441 "/>
<polyline clip-path="url(#clip850)" style="stroke:#000000; stroke-linecap:round; stroke-linejoin:round; stroke-width:4; stroke-opacity:1; fill:none" points="110.74,1901.26 3152.76,1901.26 "/>
<polyline clip-path="url(#clip850)" style="stroke:#000000; stroke-linecap:round; stroke-linejoin:round; stroke-width:4; stroke-opacity:1; fill:none" points="185.31,1901.26 185.31,1882.36 "/>
<polyline clip-path="url(#clip850)" style="stroke:#000000; stroke-linecap:round; stroke-linejoin:round; stroke-width:4; stroke-opacity:1; fill:none" points="761.58,1901.26 761.58,1882.36 "/>
<polyline clip-path="url(#clip850)" style="stroke:#000000; stroke-linecap:round; stroke-linejoin:round; stroke-width:4; stroke-opacity:1; fill:none" points="1337.85,1901.26 1337.85,1882.36 "/>
<polyline clip-path="url(#clip850)" style="stroke:#000000; stroke-linecap:round; stroke-linejoin:round; stroke-width:4; stroke-opacity:1; fill:none" points="1914.12,1901.26 1914.12,1882.36 "/>
<polyline clip-path="url(#clip850)" style="stroke:#000000; stroke-linecap:round; stroke-linejoin:round; stroke-width:4; stroke-opacity:1; fill:none" points="2490.39,1901.26 2490.39,1882.36 "/>
<polyline clip-path="url(#clip850)" style="stroke:#000000; stroke-linecap:round; stroke-linejoin:round; stroke-width:4; stroke-opacity:1; fill:none" points="3066.66,1901.26 3066.66,1882.36 "/>
<path clip-path="url(#clip850)" d="M185.31 1938.58 Q181.698 1938.58 179.87 1942.14 Q178.064 1945.68 178.064 1952.81 Q178.064 1959.92 179.87 1963.49 Q181.698 1967.03 185.31 1967.03 Q188.944 1967.03 190.749 1963.49 Q192.578 1959.92 192.578 1952.81 Q192.578 1945.68 190.749 1942.14 Q188.944 1938.58 185.31 1938.58 M185.31 1934.87 Q191.12 1934.87 194.175 1939.48 Q197.254 1944.06 197.254 1952.81 Q197.254 1961.54 194.175 1966.15 Q191.12 1970.73 185.31 1970.73 Q179.499 1970.73 176.421 1966.15 Q173.365 1961.54 173.365 1952.81 Q173.365 1944.06 176.421 1939.48 Q179.499 1934.87 185.31 1934.87 Z" fill="#000000" fill-rule="nonzero" fill-opacity="1" /><path clip-path="url(#clip850)" d="M736.279 1935.5 L754.635 1935.5 L754.635 1939.44 L740.561 1939.44 L740.561 1947.91 Q741.58 1947.56 742.598 1947.4 Q743.617 1947.21 744.635 1947.21 Q750.423 1947.21 753.802 1950.38 Q757.182 1953.56 757.182 1958.97 Q757.182 1964.55 753.71 1967.65 Q750.237 1970.73 743.918 1970.73 Q741.742 1970.73 739.473 1970.36 Q737.228 1969.99 734.821 1969.25 L734.821 1964.55 Q736.904 1965.68 739.126 1966.24 Q741.348 1966.8 743.825 1966.8 Q747.83 1966.8 750.168 1964.69 Q752.506 1962.58 752.506 1958.97 Q752.506 1955.36 750.168 1953.25 Q747.83 1951.15 743.825 1951.15 Q741.95 1951.15 740.075 1951.56 Q738.223 1951.98 736.279 1952.86 L736.279 1935.5 Z" fill="#000000" fill-rule="nonzero" fill-opacity="1" /><path clip-path="url(#clip850)" d="M776.395 1938.58 Q772.783 1938.58 770.955 1942.14 Q769.149 1945.68 769.149 1952.81 Q769.149 1959.92 770.955 1963.49 Q772.783 1967.03 776.395 1967.03 Q780.029 1967.03 781.834 1963.49 Q783.663 1959.92 783.663 1952.81 Q783.663 1945.68 781.834 1942.14 Q780.029 1938.58 776.395 1938.58 M776.395 1934.87 Q782.205 1934.87 785.26 1939.48 Q788.339 1944.06 788.339 1952.81 Q788.339 1961.54 785.26 1966.15 Q782.205 1970.73 776.395 1970.73 Q770.584 1970.73 767.506 1966.15 Q764.45 1961.54 764.45 1952.81 Q764.45 1944.06 767.506 1939.48 Q770.584 1934.87 776.395 1934.87 Z" fill="#000000" fill-rule="nonzero" fill-opacity="1" /><path clip-path="url(#clip850)" d="M1297.46 1966.12 L1305.1 1966.12 L1305.1 1939.76 L1296.79 1941.43 L1296.79 1937.17 L1305.05 1935.5 L1309.73 1935.5 L1309.73 1966.12 L1317.36 1966.12 L1317.36 1970.06 L1297.46 1970.06 L1297.46 1966.12 Z" fill="#000000" fill-rule="nonzero" fill-opacity="1" /><path clip-path="url(#clip850)" d="M1336.81 1938.58 Q1333.2 1938.58 1331.37 1942.14 Q1329.56 1945.68 1329.56 1952.81 Q1329.56 1959.92 1331.37 1963.49 Q1333.2 1967.03 1336.81 1967.03 Q1340.44 1967.03 1342.25 1963.49 Q1344.08 1959.92 1344.08 1952.81 Q1344.08 1945.68 1342.25 1942.14 Q1340.44 1938.58 1336.81 1938.58 M1336.81 1934.87 Q1342.62 1934.87 1345.67 1939.48 Q1348.75 1944.06 1348.75 1952.81 Q1348.75 1961.54 1345.67 1966.15 Q1342.62 1970.73 1336.81 1970.73 Q1331 1970.73 1327.92 1966.15 Q1324.86 1961.54 1324.86 1952.81 Q1324.86 1944.06 1327.92 1939.48 Q1331 1934.87 1336.81 1934.87 Z" fill="#000000" fill-rule="nonzero" fill-opacity="1" /><path clip-path="url(#clip850)" d="M1366.97 1938.58 Q1363.36 1938.58 1361.53 1942.14 Q1359.73 1945.68 1359.73 1952.81 Q1359.73 1959.92 1361.53 1963.49 Q1363.36 1967.03 1366.97 1967.03 Q1370.6 1967.03 1372.41 1963.49 Q1374.24 1959.92 1374.24 1952.81 Q1374.24 1945.68 1372.41 1942.14 Q1370.6 1938.58 1366.97 1938.58 M1366.97 1934.87 Q1372.78 1934.87 1375.84 1939.48 Q1378.91 1944.06 1378.91 1952.81 Q1378.91 1961.54 1375.84 1966.15 Q1372.78 1970.73 1366.97 1970.73 Q1361.16 1970.73 1358.08 1966.15 Q1355.03 1961.54 1355.03 1952.81 Q1355.03 1944.06 1358.08 1939.48 Q1361.16 1934.87 1366.97 1934.87 Z" fill="#000000" fill-rule="nonzero" fill-opacity="1" /><path clip-path="url(#clip850)" d="M1873.73 1966.12 L1881.37 1966.12 L1881.37 1939.76 L1873.06 1941.43 L1873.06 1937.17 L1881.32 1935.5 L1886 1935.5 L1886 1966.12 L1893.63 1966.12 L1893.63 1970.06 L1873.73 1970.06 L1873.73 1966.12 Z" fill="#000000" fill-rule="nonzero" fill-opacity="1" /><path clip-path="url(#clip850)" d="M1903.13 1935.5 L1921.48 1935.5 L1921.48 1939.44 L1907.41 1939.44 L1907.41 1947.91 Q1908.43 1947.56 1909.44 1947.4 Q1910.46 1947.21 1911.48 1947.21 Q1917.27 1947.21 1920.65 1950.38 Q1924.03 1953.56 1924.03 1958.97 Q1924.03 1964.55 1920.56 1967.65 Q1917.08 1970.73 1910.76 1970.73 Q1908.59 1970.73 1906.32 1970.36 Q1904.07 1969.99 1901.67 1969.25 L1901.67 1964.55 Q1903.75 1965.68 1905.97 1966.24 Q1908.19 1966.8 1910.67 1966.8 Q1914.68 1966.8 1917.01 1964.69 Q1919.35 1962.58 1919.35 1958.97 Q1919.35 1955.36 1917.01 1953.25 Q1914.68 1951.15 1910.67 1951.15 Q1908.8 1951.15 1906.92 1951.56 Q1905.07 1951.98 1903.13 1952.86 L1903.13 1935.5 Z" fill="#000000" fill-rule="nonzero" fill-opacity="1" /><path clip-path="url(#clip850)" d="M1943.24 1938.58 Q1939.63 1938.58 1937.8 1942.14 Q1936 1945.68 1936 1952.81 Q1936 1959.92 1937.8 1963.49 Q1939.63 1967.03 1943.24 1967.03 Q1946.87 1967.03 1948.68 1963.49 Q1950.51 1959.92 1950.51 1952.81 Q1950.51 1945.68 1948.68 1942.14 Q1946.87 1938.58 1943.24 1938.58 M1943.24 1934.87 Q1949.05 1934.87 1952.11 1939.48 Q1955.19 1944.06 1955.19 1952.81 Q1955.19 1961.54 1952.11 1966.15 Q1949.05 1970.73 1943.24 1970.73 Q1937.43 1970.73 1934.35 1966.15 Q1931.3 1961.54 1931.3 1952.81 Q1931.3 1944.06 1934.35 1939.48 Q1937.43 1934.87 1943.24 1934.87 Z" fill="#000000" fill-rule="nonzero" fill-opacity="1" /><path clip-path="url(#clip850)" d="M2454.08 1966.12 L2470.4 1966.12 L2470.4 1970.06 L2448.46 1970.06 L2448.46 1966.12 Q2451.12 1963.37 2455.7 1958.74 Q2460.31 1954.09 2461.49 1952.75 Q2463.74 1950.22 2464.62 1948.49 Q2465.52 1946.73 2465.52 1945.04 Q2465.52 1942.28 2463.57 1940.55 Q2461.65 1938.81 2458.55 1938.81 Q2456.35 1938.81 2453.9 1939.57 Q2451.47 1940.34 2448.69 1941.89 L2448.69 1937.17 Q2451.51 1936.03 2453.97 1935.45 Q2456.42 1934.87 2458.46 1934.87 Q2463.83 1934.87 2467.02 1937.56 Q2470.22 1940.25 2470.22 1944.74 Q2470.22 1946.87 2469.41 1948.79 Q2468.62 1950.68 2466.51 1953.28 Q2465.93 1953.95 2462.83 1957.17 Q2459.73 1960.36 2454.08 1966.12 Z" fill="#000000" fill-rule="nonzero" fill-opacity="1" /><path clip-path="url(#clip850)" d="M2490.22 1938.58 Q2486.61 1938.58 2484.78 1942.14 Q2482.97 1945.68 2482.97 1952.81 Q2482.97 1959.92 2484.78 1963.49 Q2486.61 1967.03 2490.22 1967.03 Q2493.85 1967.03 2495.66 1963.49 Q2497.49 1959.92 2497.49 1952.81 Q2497.49 1945.68 2495.66 1942.14 Q2493.85 1938.58 2490.22 1938.58 M2490.22 1934.87 Q2496.03 1934.87 2499.08 1939.48 Q2502.16 1944.06 2502.16 1952.81 Q2502.16 1961.54 2499.08 1966.15 Q2496.03 1970.73 2490.22 1970.73 Q2484.41 1970.73 2481.33 1966.15 Q2478.27 1961.54 2478.27 1952.81 Q2478.27 1944.06 2481.33 1939.48 Q2484.41 1934.87 2490.22 1934.87 Z" fill="#000000" fill-rule="nonzero" fill-opacity="1" /><path clip-path="url(#clip850)" d="M2520.38 1938.58 Q2516.77 1938.58 2514.94 1942.14 Q2513.13 1945.68 2513.13 1952.81 Q2513.13 1959.92 2514.94 1963.49 Q2516.77 1967.03 2520.38 1967.03 Q2524.01 1967.03 2525.82 1963.49 Q2527.65 1959.92 2527.65 1952.81 Q2527.65 1945.68 2525.82 1942.14 Q2524.01 1938.58 2520.38 1938.58 M2520.38 1934.87 Q2526.19 1934.87 2529.24 1939.48 Q2532.32 1944.06 2532.32 1952.81 Q2532.32 1961.54 2529.24 1966.15 Q2526.19 1970.73 2520.38 1970.73 Q2514.57 1970.73 2511.49 1966.15 Q2508.43 1961.54 2508.43 1952.81 Q2508.43 1944.06 2511.49 1939.48 Q2514.57 1934.87 2520.38 1934.87 Z" fill="#000000" fill-rule="nonzero" fill-opacity="1" /><path clip-path="url(#clip850)" d="M3030.35 1966.12 L3046.67 1966.12 L3046.67 1970.06 L3024.73 1970.06 L3024.73 1966.12 Q3027.39 1963.37 3031.97 1958.74 Q3036.58 1954.09 3037.76 1952.75 Q3040.01 1950.22 3040.89 1948.49 Q3041.79 1946.73 3041.79 1945.04 Q3041.79 1942.28 3039.84 1940.55 Q3037.92 1938.81 3034.82 1938.81 Q3032.62 1938.81 3030.17 1939.57 Q3027.74 1940.34 3024.96 1941.89 L3024.96 1937.17 Q3027.78 1936.03 3030.24 1935.45 Q3032.69 1934.87 3034.73 1934.87 Q3040.1 1934.87 3043.29 1937.56 Q3046.49 1940.25 3046.49 1944.74 Q3046.49 1946.87 3045.68 1948.79 Q3044.89 1950.68 3042.78 1953.28 Q3042.21 1953.95 3039.1 1957.17 Q3036 1960.36 3030.35 1966.12 Z" fill="#000000" fill-rule="nonzero" fill-opacity="1" /><path clip-path="url(#clip850)" d="M3056.53 1935.5 L3074.89 1935.5 L3074.89 1939.44 L3060.82 1939.44 L3060.82 1947.91 Q3061.83 1947.56 3062.85 1947.4 Q3063.87 1947.21 3064.89 1947.21 Q3070.68 1947.21 3074.06 1950.38 Q3077.44 1953.56 3077.44 1958.97 Q3077.44 1964.55 3073.96 1967.65 Q3070.49 1970.73 3064.17 1970.73 Q3062 1970.73 3059.73 1970.36 Q3057.48 1969.99 3055.08 1969.25 L3055.08 1964.55 Q3057.16 1965.68 3059.38 1966.24 Q3061.6 1966.8 3064.08 1966.8 Q3068.08 1966.8 3070.42 1964.69 Q3072.76 1962.58 3072.76 1958.97 Q3072.76 1955.36 3070.42 1953.25 Q3068.08 1951.15 3064.08 1951.15 Q3062.21 1951.15 3060.33 1951.56 Q3058.48 1951.98 3056.53 1952.86 L3056.53 1935.5 Z" fill="#000000" fill-rule="nonzero" fill-opacity="1" /><path clip-path="url(#clip850)" d="M3096.65 1938.58 Q3093.04 1938.58 3091.21 1942.14 Q3089.4 1945.68 3089.4 1952.81 Q3089.4 1959.92 3091.21 1963.49 Q3093.04 1967.03 3096.65 1967.03 Q3100.28 1967.03 3102.09 1963.49 Q3103.92 1959.92 3103.92 1952.81 Q3103.92 1945.68 3102.09 1942.14 Q3100.28 1938.58 3096.65 1938.58 M3096.65 1934.87 Q3102.46 1934.87 3105.52 1939.48 Q3108.59 1944.06 3108.59 1952.81 Q3108.59 1961.54 3105.52 1966.15 Q3102.46 1970.73 3096.65 1970.73 Q3090.84 1970.73 3087.76 1966.15 Q3084.71 1961.54 3084.71 1952.81 Q3084.71 1944.06 3087.76 1939.48 Q3090.84 1934.87 3096.65 1934.87 Z" fill="#000000" fill-rule="nonzero" fill-opacity="1" /><path clip-path="url(#clip850)" d="M1537.92 2010.6 L1567.96 2010.6 L1567.96 2016.01 L1544.35 2016.01 L1544.35 2030.08 L1566.98 2030.08 L1566.98 2035.49 L1544.35 2035.49 L1544.35 2052.71 L1568.54 2052.71 L1568.54 2058.12 L1537.92 2058.12 L1537.92 2010.6 Z" fill="#000000" fill-rule="nonzero" fill-opacity="1" /><path clip-path="url(#clip850)" d="M1584.51 2052.78 L1584.51 2071.68 L1578.63 2071.68 L1578.63 2022.48 L1584.51 2022.48 L1584.51 2027.89 Q1586.36 2024.7 1589.16 2023.18 Q1591.99 2021.62 1595.91 2021.62 Q1602.4 2021.62 1606.44 2026.77 Q1610.52 2031.93 1610.52 2040.33 Q1610.52 2048.73 1606.44 2053.89 Q1602.4 2059.05 1595.91 2059.05 Q1591.99 2059.05 1589.16 2057.52 Q1586.36 2055.96 1584.51 2052.78 M1604.44 2040.33 Q1604.44 2033.87 1601.77 2030.21 Q1599.12 2026.52 1594.48 2026.52 Q1589.83 2026.52 1587.16 2030.21 Q1584.51 2033.87 1584.51 2040.33 Q1584.51 2046.79 1587.16 2050.48 Q1589.83 2054.15 1594.48 2054.15 Q1599.12 2054.15 1601.77 2050.48 Q1604.44 2046.79 1604.44 2040.33 Z" fill="#000000" fill-rule="nonzero" fill-opacity="1" /><path clip-path="url(#clip850)" d="M1634.04 2026.58 Q1629.33 2026.58 1626.59 2030.27 Q1623.85 2033.93 1623.85 2040.33 Q1623.85 2046.73 1626.56 2050.42 Q1629.3 2054.08 1634.04 2054.08 Q1638.72 2054.08 1641.46 2050.39 Q1644.19 2046.7 1644.19 2040.33 Q1644.19 2034 1641.46 2030.31 Q1638.72 2026.58 1634.04 2026.58 M1634.04 2021.62 Q1641.68 2021.62 1646.04 2026.58 Q1650.4 2031.55 1650.4 2040.33 Q1650.4 2049.08 1646.04 2054.08 Q1641.68 2059.05 1634.04 2059.05 Q1626.37 2059.05 1622.01 2054.08 Q1617.68 2049.08 1617.68 2040.33 Q1617.68 2031.55 1622.01 2026.58 Q1626.37 2021.62 1634.04 2021.62 Z" fill="#000000" fill-rule="nonzero" fill-opacity="1" /><path clip-path="url(#clip850)" d="M1685.76 2023.84 L1685.76 2029.32 Q1683.28 2027.95 1680.76 2027.28 Q1678.28 2026.58 1675.74 2026.58 Q1670.04 2026.58 1666.89 2030.21 Q1663.74 2033.81 1663.74 2040.33 Q1663.74 2046.86 1666.89 2050.48 Q1670.04 2054.08 1675.74 2054.08 Q1678.28 2054.08 1680.76 2053.41 Q1683.28 2052.71 1685.76 2051.34 L1685.76 2056.76 Q1683.31 2057.9 1680.67 2058.47 Q1678.06 2059.05 1675.1 2059.05 Q1667.05 2059.05 1662.3 2053.99 Q1657.56 2048.93 1657.56 2040.33 Q1657.56 2031.61 1662.34 2026.61 Q1667.14 2021.62 1675.48 2021.62 Q1678.19 2021.62 1680.76 2022.19 Q1683.34 2022.73 1685.76 2023.84 Z" fill="#000000" fill-rule="nonzero" fill-opacity="1" /><path clip-path="url(#clip850)" d="M1725.58 2036.61 L1725.58 2058.12 L1719.72 2058.12 L1719.72 2036.8 Q1719.72 2031.74 1717.75 2029.22 Q1715.78 2026.71 1711.83 2026.71 Q1707.09 2026.71 1704.35 2029.73 Q1701.61 2032.76 1701.61 2037.98 L1701.61 2058.12 L1695.72 2058.12 L1695.72 2008.6 L1701.61 2008.6 L1701.61 2028.01 Q1703.71 2024.8 1706.55 2023.21 Q1709.41 2021.62 1713.13 2021.62 Q1719.28 2021.62 1722.43 2025.44 Q1725.58 2029.22 1725.58 2036.61 Z" fill="#000000" fill-rule="nonzero" fill-opacity="1" /><polyline clip-path="url(#clip852)" style="stroke:#000000; stroke-linecap:round; stroke-linejoin:round; stroke-width:2; stroke-opacity:0.1; fill:none" points="110.74,1818.79 3152.76,1818.79 "/>
<polyline clip-path="url(#clip852)" style="stroke:#000000; stroke-linecap:round; stroke-linejoin:round; stroke-width:2; stroke-opacity:0.1; fill:none" points="110.74,1439.49 3152.76,1439.49 "/>
<polyline clip-path="url(#clip852)" style="stroke:#000000; stroke-linecap:round; stroke-linejoin:round; stroke-width:2; stroke-opacity:0.1; fill:none" points="110.74,1060.18 3152.76,1060.18 "/>
<polyline clip-path="url(#clip852)" style="stroke:#000000; stroke-linecap:round; stroke-linejoin:round; stroke-width:2; stroke-opacity:0.1; fill:none" points="110.74,680.877 3152.76,680.877 "/>
<polyline clip-path="url(#clip852)" style="stroke:#000000; stroke-linecap:round; stroke-linejoin:round; stroke-width:2; stroke-opacity:0.1; fill:none" points="110.74,301.572 3152.76,301.572 "/>
<polyline clip-path="url(#clip850)" style="stroke:#000000; stroke-linecap:round; stroke-linejoin:round; stroke-width:4; stroke-opacity:1; fill:none" points="110.74,1901.26 110.74,47.2441 "/>
<polyline clip-path="url(#clip850)" style="stroke:#000000; stroke-linecap:round; stroke-linejoin:round; stroke-width:4; stroke-opacity:1; fill:none" points="110.74,1818.79 129.638,1818.79 "/>
<polyline clip-path="url(#clip850)" style="stroke:#000000; stroke-linecap:round; stroke-linejoin:round; stroke-width:4; stroke-opacity:1; fill:none" points="110.74,1439.49 129.638,1439.49 "/>
<polyline clip-path="url(#clip850)" style="stroke:#000000; stroke-linecap:round; stroke-linejoin:round; stroke-width:4; stroke-opacity:1; fill:none" points="110.74,1060.18 129.638,1060.18 "/>
<polyline clip-path="url(#clip850)" style="stroke:#000000; stroke-linecap:round; stroke-linejoin:round; stroke-width:4; stroke-opacity:1; fill:none" points="110.74,680.877 129.638,680.877 "/>
<polyline clip-path="url(#clip850)" style="stroke:#000000; stroke-linecap:round; stroke-linejoin:round; stroke-width:4; stroke-opacity:1; fill:none" points="110.74,301.572 129.638,301.572 "/>
<path clip-path="url(#clip850)" d="M-23.602 1804.59 Q-27.2131 1804.59 -29.0418 1808.16 Q-30.8473 1811.7 -30.8473 1818.83 Q-30.8473 1825.93 -29.0418 1829.5 Q-27.2131 1833.04 -23.602 1833.04 Q-19.9677 1833.04 -18.1622 1829.5 Q-16.3335 1825.93 -16.3335 1818.83 Q-16.3335 1811.7 -18.1622 1808.16 Q-19.9677 1804.59 -23.602 1804.59 M-23.602 1800.89 Q-17.7918 1800.89 -14.7363 1805.49 Q-11.6576 1810.08 -11.6576 1818.83 Q-11.6576 1827.55 -14.7363 1832.16 Q-17.7918 1836.74 -23.602 1836.74 Q-29.4121 1836.74 -32.4908 1832.16 Q-35.5464 1827.55 -35.5464 1818.83 Q-35.5464 1810.08 -32.4908 1805.49 Q-29.4121 1800.89 -23.602 1800.89 Z" fill="#000000" fill-rule="nonzero" fill-opacity="1" /><path clip-path="url(#clip850)" d="M-3.44004 1830.19 L1.44419 1830.19 L1.44419 1836.07 L-3.44004 1836.07 L-3.44004 1830.19 Z" fill="#000000" fill-rule="nonzero" fill-opacity="1" /><path clip-path="url(#clip850)" d="M15.6571 1832.14 L31.9764 1832.14 L31.9764 1836.07 L10.0321 1836.07 L10.0321 1832.14 Q12.6941 1829.38 17.2774 1824.75 Q21.8839 1820.1 23.0644 1818.76 Q25.3098 1816.23 26.1894 1814.5 Q27.0922 1812.74 27.0922 1811.05 Q27.0922 1808.29 25.1478 1806.56 Q23.2265 1804.82 20.1246 1804.82 Q17.9256 1804.82 15.4719 1805.59 Q13.0413 1806.35 10.2636 1807.9 L10.2636 1803.18 Q13.0876 1802.04 15.5413 1801.47 Q17.995 1800.89 20.0321 1800.89 Q25.4024 1800.89 28.5968 1803.57 Q31.7912 1806.26 31.7912 1810.75 Q31.7912 1812.88 30.9811 1814.8 Q30.194 1816.7 28.0876 1819.29 Q27.5089 1819.96 24.407 1823.18 Q21.3052 1826.37 15.6571 1832.14 Z" fill="#000000" fill-rule="nonzero" fill-opacity="1" /><path clip-path="url(#clip850)" d="M41.8375 1801.51 L60.1939 1801.51 L60.1939 1805.45 L46.1199 1805.45 L46.1199 1813.92 Q47.1384 1813.57 48.1569 1813.41 Q49.1754 1813.22 50.1939 1813.22 Q55.9809 1813.22 59.3605 1816.4 Q62.7402 1819.57 62.7402 1824.98 Q62.7402 1830.56 59.268 1833.66 Q55.7958 1836.74 49.4763 1836.74 Q47.3004 1836.74 45.0319 1836.37 Q42.7866 1836 40.3792 1835.26 L40.3792 1830.56 Q42.4625 1831.7 44.6847 1832.25 Q46.9069 1832.81 49.3837 1832.81 Q53.3884 1832.81 55.7263 1830.7 Q58.0643 1828.59 58.0643 1824.98 Q58.0643 1821.37 55.7263 1819.27 Q53.3884 1817.16 49.3837 1817.16 Q47.5088 1817.16 45.6338 1817.58 Q43.7819 1817.99 41.8375 1818.87 L41.8375 1801.51 Z" fill="#000000" fill-rule="nonzero" fill-opacity="1" /><path clip-path="url(#clip850)" d="M-24.5973 1425.29 Q-28.2084 1425.29 -30.0371 1428.85 Q-31.8427 1432.39 -31.8427 1439.52 Q-31.8427 1446.63 -30.0371 1450.19 Q-28.2084 1453.73 -24.5973 1453.73 Q-20.9631 1453.73 -19.1576 1450.19 Q-17.3289 1446.63 -17.3289 1439.52 Q-17.3289 1432.39 -19.1576 1428.85 Q-20.9631 1425.29 -24.5973 1425.29 M-24.5973 1421.58 Q-18.7872 1421.58 -15.7316 1426.19 Q-12.653 1430.77 -12.653 1439.52 Q-12.653 1448.25 -15.7316 1452.85 Q-18.7872 1457.44 -24.5973 1457.44 Q-30.4075 1457.44 -33.4862 1452.85 Q-36.5417 1448.25 -36.5417 1439.52 Q-36.5417 1430.77 -33.4862 1426.19 Q-30.4075 1421.58 -24.5973 1421.58 Z" fill="#000000" fill-rule="nonzero" fill-opacity="1" /><path clip-path="url(#clip850)" d="M-4.43541 1450.89 L0.448825 1450.89 L0.448825 1456.77 L-4.43541 1456.77 L-4.43541 1450.89 Z" fill="#000000" fill-rule="nonzero" fill-opacity="1" /><path clip-path="url(#clip850)" d="M10.6803 1422.21 L29.0366 1422.21 L29.0366 1426.14 L14.9626 1426.14 L14.9626 1434.61 Q15.9811 1434.27 16.9997 1434.1 Q18.0182 1433.92 19.0367 1433.92 Q24.8237 1433.92 28.2033 1437.09 Q31.5829 1440.26 31.5829 1445.68 Q31.5829 1451.26 28.1107 1454.36 Q24.6385 1457.44 18.3191 1457.44 Q16.1432 1457.44 13.8747 1457.07 Q11.6293 1456.7 9.22193 1455.96 L9.22193 1451.26 Q11.3052 1452.39 13.5275 1452.95 Q15.7497 1453.5 18.2265 1453.5 Q22.2311 1453.5 24.5691 1451.4 Q26.907 1449.29 26.907 1445.68 Q26.907 1442.07 24.5691 1439.96 Q22.2311 1437.85 18.2265 1437.85 Q16.3515 1437.85 14.4765 1438.27 Q12.6247 1438.69 10.6803 1439.57 L10.6803 1422.21 Z" fill="#000000" fill-rule="nonzero" fill-opacity="1" /><path clip-path="url(#clip850)" d="M50.7958 1425.29 Q47.1847 1425.29 45.356 1428.85 Q43.5504 1432.39 43.5504 1439.52 Q43.5504 1446.63 45.356 1450.19 Q47.1847 1453.73 50.7958 1453.73 Q54.43 1453.73 56.2356 1450.19 Q58.0643 1446.63 58.0643 1439.52 Q58.0643 1432.39 56.2356 1428.85 Q54.43 1425.29 50.7958 1425.29 M50.7958 1421.58 Q56.6059 1421.58 59.6615 1426.19 Q62.7402 1430.77 62.7402 1439.52 Q62.7402 1448.25 59.6615 1452.85 Q56.6059 1457.44 50.7958 1457.44 Q44.9856 1457.44 41.9069 1452.85 Q38.8514 1448.25 38.8514 1439.52 Q38.8514 1430.77 41.9069 1426.19 Q44.9856 1421.58 50.7958 1421.58 Z" fill="#000000" fill-rule="nonzero" fill-opacity="1" /><path clip-path="url(#clip850)" d="M-23.602 1045.98 Q-27.2131 1045.98 -29.0418 1049.55 Q-30.8473 1053.09 -30.8473 1060.22 Q-30.8473 1067.32 -29.0418 1070.89 Q-27.2131 1074.43 -23.602 1074.43 Q-19.9677 1074.43 -18.1622 1070.89 Q-16.3335 1067.32 -16.3335 1060.22 Q-16.3335 1053.09 -18.1622 1049.55 Q-19.9677 1045.98 -23.602 1045.98 M-23.602 1042.28 Q-17.7918 1042.28 -14.7363 1046.88 Q-11.6576 1051.47 -11.6576 1060.22 Q-11.6576 1068.94 -14.7363 1073.55 Q-17.7918 1078.13 -23.602 1078.13 Q-29.4121 1078.13 -32.4908 1073.55 Q-35.5464 1068.94 -35.5464 1060.22 Q-35.5464 1051.47 -32.4908 1046.88 Q-29.4121 1042.28 -23.602 1042.28 Z" fill="#000000" fill-rule="nonzero" fill-opacity="1" /><path clip-path="url(#clip850)" d="M-3.44004 1071.58 L1.44419 1071.58 L1.44419 1077.46 L-3.44004 1077.46 L-3.44004 1071.58 Z" fill="#000000" fill-rule="nonzero" fill-opacity="1" /><path clip-path="url(#clip850)" d="M10.4488 1042.9 L32.6709 1042.9 L32.6709 1044.89 L20.1246 1077.46 L15.2404 1077.46 L27.0459 1046.84 L10.4488 1046.84 L10.4488 1042.9 Z" fill="#000000" fill-rule="nonzero" fill-opacity="1" /><path clip-path="url(#clip850)" d="M41.8375 1042.9 L60.1939 1042.9 L60.1939 1046.84 L46.1199 1046.84 L46.1199 1055.31 Q47.1384 1054.96 48.1569 1054.8 Q49.1754 1054.61 50.1939 1054.61 Q55.9809 1054.61 59.3605 1057.79 Q62.7402 1060.96 62.7402 1066.37 Q62.7402 1071.95 59.268 1075.05 Q55.7958 1078.13 49.4763 1078.13 Q47.3004 1078.13 45.0319 1077.76 Q42.7866 1077.39 40.3792 1076.65 L40.3792 1071.95 Q42.4625 1073.09 44.6847 1073.64 Q46.9069 1074.2 49.3837 1074.2 Q53.3884 1074.2 55.7263 1072.09 Q58.0643 1069.98 58.0643 1066.37 Q58.0643 1062.76 55.7263 1060.66 Q53.3884 1058.55 49.3837 1058.55 Q47.5088 1058.55 45.6338 1058.97 Q43.7819 1059.38 41.8375 1060.26 L41.8375 1042.9 Z" fill="#000000" fill-rule="nonzero" fill-opacity="1" /><path clip-path="url(#clip850)" d="M-33.7871 694.221 L-26.1483 694.221 L-26.1483 667.856 L-34.4584 669.523 L-34.4584 665.263 L-26.1946 663.597 L-21.5187 663.597 L-21.5187 694.221 L-13.8798 694.221 L-13.8798 698.157 L-33.7871 698.157 L-33.7871 694.221 Z" fill="#000000" fill-rule="nonzero" fill-opacity="1" /><path clip-path="url(#clip850)" d="M-4.43541 692.277 L0.448825 692.277 L0.448825 698.157 L-4.43541 698.157 L-4.43541 692.277 Z" fill="#000000" fill-rule="nonzero" fill-opacity="1" /><path clip-path="url(#clip850)" d="M20.6339 666.675 Q17.0228 666.675 15.1941 670.24 Q13.3886 673.782 13.3886 680.911 Q13.3886 688.018 15.1941 691.583 Q17.0228 695.124 20.6339 695.124 Q24.2681 695.124 26.0737 691.583 Q27.9024 688.018 27.9024 680.911 Q27.9024 673.782 26.0737 670.24 Q24.2681 666.675 20.6339 666.675 M20.6339 662.972 Q26.4441 662.972 29.4996 667.578 Q32.5783 672.161 32.5783 680.911 Q32.5783 689.638 29.4996 694.245 Q26.4441 698.828 20.6339 698.828 Q14.8237 698.828 11.7451 694.245 Q8.68952 689.638 8.68952 680.911 Q8.68952 672.161 11.7451 667.578 Q14.8237 662.972 20.6339 662.972 Z" fill="#000000" fill-rule="nonzero" fill-opacity="1" /><path clip-path="url(#clip850)" d="M50.7958 666.675 Q47.1847 666.675 45.356 670.24 Q43.5504 673.782 43.5504 680.911 Q43.5504 688.018 45.356 691.583 Q47.1847 695.124 50.7958 695.124 Q54.43 695.124 56.2356 691.583 Q58.0643 688.018 58.0643 680.911 Q58.0643 673.782 56.2356 670.24 Q54.43 666.675 50.7958 666.675 M50.7958 662.972 Q56.6059 662.972 59.6615 667.578 Q62.7402 672.161 62.7402 680.911 Q62.7402 689.638 59.6615 694.245 Q56.6059 698.828 50.7958 698.828 Q44.9856 698.828 41.9069 694.245 Q38.8514 689.638 38.8514 680.911 Q38.8514 672.161 41.9069 667.578 Q44.9856 662.972 50.7958 662.972 Z" fill="#000000" fill-rule="nonzero" fill-opacity="1" /><path clip-path="url(#clip850)" d="M-32.7917 314.916 L-25.1529 314.916 L-25.1529 288.551 L-33.463 290.218 L-33.463 285.958 L-25.1992 284.292 L-20.5233 284.292 L-20.5233 314.916 L-12.8844 314.916 L-12.8844 318.852 L-32.7917 318.852 L-32.7917 314.916 Z" fill="#000000" fill-rule="nonzero" fill-opacity="1" /><path clip-path="url(#clip850)" d="M-3.44004 312.972 L1.44419 312.972 L1.44419 318.852 L-3.44004 318.852 L-3.44004 312.972 Z" fill="#000000" fill-rule="nonzero" fill-opacity="1" /><path clip-path="url(#clip850)" d="M15.6571 314.916 L31.9764 314.916 L31.9764 318.852 L10.0321 318.852 L10.0321 314.916 Q12.6941 312.162 17.2774 307.532 Q21.8839 302.88 23.0644 301.537 Q25.3098 299.014 26.1894 297.278 Q27.0922 295.518 27.0922 293.829 Q27.0922 291.074 25.1478 289.338 Q23.2265 287.602 20.1246 287.602 Q17.9256 287.602 15.4719 288.366 Q13.0413 289.13 10.2636 290.681 L10.2636 285.958 Q13.0876 284.824 15.5413 284.245 Q17.995 283.667 20.0321 283.667 Q25.4024 283.667 28.5968 286.352 Q31.7912 289.037 31.7912 293.528 Q31.7912 295.657 30.9811 297.579 Q30.194 299.477 28.0876 302.069 Q27.5089 302.741 24.407 305.958 Q21.3052 309.153 15.6571 314.916 Z" fill="#000000" fill-rule="nonzero" fill-opacity="1" /><path clip-path="url(#clip850)" d="M41.8375 284.292 L60.1939 284.292 L60.1939 288.227 L46.1199 288.227 L46.1199 296.699 Q47.1384 296.352 48.1569 296.19 Q49.1754 296.005 50.1939 296.005 Q55.9809 296.005 59.3605 299.176 Q62.7402 302.347 62.7402 307.764 Q62.7402 313.342 59.268 316.444 Q55.7958 319.523 49.4763 319.523 Q47.3004 319.523 45.0319 319.153 Q42.7866 318.782 40.3792 318.041 L40.3792 313.342 Q42.4625 314.477 44.6847 315.032 Q46.9069 315.588 49.3837 315.588 Q53.3884 315.588 55.7263 313.481 Q58.0643 311.375 58.0643 307.764 Q58.0643 304.153 55.7263 302.046 Q53.3884 299.94 49.3837 299.94 Q47.5088 299.94 45.6338 300.356 Q43.7819 300.773 41.8375 301.653 L41.8375 284.292 Z" fill="#000000" fill-rule="nonzero" fill-opacity="1" /><path clip-path="url(#clip850)" d="M-142.657 1242.09 L-135.878 1242.09 Q-138.902 1245.34 -140.398 1249.03 Q-141.894 1252.69 -141.894 1256.83 Q-141.894 1264.97 -136.896 1269.3 Q-131.931 1273.63 -122.51 1273.63 Q-113.121 1273.63 -108.123 1269.3 Q-103.158 1264.97 -103.158 1256.83 Q-103.158 1252.69 -104.654 1249.03 Q-106.15 1245.34 -109.174 1242.09 L-102.458 1242.09 Q-100.166 1245.46 -99.0205 1249.25 Q-97.8747 1253.01 -97.8747 1257.21 Q-97.8747 1268 -104.463 1274.2 Q-111.084 1280.41 -122.51 1280.41 Q-133.968 1280.41 -140.557 1274.2 Q-147.177 1268 -147.177 1257.21 Q-147.177 1252.94 -146.031 1249.19 Q-144.917 1245.4 -142.657 1242.09 Z" fill="#000000" fill-rule="nonzero" fill-opacity="1" /><path clip-path="url(#clip850)" d="M-128.971 1211.76 Q-129.544 1212.74 -129.799 1213.92 Q-130.085 1215.07 -130.085 1216.47 Q-130.085 1221.43 -126.839 1224.11 Q-123.624 1226.75 -117.577 1226.75 L-98.7977 1226.75 L-98.7977 1232.64 L-134.446 1232.64 L-134.446 1226.75 L-128.908 1226.75 Q-132.154 1224.9 -133.714 1221.94 Q-135.305 1218.98 -135.305 1214.75 Q-135.305 1214.14 -135.21 1213.41 Q-135.146 1212.68 -134.987 1211.79 L-128.971 1211.76 Z" fill="#000000" fill-rule="nonzero" fill-opacity="1" /><path clip-path="url(#clip850)" d="M-130.34 1193.23 Q-130.34 1197.94 -126.648 1200.68 Q-122.987 1203.42 -116.59 1203.42 Q-110.192 1203.42 -106.5 1200.71 Q-102.84 1197.97 -102.84 1193.23 Q-102.84 1188.55 -106.532 1185.82 Q-110.224 1183.08 -116.59 1183.08 Q-122.924 1183.08 -126.616 1185.82 Q-130.34 1188.55 -130.34 1193.23 M-135.305 1193.23 Q-135.305 1185.59 -130.34 1181.23 Q-125.375 1176.87 -116.59 1176.87 Q-107.837 1176.87 -102.84 1181.23 Q-97.8747 1185.59 -97.8747 1193.23 Q-97.8747 1200.9 -102.84 1205.26 Q-107.837 1209.59 -116.59 1209.59 Q-125.375 1209.59 -130.34 1205.26 Q-135.305 1200.9 -135.305 1193.23 Z" fill="#000000" fill-rule="nonzero" fill-opacity="1" /><path clip-path="url(#clip850)" d="M-133.395 1144.44 L-127.857 1144.44 Q-129.13 1146.92 -129.767 1149.6 Q-130.403 1152.27 -130.403 1155.13 Q-130.403 1159.49 -129.067 1161.69 Q-127.73 1163.85 -125.056 1163.85 Q-123.019 1163.85 -121.842 1162.29 Q-120.696 1160.74 -119.645 1156.02 L-119.2 1154.02 Q-117.863 1147.78 -115.412 1145.17 Q-112.993 1142.53 -108.633 1142.53 Q-103.667 1142.53 -100.771 1146.48 Q-97.8747 1150.39 -97.8747 1157.27 Q-97.8747 1160.13 -98.4476 1163.25 Q-98.9887 1166.34 -100.103 1169.77 L-106.15 1169.77 Q-104.463 1166.53 -103.604 1163.38 Q-102.776 1160.23 -102.776 1157.14 Q-102.776 1153 -104.177 1150.77 Q-105.609 1148.55 -108.187 1148.55 Q-110.574 1148.55 -111.847 1150.17 Q-113.121 1151.76 -114.298 1157.2 L-114.776 1159.24 Q-115.921 1164.68 -118.277 1167.1 Q-120.664 1169.52 -124.802 1169.52 Q-129.831 1169.52 -132.568 1165.96 Q-135.305 1162.39 -135.305 1155.83 Q-135.305 1152.59 -134.828 1149.72 Q-134.35 1146.86 -133.395 1144.44 Z" fill="#000000" fill-rule="nonzero" fill-opacity="1" /><path clip-path="url(#clip850)" d="M-133.395 1110.48 L-127.857 1110.48 Q-129.13 1112.96 -129.767 1115.63 Q-130.403 1118.31 -130.403 1121.17 Q-130.403 1125.53 -129.067 1127.73 Q-127.73 1129.89 -125.056 1129.89 Q-123.019 1129.89 -121.842 1128.33 Q-120.696 1126.77 -119.645 1122.06 L-119.2 1120.06 Q-117.863 1113.82 -115.412 1111.21 Q-112.993 1108.57 -108.633 1108.57 Q-103.667 1108.57 -100.771 1112.52 Q-97.8747 1116.43 -97.8747 1123.3 Q-97.8747 1126.17 -98.4476 1129.29 Q-98.9887 1132.38 -100.103 1135.81 L-106.15 1135.81 Q-104.463 1132.57 -103.604 1129.42 Q-102.776 1126.27 -102.776 1123.18 Q-102.776 1119.04 -104.177 1116.81 Q-105.609 1114.58 -108.187 1114.58 Q-110.574 1114.58 -111.847 1116.21 Q-113.121 1117.8 -114.298 1123.24 L-114.776 1125.28 Q-115.921 1130.72 -118.277 1133.14 Q-120.664 1135.56 -124.802 1135.56 Q-129.831 1135.56 -132.568 1131.99 Q-135.305 1128.43 -135.305 1121.87 Q-135.305 1118.63 -134.828 1115.76 Q-134.35 1112.9 -133.395 1110.48 Z" fill="#000000" fill-rule="nonzero" fill-opacity="1" /><path clip-path="url(#clip850)" d="M-119.263 1102.2 L-119.263 1085.05 L-114.044 1085.05 L-114.044 1102.2 L-119.263 1102.2 Z" fill="#000000" fill-rule="nonzero" fill-opacity="1" /><path clip-path="url(#clip850)" d="M-146.318 1075.47 L-146.318 1045.42 L-140.907 1045.42 L-140.907 1069.04 L-126.839 1069.04 L-126.839 1046.41 L-121.428 1046.41 L-121.428 1069.04 L-104.209 1069.04 L-104.209 1044.85 L-98.7977 1044.85 L-98.7977 1075.47 L-146.318 1075.47 Z" fill="#000000" fill-rule="nonzero" fill-opacity="1" /><path clip-path="url(#clip850)" d="M-120.314 1004.9 L-98.7977 1004.9 L-98.7977 1010.76 L-120.123 1010.76 Q-125.184 1010.76 -127.698 1012.73 Q-130.212 1014.71 -130.212 1018.65 Q-130.212 1023.4 -127.189 1026.13 Q-124.165 1028.87 -118.945 1028.87 L-98.7977 1028.87 L-98.7977 1034.76 L-134.446 1034.76 L-134.446 1028.87 L-128.908 1028.87 Q-132.122 1026.77 -133.714 1023.94 Q-135.305 1021.07 -135.305 1017.35 Q-135.305 1011.2 -131.486 1008.05 Q-127.698 1004.9 -120.314 1004.9 Z" fill="#000000" fill-rule="nonzero" fill-opacity="1" /><path clip-path="url(#clip850)" d="M-144.567 987.429 L-134.446 987.429 L-134.446 975.366 L-129.894 975.366 L-129.894 987.429 L-110.542 987.429 Q-106.182 987.429 -104.941 986.251 Q-103.699 985.042 -103.699 981.382 L-103.699 975.366 L-98.7977 975.366 L-98.7977 981.382 Q-98.7977 988.161 -101.312 990.739 Q-103.858 993.317 -110.542 993.317 L-129.894 993.317 L-129.894 997.614 L-134.446 997.614 L-134.446 993.317 L-144.567 993.317 L-144.567 987.429 Z" fill="#000000" fill-rule="nonzero" fill-opacity="1" /><path clip-path="url(#clip850)" d="M-128.971 947.007 Q-129.544 947.993 -129.799 949.171 Q-130.085 950.317 -130.085 951.717 Q-130.085 956.683 -126.839 959.356 Q-123.624 961.998 -117.577 961.998 L-98.7977 961.998 L-98.7977 967.886 L-134.446 967.886 L-134.446 961.998 L-128.908 961.998 Q-132.154 960.152 -133.714 957.192 Q-135.305 954.232 -135.305 949.999 Q-135.305 949.394 -135.21 948.662 Q-135.146 947.93 -134.987 947.039 L-128.971 947.007 Z" fill="#000000" fill-rule="nonzero" fill-opacity="1" /><path clip-path="url(#clip850)" d="M-130.34 928.483 Q-130.34 933.193 -126.648 935.93 Q-122.987 938.668 -116.59 938.668 Q-110.192 938.668 -106.5 935.962 Q-102.84 933.225 -102.84 928.483 Q-102.84 923.804 -106.532 921.066 Q-110.224 918.329 -116.59 918.329 Q-122.924 918.329 -126.616 921.066 Q-130.34 923.804 -130.34 928.483 M-135.305 928.483 Q-135.305 920.844 -130.34 916.483 Q-125.375 912.123 -116.59 912.123 Q-107.837 912.123 -102.84 916.483 Q-97.8747 920.844 -97.8747 928.483 Q-97.8747 936.153 -102.84 940.514 Q-107.837 944.842 -116.59 944.842 Q-125.375 944.842 -130.34 940.514 Q-135.305 936.153 -135.305 928.483 Z" fill="#000000" fill-rule="nonzero" fill-opacity="1" /><path clip-path="url(#clip850)" d="M-104.145 896.749 L-85.2388 896.749 L-85.2388 902.638 L-134.446 902.638 L-134.446 896.749 L-129.035 896.749 Q-132.218 894.903 -133.745 892.103 Q-135.305 889.27 -135.305 885.355 Q-135.305 878.862 -130.149 874.82 Q-124.993 870.746 -116.59 870.746 Q-108.187 870.746 -103.031 874.82 Q-97.8747 878.862 -97.8747 885.355 Q-97.8747 889.27 -99.4025 892.103 Q-100.962 894.903 -104.145 896.749 M-116.59 876.825 Q-123.051 876.825 -126.711 879.498 Q-130.403 882.14 -130.403 886.787 Q-130.403 891.434 -126.711 894.108 Q-123.051 896.749 -116.59 896.749 Q-110.129 896.749 -106.437 894.108 Q-102.776 891.434 -102.776 886.787 Q-102.776 882.14 -106.437 879.498 Q-110.129 876.825 -116.59 876.825 Z" fill="#000000" fill-rule="nonzero" fill-opacity="1" /><path clip-path="url(#clip850)" d="M-95.4876 846.206 Q-89.1218 848.688 -87.1803 851.044 Q-85.2388 853.399 -85.2388 857.346 L-85.2388 862.025 L-90.1404 862.025 L-90.1404 858.587 Q-90.1404 856.168 -91.2862 854.831 Q-92.432 853.495 -96.697 851.871 L-99.3706 850.821 L-134.446 865.239 L-134.446 859.033 L-106.564 847.893 L-134.446 836.753 L-134.446 830.546 L-95.4876 846.206 Z" fill="#000000" fill-rule="nonzero" fill-opacity="1" /><path clip-path="url(#clip850)" d="M-146.318 801.487 L-146.318 795.057 L-104.209 795.057 L-104.209 771.918 L-98.7977 771.918 L-98.7977 801.487 L-146.318 801.487 Z" fill="#000000" fill-rule="nonzero" fill-opacity="1" /><path clip-path="url(#clip850)" d="M-130.34 752.757 Q-130.34 757.468 -126.648 760.205 Q-122.987 762.942 -116.59 762.942 Q-110.192 762.942 -106.5 760.237 Q-102.84 757.5 -102.84 752.757 Q-102.84 748.078 -106.532 745.341 Q-110.224 742.604 -116.59 742.604 Q-122.924 742.604 -126.616 745.341 Q-130.34 748.078 -130.34 752.757 M-135.305 752.757 Q-135.305 745.118 -130.34 740.758 Q-125.375 736.397 -116.59 736.397 Q-107.837 736.397 -102.84 740.758 Q-97.8747 745.118 -97.8747 752.757 Q-97.8747 760.428 -102.84 764.788 Q-107.837 769.117 -116.59 769.117 Q-125.375 769.117 -130.34 764.788 Q-135.305 760.428 -135.305 752.757 Z" fill="#000000" fill-rule="nonzero" fill-opacity="1" /><path clip-path="url(#clip850)" d="M-133.395 703.964 L-127.857 703.964 Q-129.13 706.447 -129.767 709.12 Q-130.403 711.794 -130.403 714.658 Q-130.403 719.019 -129.067 721.215 Q-127.73 723.379 -125.056 723.379 Q-123.019 723.379 -121.842 721.82 Q-120.696 720.26 -119.645 715.55 L-119.2 713.544 Q-117.863 707.306 -115.412 704.696 Q-112.993 702.054 -108.633 702.054 Q-103.667 702.054 -100.771 706.001 Q-97.8747 709.916 -97.8747 716.791 Q-97.8747 719.656 -98.4476 722.775 Q-98.9887 725.862 -100.103 729.3 L-106.15 729.3 Q-104.463 726.053 -103.604 722.902 Q-102.776 719.751 -102.776 716.664 Q-102.776 712.526 -104.177 710.298 Q-105.609 708.07 -108.187 708.07 Q-110.574 708.07 -111.847 709.693 Q-113.121 711.285 -114.298 716.727 L-114.776 718.764 Q-115.921 724.207 -118.277 726.626 Q-120.664 729.045 -124.802 729.045 Q-129.831 729.045 -132.568 725.48 Q-135.305 721.915 -135.305 715.359 Q-135.305 712.112 -134.828 709.248 Q-134.35 706.383 -133.395 703.964 Z" fill="#000000" fill-rule="nonzero" fill-opacity="1" /><path clip-path="url(#clip850)" d="M-133.395 670.003 L-127.857 670.003 Q-129.13 672.486 -129.767 675.159 Q-130.403 677.833 -130.403 680.697 Q-130.403 685.058 -129.067 687.254 Q-127.73 689.418 -125.056 689.418 Q-123.019 689.418 -121.842 687.859 Q-120.696 686.299 -119.645 681.589 L-119.2 679.583 Q-117.863 673.345 -115.412 670.735 Q-112.993 668.093 -108.633 668.093 Q-103.667 668.093 -100.771 672.04 Q-97.8747 675.955 -97.8747 682.83 Q-97.8747 685.694 -98.4476 688.814 Q-98.9887 691.901 -100.103 695.339 L-106.15 695.339 Q-104.463 692.092 -103.604 688.941 Q-102.776 685.79 -102.776 682.703 Q-102.776 678.565 -104.177 676.337 Q-105.609 674.109 -108.187 674.109 Q-110.574 674.109 -111.847 675.732 Q-113.121 677.324 -114.298 682.766 L-114.776 684.803 Q-115.921 690.246 -118.277 692.665 Q-120.664 695.084 -124.802 695.084 Q-129.831 695.084 -132.568 691.519 Q-135.305 687.954 -135.305 681.398 Q-135.305 678.151 -134.828 675.287 Q-134.35 672.422 -133.395 670.003 Z" fill="#000000" fill-rule="nonzero" fill-opacity="1" /><polyline clip-path="url(#clip852)" style="stroke:#009af9; stroke-linecap:round; stroke-linejoin:round; stroke-width:4; stroke-opacity:1; fill:none" points="196.835,99.7162 208.36,121.396 219.886,142.836 231.411,164.038 242.937,185.004 254.462,205.735 265.987,226.232 277.513,246.498 289.038,266.533 300.564,286.34 312.089,305.919 323.614,325.274 335.14,344.405 346.665,363.314 358.191,382.003 369.716,400.474 381.241,418.728 392.767,436.768 404.292,454.594 415.818,472.21 427.343,489.616 438.868,506.814 450.394,523.807 461.919,540.596 473.445,557.183 484.97,573.571 496.496,589.76 508.021,605.753 519.546,621.551 531.072,637.157 542.597,652.573 554.123,667.8 565.648,682.84 577.173,697.696 588.699,712.369 600.224,726.861 611.75,741.174 623.275,755.31 634.8,769.271 646.326,783.059 657.851,796.675 669.377,810.122 680.902,823.402 692.427,836.516 703.953,849.467 715.478,862.256 727.004,874.885 738.529,887.357 750.054,899.672 761.58,911.833 773.105,923.841 784.631,935.7 796.156,947.409 807.681,958.972 819.207,970.39 830.732,981.664 842.258,992.797 853.783,1003.79 865.309,1014.65 876.834,1025.37 888.359,1035.95 899.885,1046.4 911.41,1056.72 922.936,1066.92 934.461,1076.98 945.986,1086.92 957.512,1096.74 969.037,1106.43 980.563,1116 992.088,1125.45 1003.61,1134.78 1015.14,1144 1026.66,1153.11 1038.19,1162.1 1049.72,1170.97 1061.24,1179.74 1072.77,1188.4 1084.29,1196.96 1095.82,1205.4 1107.34,1213.75 1118.87,1221.99 1130.39,1230.13 1141.92,1238.17 1153.44,1246.11 1164.97,1253.95 1176.49,1261.7 1188.02,1269.35 1199.55,1276.91 1211.07,1284.38 1222.6,1291.76 1234.12,1299.05 1245.65,1306.25 1257.17,1313.36 1268.7,1320.39 1280.22,1327.33 1291.75,1334.19 1303.27,1340.97 1314.8,1347.67 1326.32,1354.29 1337.85,1360.83 1349.38,1367.29 1360.9,1373.67 1372.43,1379.98 1383.95,1386.22 1395.48,1392.38 1407,1398.47 1418.53,1404.49 1430.05,1410.44 1441.58,1416.32 1453.1,1422.13 1464.63,1427.87 1476.16,1433.55 1487.68,1439.16 1499.21,1444.71 1510.73,1450.19 1522.26,1455.61 1533.78,1460.97 1545.31,1466.27 1556.83,1471.51 1568.36,1476.69 1579.88,1481.81 1591.41,1486.87 1602.93,1491.88 1614.46,1496.83 1625.99,1501.72 1637.51,1506.56 1649.04,1511.35 1660.56,1516.08 1672.09,1520.77 1683.61,1525.4 1695.14,1529.98 1706.66,1534.51 1718.19,1538.99 1729.71,1543.42 1741.24,1547.8 1752.76,1552.14 1764.29,1556.43 1775.82,1560.67 1787.34,1564.87 1798.87,1569.02 1810.39,1573.13 1821.92,1577.19 1833.44,1581.21 1844.97,1585.19 1856.49,1589.13 1868.02,1593.03 1879.54,1596.88 1891.07,1600.7 1902.6,1604.48 1914.12,1608.21 1925.65,1611.91 1937.17,1615.57 1948.7,1619.19 1960.22,1622.78 1971.75,1626.33 1983.27,1629.84 1994.8,1633.32 2006.32,1636.76 2017.85,1640.17 2029.37,1643.54 2040.9,1646.88 2052.43,1650.19 2063.95,1653.46 2075.48,1656.7 2087,1659.91 2098.53,1663.09 2110.05,1666.23 2121.58,1669.35 2133.1,1672.43 2144.63,1675.49 2156.15,1678.51 2167.68,1681.51 2179.2,1684.48 2190.73,1687.41 2202.26,1690.32 2213.78,1693.21 2225.31,1696.06 2236.83,1698.89 2248.36,1701.69 2259.88,1704.47 2271.41,1707.22 2282.93,1709.94 2294.46,1712.64 2305.98,1715.31 2317.51,1717.96 2329.04,1720.58 2340.56,1723.18 2352.09,1725.76 2363.61,1728.31 2375.14,1730.84 2386.66,1733.34 2398.19,1735.83 2409.71,1738.29 2421.24,1740.72 2432.76,1743.14 2444.29,1745.54 2455.81,1747.91 2467.34,1750.26 2478.87,1752.59 2490.39,1754.9 2501.92,1757.19 2513.44,1759.46 2524.97,1761.71 2536.49,1763.95 2548.02,1766.16 2559.54,1768.35 2571.07,1770.52 2582.59,1772.68 2594.12,1774.81 2605.64,1776.93 2617.17,1779.03 2628.7,1781.11 2640.22,1783.18 2651.75,1785.22 2663.27,1787.25 2674.8,1789.26 2686.32,1791.26 2697.85,1793.24 2709.37,1795.2 2720.9,1797.15 2732.42,1799.08 2743.95,1800.99 2755.48,1802.89 2767,1804.77 2778.53,1806.64 2790.05,1808.49 2801.58,1810.33 2813.1,1812.15 2824.63,1813.96 2836.15,1815.75 2847.68,1817.53 2859.2,1819.29 2870.73,1821.04 2882.25,1822.78 2893.78,1824.5 2905.31,1826.21 2916.83,1827.91 2928.36,1829.59 2939.88,1831.26 2951.41,1832.91 2962.93,1834.56 2974.46,1836.19 2985.98,1837.81 2997.51,1839.41 3009.03,1841 3020.56,1842.58 3032.08,1844.15 3043.61,1845.71 3055.14,1847.25 3066.66,1848.79 "/>
</svg>
