<?xml version="1.0" encoding="utf-8"?>
<svg xmlns="http://www.w3.org/2000/svg" xmlns:xlink="http://www.w3.org/1999/xlink" width="600" height="400" viewBox="0 0 2400 1600">
<defs>
  <clipPath id="clip890">
    <rect x="0" y="0" width="2400" height="1600"/>
  </clipPath>
</defs>
<path clip-path="url(#clip890)" d="M0 1600 L2400 1600 L2400 0 L0 0  Z" fill="#ffffff" fill-rule="evenodd" fill-opacity="1"/>
<defs>
  <clipPath id="clip891">
    <rect x="480" y="0" width="1681" height="1600"/>
  </clipPath>
</defs>
<path clip-path="url(#clip890)" d="M102.74 1505.26 L2352.76 1505.26 L2352.76 47.2441 L102.74 47.2441  Z" fill="#ffffff" fill-rule="evenodd" fill-opacity="1"/>
<defs>
  <clipPath id="clip892">
    <rect x="102" y="47" width="2251" height="1459"/>
  </clipPath>
</defs>
<polyline clip-path="url(#clip892)" style="stroke:#000000; stroke-linecap:round; stroke-linejoin:round; stroke-width:2; stroke-opacity:0.1; fill:none" points="166.42,1505.26 166.42,47.2441 "/>
<polyline clip-path="url(#clip892)" style="stroke:#000000; stroke-linecap:round; stroke-linejoin:round; stroke-width:2; stroke-opacity:0.1; fill:none" points="697.084,1505.26 697.084,47.2441 "/>
<polyline clip-path="url(#clip892)" style="stroke:#000000; stroke-linecap:round; stroke-linejoin:round; stroke-width:2; stroke-opacity:0.1; fill:none" points="1227.75,1505.26 1227.75,47.2441 "/>
<polyline clip-path="url(#clip892)" style="stroke:#000000; stroke-linecap:round; stroke-linejoin:round; stroke-width:2; stroke-opacity:0.1; fill:none" points="1758.41,1505.26 1758.41,47.2441 "/>
<polyline clip-path="url(#clip892)" style="stroke:#000000; stroke-linecap:round; stroke-linejoin:round; stroke-width:2; stroke-opacity:0.1; fill:none" points="2289.08,1505.26 2289.08,47.2441 "/>
<polyline clip-path="url(#clip892)" style="stroke:#000000; stroke-linecap:round; stroke-linejoin:round; stroke-width:2; stroke-opacity:0.05; fill:none" points="272.553,1505.26 272.553,47.2441 "/>
<polyline clip-path="url(#clip892)" style="stroke:#000000; stroke-linecap:round; stroke-linejoin:round; stroke-width:2; stroke-opacity:0.05; fill:none" points="378.685,1505.26 378.685,47.2441 "/>
<polyline clip-path="url(#clip892)" style="stroke:#000000; stroke-linecap:round; stroke-linejoin:round; stroke-width:2; stroke-opacity:0.05; fill:none" points="484.818,1505.26 484.818,47.2441 "/>
<polyline clip-path="url(#clip892)" style="stroke:#000000; stroke-linecap:round; stroke-linejoin:round; stroke-width:2; stroke-opacity:0.05; fill:none" points="590.951,1505.26 590.951,47.2441 "/>
<polyline clip-path="url(#clip892)" style="stroke:#000000; stroke-linecap:round; stroke-linejoin:round; stroke-width:2; stroke-opacity:0.05; fill:none" points="803.217,1505.26 803.217,47.2441 "/>
<polyline clip-path="url(#clip892)" style="stroke:#000000; stroke-linecap:round; stroke-linejoin:round; stroke-width:2; stroke-opacity:0.05; fill:none" points="909.35,1505.26 909.35,47.2441 "/>
<polyline clip-path="url(#clip892)" style="stroke:#000000; stroke-linecap:round; stroke-linejoin:round; stroke-width:2; stroke-opacity:0.05; fill:none" points="1015.48,1505.26 1015.48,47.2441 "/>
<polyline clip-path="url(#clip892)" style="stroke:#000000; stroke-linecap:round; stroke-linejoin:round; stroke-width:2; stroke-opacity:0.05; fill:none" points="1121.62,1505.26 1121.62,47.2441 "/>
<polyline clip-path="url(#clip892)" style="stroke:#000000; stroke-linecap:round; stroke-linejoin:round; stroke-width:2; stroke-opacity:0.05; fill:none" points="1333.88,1505.26 1333.88,47.2441 "/>
<polyline clip-path="url(#clip892)" style="stroke:#000000; stroke-linecap:round; stroke-linejoin:round; stroke-width:2; stroke-opacity:0.05; fill:none" points="1440.01,1505.26 1440.01,47.2441 "/>
<polyline clip-path="url(#clip892)" style="stroke:#000000; stroke-linecap:round; stroke-linejoin:round; stroke-width:2; stroke-opacity:0.05; fill:none" points="1546.15,1505.26 1546.15,47.2441 "/>
<polyline clip-path="url(#clip892)" style="stroke:#000000; stroke-linecap:round; stroke-linejoin:round; stroke-width:2; stroke-opacity:0.05; fill:none" points="1652.28,1505.26 1652.28,47.2441 "/>
<polyline clip-path="url(#clip892)" style="stroke:#000000; stroke-linecap:round; stroke-linejoin:round; stroke-width:2; stroke-opacity:0.05; fill:none" points="1864.54,1505.26 1864.54,47.2441 "/>
<polyline clip-path="url(#clip892)" style="stroke:#000000; stroke-linecap:round; stroke-linejoin:round; stroke-width:2; stroke-opacity:0.05; fill:none" points="1970.68,1505.26 1970.68,47.2441 "/>
<polyline clip-path="url(#clip892)" style="stroke:#000000; stroke-linecap:round; stroke-linejoin:round; stroke-width:2; stroke-opacity:0.05; fill:none" points="2076.81,1505.26 2076.81,47.2441 "/>
<polyline clip-path="url(#clip892)" style="stroke:#000000; stroke-linecap:round; stroke-linejoin:round; stroke-width:2; stroke-opacity:0.05; fill:none" points="2182.94,1505.26 2182.94,47.2441 "/>
<polyline clip-path="url(#clip890)" style="stroke:#000000; stroke-linecap:round; stroke-linejoin:round; stroke-width:4; stroke-opacity:1; fill:none" points="102.74,1505.26 2352.76,1505.26 "/>
<polyline clip-path="url(#clip890)" style="stroke:#000000; stroke-linecap:round; stroke-linejoin:round; stroke-width:4; stroke-opacity:1; fill:none" points="166.42,1505.26 166.42,1486.36 "/>
<polyline clip-path="url(#clip890)" style="stroke:#000000; stroke-linecap:round; stroke-linejoin:round; stroke-width:4; stroke-opacity:1; fill:none" points="697.084,1505.26 697.084,1486.36 "/>
<polyline clip-path="url(#clip890)" style="stroke:#000000; stroke-linecap:round; stroke-linejoin:round; stroke-width:4; stroke-opacity:1; fill:none" points="1227.75,1505.26 1227.75,1486.36 "/>
<polyline clip-path="url(#clip890)" style="stroke:#000000; stroke-linecap:round; stroke-linejoin:round; stroke-width:4; stroke-opacity:1; fill:none" points="1758.41,1505.26 1758.41,1486.36 "/>
<polyline clip-path="url(#clip890)" style="stroke:#000000; stroke-linecap:round; stroke-linejoin:round; stroke-width:4; stroke-opacity:1; fill:none" points="2289.08,1505.26 2289.08,1486.36 "/>
<polyline clip-path="url(#clip890)" style="stroke:#000000; stroke-linecap:round; stroke-linejoin:round; stroke-width:4; stroke-opacity:1; fill:none" points="272.553,1505.26 272.553,1495.81 "/>
<polyline clip-path="url(#clip890)" style="stroke:#000000; stroke-linecap:round; stroke-linejoin:round; stroke-width:4; stroke-opacity:1; fill:none" points="378.685,1505.26 378.685,1495.81 "/>
<polyline clip-path="url(#clip890)" style="stroke:#000000; stroke-linecap:round; stroke-linejoin:round; stroke-width:4; stroke-opacity:1; fill:none" points="484.818,1505.26 484.818,1495.81 "/>
<polyline clip-path="url(#clip890)" style="stroke:#000000; stroke-linecap:round; stroke-linejoin:round; stroke-width:4; stroke-opacity:1; fill:none" points="590.951,1505.26 590.951,1495.81 "/>
<polyline clip-path="url(#clip890)" style="stroke:#000000; stroke-linecap:round; stroke-linejoin:round; stroke-width:4; stroke-opacity:1; fill:none" points="803.217,1505.26 803.217,1495.81 "/>
<polyline clip-path="url(#clip890)" style="stroke:#000000; stroke-linecap:round; stroke-linejoin:round; stroke-width:4; stroke-opacity:1; fill:none" points="909.35,1505.26 909.35,1495.81 "/>
<polyline clip-path="url(#clip890)" style="stroke:#000000; stroke-linecap:round; stroke-linejoin:round; stroke-width:4; stroke-opacity:1; fill:none" points="1015.48,1505.26 1015.48,1495.81 "/>
<polyline clip-path="url(#clip890)" style="stroke:#000000; stroke-linecap:round; stroke-linejoin:round; stroke-width:4; stroke-opacity:1; fill:none" points="1121.62,1505.26 1121.62,1495.81 "/>
<polyline clip-path="url(#clip890)" style="stroke:#000000; stroke-linecap:round; stroke-linejoin:round; stroke-width:4; stroke-opacity:1; fill:none" points="1333.88,1505.26 1333.88,1495.81 "/>
<polyline clip-path="url(#clip890)" style="stroke:#000000; stroke-linecap:round; stroke-linejoin:round; stroke-width:4; stroke-opacity:1; fill:none" points="1440.01,1505.26 1440.01,1495.81 "/>
<polyline clip-path="url(#clip890)" style="stroke:#000000; stroke-linecap:round; stroke-linejoin:round; stroke-width:4; stroke-opacity:1; fill:none" points="1546.15,1505.26 1546.15,1495.81 "/>
<polyline clip-path="url(#clip890)" style="stroke:#000000; stroke-linecap:round; stroke-linejoin:round; stroke-width:4; stroke-opacity:1; fill:none" points="1652.28,1505.26 1652.28,1495.81 "/>
<polyline clip-path="url(#clip890)" style="stroke:#000000; stroke-linecap:round; stroke-linejoin:round; stroke-width:4; stroke-opacity:1; fill:none" points="1864.54,1505.26 1864.54,1495.81 "/>
<polyline clip-path="url(#clip890)" style="stroke:#000000; stroke-linecap:round; stroke-linejoin:round; stroke-width:4; stroke-opacity:1; fill:none" points="1970.68,1505.26 1970.68,1495.81 "/>
<polyline clip-path="url(#clip890)" style="stroke:#000000; stroke-linecap:round; stroke-linejoin:round; stroke-width:4; stroke-opacity:1; fill:none" points="2076.81,1505.26 2076.81,1495.81 "/>
<polyline clip-path="url(#clip890)" style="stroke:#000000; stroke-linecap:round; stroke-linejoin:round; stroke-width:4; stroke-opacity:1; fill:none" points="2182.94,1505.26 2182.94,1495.81 "/>
<path clip-path="url(#clip890)" d="M118.492 1563.72 L126.131 1563.72 L126.131 1537.36 L117.821 1539.03 L117.821 1534.77 L126.084 1533.1 L130.76 1533.1 L130.76 1563.72 L138.399 1563.72 L138.399 1567.66 L118.492 1567.66 L118.492 1563.72 Z" fill="#000000" fill-rule="nonzero" fill-opacity="1" /><path clip-path="url(#clip890)" d="M147.844 1561.78 L152.728 1561.78 L152.728 1567.66 L147.844 1567.66 L147.844 1561.78 Z" fill="#000000" fill-rule="nonzero" fill-opacity="1" /><path clip-path="url(#clip890)" d="M172.913 1536.18 Q169.302 1536.18 167.473 1539.74 Q165.668 1543.28 165.668 1550.41 Q165.668 1557.52 167.473 1561.09 Q169.302 1564.63 172.913 1564.63 Q176.547 1564.63 178.353 1561.09 Q180.181 1557.52 180.181 1550.41 Q180.181 1543.28 178.353 1539.74 Q176.547 1536.18 172.913 1536.18 M172.913 1532.47 Q178.723 1532.47 181.779 1537.08 Q184.857 1541.66 184.857 1550.41 Q184.857 1559.14 181.779 1563.75 Q178.723 1568.33 172.913 1568.33 Q167.103 1568.33 164.024 1563.75 Q160.968 1559.14 160.968 1550.41 Q160.968 1541.66 164.024 1537.08 Q167.103 1532.47 172.913 1532.47 Z" fill="#000000" fill-rule="nonzero" fill-opacity="1" /><path clip-path="url(#clip890)" d="M203.075 1536.18 Q199.464 1536.18 197.635 1539.74 Q195.829 1543.28 195.829 1550.41 Q195.829 1557.52 197.635 1561.09 Q199.464 1564.63 203.075 1564.63 Q206.709 1564.63 208.515 1561.09 Q210.343 1557.52 210.343 1550.41 Q210.343 1543.28 208.515 1539.74 Q206.709 1536.18 203.075 1536.18 M203.075 1532.47 Q208.885 1532.47 211.94 1537.08 Q215.019 1541.66 215.019 1550.41 Q215.019 1559.14 211.94 1563.75 Q208.885 1568.33 203.075 1568.33 Q197.265 1568.33 194.186 1563.75 Q191.13 1559.14 191.13 1550.41 Q191.13 1541.66 194.186 1537.08 Q197.265 1532.47 203.075 1532.47 Z" fill="#000000" fill-rule="nonzero" fill-opacity="1" /><path clip-path="url(#clip890)" d="M649.654 1563.72 L657.292 1563.72 L657.292 1537.36 L648.982 1539.03 L648.982 1534.77 L657.246 1533.1 L661.922 1533.1 L661.922 1563.72 L669.561 1563.72 L669.561 1567.66 L649.654 1567.66 L649.654 1563.72 Z" fill="#000000" fill-rule="nonzero" fill-opacity="1" /><path clip-path="url(#clip890)" d="M679.005 1561.78 L683.89 1561.78 L683.89 1567.66 L679.005 1567.66 L679.005 1561.78 Z" fill="#000000" fill-rule="nonzero" fill-opacity="1" /><path clip-path="url(#clip890)" d="M698.102 1563.72 L714.422 1563.72 L714.422 1567.66 L692.477 1567.66 L692.477 1563.72 Q695.14 1560.97 699.723 1556.34 Q704.329 1551.69 705.51 1550.35 Q707.755 1547.82 708.635 1546.09 Q709.538 1544.33 709.538 1542.64 Q709.538 1539.88 707.593 1538.15 Q705.672 1536.41 702.57 1536.41 Q700.371 1536.41 697.917 1537.17 Q695.487 1537.94 692.709 1539.49 L692.709 1534.77 Q695.533 1533.63 697.987 1533.05 Q700.44 1532.47 702.477 1532.47 Q707.848 1532.47 711.042 1535.16 Q714.237 1537.85 714.237 1542.34 Q714.237 1544.47 713.426 1546.39 Q712.639 1548.28 710.533 1550.88 Q709.954 1551.55 706.852 1554.77 Q703.751 1557.96 698.102 1563.72 Z" fill="#000000" fill-rule="nonzero" fill-opacity="1" /><path clip-path="url(#clip890)" d="M724.283 1533.1 L742.639 1533.1 L742.639 1537.04 L728.565 1537.04 L728.565 1545.51 Q729.584 1545.16 730.602 1545 Q731.621 1544.81 732.639 1544.81 Q738.426 1544.81 741.806 1547.98 Q745.186 1551.16 745.186 1556.57 Q745.186 1562.15 741.713 1565.25 Q738.241 1568.33 731.922 1568.33 Q729.746 1568.33 727.477 1567.96 Q725.232 1567.59 722.825 1566.85 L722.825 1562.15 Q724.908 1563.28 727.13 1563.84 Q729.352 1564.4 731.829 1564.4 Q735.834 1564.4 738.172 1562.29 Q740.51 1560.18 740.51 1556.57 Q740.51 1552.96 738.172 1550.85 Q735.834 1548.75 731.829 1548.75 Q729.954 1548.75 728.079 1549.16 Q726.227 1549.58 724.283 1550.46 L724.283 1533.1 Z" fill="#000000" fill-rule="nonzero" fill-opacity="1" /><path clip-path="url(#clip890)" d="M1179.82 1563.72 L1187.46 1563.72 L1187.46 1537.36 L1179.15 1539.03 L1179.15 1534.77 L1187.41 1533.1 L1192.09 1533.1 L1192.09 1563.72 L1199.73 1563.72 L1199.73 1567.66 L1179.82 1567.66 L1179.82 1563.72 Z" fill="#000000" fill-rule="nonzero" fill-opacity="1" /><path clip-path="url(#clip890)" d="M1209.17 1561.78 L1214.06 1561.78 L1214.06 1567.66 L1209.17 1567.66 L1209.17 1561.78 Z" fill="#000000" fill-rule="nonzero" fill-opacity="1" /><path clip-path="url(#clip890)" d="M1224.29 1533.1 L1242.64 1533.1 L1242.64 1537.04 L1228.57 1537.04 L1228.57 1545.51 Q1229.59 1545.16 1230.61 1545 Q1231.63 1544.81 1232.64 1544.81 Q1238.43 1544.81 1241.81 1547.98 Q1245.19 1551.16 1245.19 1556.57 Q1245.19 1562.15 1241.72 1565.25 Q1238.25 1568.33 1231.93 1568.33 Q1229.75 1568.33 1227.48 1567.96 Q1225.24 1567.59 1222.83 1566.85 L1222.83 1562.15 Q1224.91 1563.28 1227.13 1563.84 Q1229.36 1564.4 1231.83 1564.4 Q1235.84 1564.4 1238.18 1562.29 Q1240.51 1560.18 1240.51 1556.57 Q1240.51 1552.96 1238.18 1550.85 Q1235.84 1548.75 1231.83 1548.75 Q1229.96 1548.75 1228.08 1549.16 Q1226.23 1549.58 1224.29 1550.46 L1224.29 1533.1 Z" fill="#000000" fill-rule="nonzero" fill-opacity="1" /><path clip-path="url(#clip890)" d="M1264.4 1536.18 Q1260.79 1536.18 1258.96 1539.74 Q1257.16 1543.28 1257.16 1550.41 Q1257.16 1557.52 1258.96 1561.09 Q1260.79 1564.63 1264.4 1564.63 Q1268.04 1564.63 1269.84 1561.09 Q1271.67 1557.52 1271.67 1550.41 Q1271.67 1543.28 1269.84 1539.74 Q1268.04 1536.18 1264.4 1536.18 M1264.4 1532.47 Q1270.21 1532.47 1273.27 1537.08 Q1276.35 1541.66 1276.35 1550.41 Q1276.35 1559.14 1273.27 1563.75 Q1270.21 1568.33 1264.4 1568.33 Q1258.59 1568.33 1255.51 1563.75 Q1252.46 1559.14 1252.46 1550.41 Q1252.46 1541.66 1255.51 1537.08 Q1258.59 1532.47 1264.4 1532.47 Z" fill="#000000" fill-rule="nonzero" fill-opacity="1" /><path clip-path="url(#clip890)" d="M1710.98 1563.72 L1718.62 1563.72 L1718.62 1537.36 L1710.31 1539.03 L1710.31 1534.77 L1718.57 1533.1 L1723.25 1533.1 L1723.25 1563.72 L1730.89 1563.72 L1730.89 1567.66 L1710.98 1567.66 L1710.98 1563.72 Z" fill="#000000" fill-rule="nonzero" fill-opacity="1" /><path clip-path="url(#clip890)" d="M1740.33 1561.78 L1745.22 1561.78 L1745.22 1567.66 L1740.33 1567.66 L1740.33 1561.78 Z" fill="#000000" fill-rule="nonzero" fill-opacity="1" /><path clip-path="url(#clip890)" d="M1754.22 1533.1 L1776.44 1533.1 L1776.44 1535.09 L1763.9 1567.66 L1759.01 1567.66 L1770.82 1537.04 L1754.22 1537.04 L1754.22 1533.1 Z" fill="#000000" fill-rule="nonzero" fill-opacity="1" /><path clip-path="url(#clip890)" d="M1785.61 1533.1 L1803.97 1533.1 L1803.97 1537.04 L1789.89 1537.04 L1789.89 1545.51 Q1790.91 1545.16 1791.93 1545 Q1792.95 1544.81 1793.97 1544.81 Q1799.75 1544.81 1803.13 1547.98 Q1806.51 1551.16 1806.51 1556.57 Q1806.51 1562.15 1803.04 1565.25 Q1799.57 1568.33 1793.25 1568.33 Q1791.07 1568.33 1788.81 1567.96 Q1786.56 1567.59 1784.15 1566.85 L1784.15 1562.15 Q1786.24 1563.28 1788.46 1563.84 Q1790.68 1564.4 1793.16 1564.4 Q1797.16 1564.4 1799.5 1562.29 Q1801.84 1560.18 1801.84 1556.57 Q1801.84 1552.96 1799.5 1550.85 Q1797.16 1548.75 1793.16 1548.75 Q1791.28 1548.75 1789.41 1549.16 Q1787.56 1549.58 1785.61 1550.46 L1785.61 1533.1 Z" fill="#000000" fill-rule="nonzero" fill-opacity="1" /><path clip-path="url(#clip890)" d="M2245.23 1563.72 L2261.55 1563.72 L2261.55 1567.66 L2239.61 1567.66 L2239.61 1563.72 Q2242.27 1560.97 2246.85 1556.34 Q2251.46 1551.69 2252.64 1550.35 Q2254.89 1547.82 2255.77 1546.09 Q2256.67 1544.33 2256.67 1542.64 Q2256.67 1539.88 2254.72 1538.15 Q2252.8 1536.41 2249.7 1536.41 Q2247.5 1536.41 2245.05 1537.17 Q2242.62 1537.94 2239.84 1539.49 L2239.84 1534.77 Q2242.66 1533.63 2245.12 1533.05 Q2247.57 1532.47 2249.61 1532.47 Q2254.98 1532.47 2258.17 1535.16 Q2261.37 1537.85 2261.37 1542.34 Q2261.37 1544.47 2260.56 1546.39 Q2259.77 1548.28 2257.66 1550.88 Q2257.09 1551.55 2253.98 1554.77 Q2250.88 1557.96 2245.23 1563.72 Z" fill="#000000" fill-rule="nonzero" fill-opacity="1" /><path clip-path="url(#clip890)" d="M2271.37 1561.78 L2276.25 1561.78 L2276.25 1567.66 L2271.37 1567.66 L2271.37 1561.78 Z" fill="#000000" fill-rule="nonzero" fill-opacity="1" /><path clip-path="url(#clip890)" d="M2296.44 1536.18 Q2292.83 1536.18 2291 1539.74 Q2289.19 1543.28 2289.19 1550.41 Q2289.19 1557.52 2291 1561.09 Q2292.83 1564.63 2296.44 1564.63 Q2300.07 1564.63 2301.88 1561.09 Q2303.71 1557.52 2303.71 1550.41 Q2303.71 1543.28 2301.88 1539.74 Q2300.07 1536.18 2296.44 1536.18 M2296.44 1532.47 Q2302.25 1532.47 2305.3 1537.08 Q2308.38 1541.66 2308.38 1550.41 Q2308.38 1559.14 2305.3 1563.75 Q2302.25 1568.33 2296.44 1568.33 Q2290.63 1568.33 2287.55 1563.75 Q2284.49 1559.14 2284.49 1550.41 Q2284.49 1541.66 2287.55 1537.08 Q2290.63 1532.47 2296.44 1532.47 Z" fill="#000000" fill-rule="nonzero" fill-opacity="1" /><path clip-path="url(#clip890)" d="M2326.6 1536.18 Q2322.99 1536.18 2321.16 1539.74 Q2319.35 1543.28 2319.35 1550.41 Q2319.35 1557.52 2321.16 1561.09 Q2322.99 1564.63 2326.6 1564.63 Q2330.23 1564.63 2332.04 1561.09 Q2333.87 1557.52 2333.87 1550.41 Q2333.87 1543.28 2332.04 1539.74 Q2330.23 1536.18 2326.6 1536.18 M2326.6 1532.47 Q2332.41 1532.47 2335.46 1537.08 Q2338.54 1541.66 2338.54 1550.41 Q2338.54 1559.14 2335.46 1563.75 Q2332.41 1568.33 2326.6 1568.33 Q2320.79 1568.33 2317.71 1563.75 Q2314.65 1559.14 2314.65 1550.41 Q2314.65 1541.66 2317.71 1537.08 Q2320.79 1532.47 2326.6 1532.47 Z" fill="#000000" fill-rule="nonzero" fill-opacity="1" /><path clip-path="url(#clip890)" d="M1095.47 1602.6 L1101.9 1602.6 L1101.9 1650.12 L1095.47 1650.12 L1095.47 1602.6 Z" fill="#000000" fill-rule="nonzero" fill-opacity="1" /><path clip-path="url(#clip890)" d="M1120.23 1604.35 L1120.23 1614.48 L1132.29 1614.48 L1132.29 1619.03 L1120.23 1619.03 L1120.23 1638.38 Q1120.23 1642.74 1121.41 1643.98 Q1122.62 1645.22 1126.28 1645.22 L1132.29 1645.22 L1132.29 1650.12 L1126.28 1650.12 Q1119.5 1650.12 1116.92 1647.61 Q1114.34 1645.06 1114.34 1638.38 L1114.34 1619.03 L1110.05 1619.03 L1110.05 1614.48 L1114.34 1614.48 L1114.34 1604.35 L1120.23 1604.35 Z" fill="#000000" fill-rule="nonzero" fill-opacity="1" /><path clip-path="url(#clip890)" d="M1170.49 1630.84 L1170.49 1633.7 L1143.56 1633.7 Q1143.94 1639.75 1147.19 1642.93 Q1150.47 1646.08 1156.29 1646.08 Q1159.67 1646.08 1162.82 1645.25 Q1166 1644.43 1169.12 1642.77 L1169.12 1648.31 Q1165.97 1649.65 1162.66 1650.35 Q1159.35 1651.05 1155.94 1651.05 Q1147.41 1651.05 1142.42 1646.08 Q1137.45 1641.12 1137.45 1632.65 Q1137.45 1623.9 1142.16 1618.77 Q1146.9 1613.62 1154.92 1613.62 Q1162.12 1613.62 1166.29 1618.26 Q1170.49 1622.88 1170.49 1630.84 M1164.63 1629.12 Q1164.57 1624.31 1161.93 1621.45 Q1159.32 1618.58 1154.99 1618.58 Q1150.09 1618.58 1147.13 1621.35 Q1144.2 1624.12 1143.75 1629.15 L1164.63 1629.12 Z" fill="#000000" fill-rule="nonzero" fill-opacity="1" /><path clip-path="url(#clip890)" d="M1200.76 1619.95 Q1199.77 1619.38 1198.59 1619.12 Q1197.45 1618.84 1196.05 1618.84 Q1191.08 1618.84 1188.41 1622.08 Q1185.77 1625.3 1185.77 1631.35 L1185.77 1650.12 L1179.88 1650.12 L1179.88 1614.48 L1185.77 1614.48 L1185.77 1620.01 Q1187.61 1616.77 1190.57 1615.21 Q1193.53 1613.62 1197.77 1613.62 Q1198.37 1613.62 1199.1 1613.71 Q1199.83 1613.78 1200.73 1613.93 L1200.76 1619.95 Z" fill="#000000" fill-rule="nonzero" fill-opacity="1" /><path clip-path="url(#clip890)" d="M1223.1 1632.2 Q1216 1632.2 1213.27 1633.83 Q1210.53 1635.45 1210.53 1639.37 Q1210.53 1642.48 1212.57 1644.33 Q1214.63 1646.15 1218.17 1646.15 Q1223.04 1646.15 1225.97 1642.71 Q1228.93 1639.24 1228.93 1633.51 L1228.93 1632.2 L1223.1 1632.2 M1234.78 1629.79 L1234.78 1650.12 L1228.93 1650.12 L1228.93 1644.71 Q1226.92 1647.96 1223.93 1649.52 Q1220.94 1651.05 1216.61 1651.05 Q1211.13 1651.05 1207.89 1647.99 Q1204.67 1644.9 1204.67 1639.75 Q1204.67 1633.73 1208.68 1630.68 Q1212.72 1627.62 1220.71 1627.62 L1228.93 1627.62 L1228.93 1627.05 Q1228.93 1623.01 1226.25 1620.81 Q1223.61 1618.58 1218.8 1618.58 Q1215.75 1618.58 1212.85 1619.31 Q1209.96 1620.05 1207.28 1621.51 L1207.28 1616.1 Q1210.5 1614.86 1213.52 1614.25 Q1216.54 1613.62 1219.41 1613.62 Q1227.14 1613.62 1230.96 1617.63 Q1234.78 1621.64 1234.78 1629.79 Z" fill="#000000" fill-rule="nonzero" fill-opacity="1" /><path clip-path="url(#clip890)" d="M1252.64 1604.35 L1252.64 1614.48 L1264.7 1614.48 L1264.7 1619.03 L1252.64 1619.03 L1252.64 1638.38 Q1252.64 1642.74 1253.82 1643.98 Q1255.03 1645.22 1258.69 1645.22 L1264.7 1645.22 L1264.7 1650.12 L1258.69 1650.12 Q1251.91 1650.12 1249.33 1647.61 Q1246.75 1645.06 1246.75 1638.38 L1246.75 1619.03 L1242.45 1619.03 L1242.45 1614.48 L1246.75 1614.48 L1246.75 1604.35 L1252.64 1604.35 Z" fill="#000000" fill-rule="nonzero" fill-opacity="1" /><path clip-path="url(#clip890)" d="M1272.4 1614.48 L1278.26 1614.48 L1278.26 1650.12 L1272.4 1650.12 L1272.4 1614.48 M1272.4 1600.6 L1278.26 1600.6 L1278.26 1608.01 L1272.4 1608.01 L1272.4 1600.6 Z" fill="#000000" fill-rule="nonzero" fill-opacity="1" /><path clip-path="url(#clip890)" d="M1304.33 1618.58 Q1299.62 1618.58 1296.88 1622.27 Q1294.14 1625.93 1294.14 1632.33 Q1294.14 1638.73 1296.85 1642.42 Q1299.59 1646.08 1304.33 1646.08 Q1309.01 1646.08 1311.74 1642.39 Q1314.48 1638.7 1314.48 1632.33 Q1314.48 1626 1311.74 1622.31 Q1309.01 1618.58 1304.33 1618.58 M1304.33 1613.62 Q1311.97 1613.62 1316.33 1618.58 Q1320.69 1623.55 1320.69 1632.33 Q1320.69 1641.08 1316.33 1646.08 Q1311.97 1651.05 1304.33 1651.05 Q1296.66 1651.05 1292.3 1646.08 Q1287.97 1641.08 1287.97 1632.33 Q1287.97 1623.55 1292.3 1618.58 Q1296.66 1613.62 1304.33 1613.62 Z" fill="#000000" fill-rule="nonzero" fill-opacity="1" /><path clip-path="url(#clip890)" d="M1360.03 1628.61 L1360.03 1650.12 L1354.17 1650.12 L1354.17 1628.8 Q1354.17 1623.74 1352.2 1621.22 Q1350.22 1618.71 1346.28 1618.71 Q1341.54 1618.71 1338.8 1621.73 Q1336.06 1624.76 1336.06 1629.98 L1336.06 1650.12 L1330.17 1650.12 L1330.17 1614.48 L1336.06 1614.48 L1336.06 1620.01 Q1338.16 1616.8 1340.99 1615.21 Q1343.86 1613.62 1347.58 1613.62 Q1353.73 1613.62 1356.88 1617.44 Q1360.03 1621.22 1360.03 1628.61 Z" fill="#000000" fill-rule="nonzero" fill-opacity="1" /><polyline clip-path="url(#clip892)" style="stroke:#000000; stroke-linecap:round; stroke-linejoin:round; stroke-width:2; stroke-opacity:0.1; fill:none" points="102.74,1384.97 2352.76,1384.97 "/>
<polyline clip-path="url(#clip892)" style="stroke:#000000; stroke-linecap:round; stroke-linejoin:round; stroke-width:2; stroke-opacity:0.1; fill:none" points="102.74,895.29 2352.76,895.29 "/>
<polyline clip-path="url(#clip892)" style="stroke:#000000; stroke-linecap:round; stroke-linejoin:round; stroke-width:2; stroke-opacity:0.1; fill:none" points="102.74,405.606 2352.76,405.606 "/>
<polyline clip-path="url(#clip890)" style="stroke:#000000; stroke-linecap:round; stroke-linejoin:round; stroke-width:4; stroke-opacity:1; fill:none" points="102.74,1505.26 102.74,47.2441 "/>
<polyline clip-path="url(#clip890)" style="stroke:#000000; stroke-linecap:round; stroke-linejoin:round; stroke-width:4; stroke-opacity:1; fill:none" points="102.74,1384.97 121.638,1384.97 "/>
<polyline clip-path="url(#clip890)" style="stroke:#000000; stroke-linecap:round; stroke-linejoin:round; stroke-width:4; stroke-opacity:1; fill:none" points="102.74,895.29 121.638,895.29 "/>
<polyline clip-path="url(#clip890)" style="stroke:#000000; stroke-linecap:round; stroke-linejoin:round; stroke-width:4; stroke-opacity:1; fill:none" points="102.74,405.606 121.638,405.606 "/>
<path clip-path="url(#clip890)" d="M-89.3716 1404.77 L-81.7327 1404.77 L-81.7327 1378.4 L-90.0429 1380.07 L-90.0429 1375.81 L-81.779 1374.14 L-77.1031 1374.14 L-77.1031 1404.77 L-69.4643 1404.77 L-69.4643 1408.7 L-89.3716 1408.7 L-89.3716 1404.77 Z" fill="#000000" fill-rule="nonzero" fill-opacity="1" /><path clip-path="url(#clip890)" d="M-50.0199 1377.22 Q-53.631 1377.22 -55.4597 1380.78 Q-57.2653 1384.33 -57.2653 1391.46 Q-57.2653 1398.56 -55.4597 1402.13 Q-53.631 1405.67 -50.0199 1405.67 Q-46.3857 1405.67 -44.5801 1402.13 Q-42.7514 1398.56 -42.7514 1391.46 Q-42.7514 1384.33 -44.5801 1380.78 Q-46.3857 1377.22 -50.0199 1377.22 M-50.0199 1373.52 Q-44.2098 1373.52 -41.1542 1378.12 Q-38.0755 1382.71 -38.0755 1391.46 Q-38.0755 1400.18 -41.1542 1404.79 Q-44.2098 1409.37 -50.0199 1409.37 Q-55.8301 1409.37 -58.9088 1404.79 Q-61.9643 1400.18 -61.9643 1391.46 Q-61.9643 1382.71 -58.9088 1378.12 Q-55.8301 1373.52 -50.0199 1373.52 Z" fill="#000000" fill-rule="nonzero" fill-opacity="1" /><path clip-path="url(#clip890)" d="M-33.5053 1378.09 L-20.2458 1378.09 L-20.2458 1381.29 L-38.0755 1381.29 L-38.0755 1378.09 Q-35.9126 1375.86 -32.1887 1372.09 Q-28.446 1368.31 -27.4868 1367.22 Q-25.6624 1365.17 -24.9477 1363.76 Q-24.2142 1362.33 -24.2142 1360.96 Q-24.2142 1358.72 -25.7941 1357.31 Q-27.3551 1355.9 -29.8754 1355.9 Q-31.6621 1355.9 -33.6557 1356.52 Q-35.6305 1357.14 -37.8875 1358.4 L-37.8875 1354.57 Q-35.5929 1353.64 -33.5993 1353.17 Q-31.6057 1352.7 -29.9506 1352.7 Q-25.5872 1352.7 -22.9917 1354.88 Q-20.3962 1357.07 -20.3962 1360.72 Q-20.3962 1362.45 -21.0545 1364.01 Q-21.694 1365.55 -23.4055 1367.66 Q-23.8757 1368.2 -26.3959 1370.82 Q-28.9162 1373.41 -33.5053 1378.09 Z" fill="#000000" fill-rule="nonzero" fill-opacity="1" /><path clip-path="url(#clip890)" d="M-12.2713 1376.51 L-8.30284 1376.51 L-8.30284 1381.29 L-12.2713 1381.29 L-12.2713 1376.51 Z" fill="#000000" fill-rule="nonzero" fill-opacity="1" /><path clip-path="url(#clip890)" d="M0.630847 1378.09 L6.83741 1378.09 L6.83741 1356.67 L0.085422 1358.03 L0.085422 1354.57 L6.7998 1353.21 L10.599 1353.21 L10.599 1378.09 L16.8055 1378.09 L16.8055 1381.29 L0.630847 1381.29 L0.630847 1378.09 Z" fill="#000000" fill-rule="nonzero" fill-opacity="1" /><path clip-path="url(#clip890)" d="M32.6041 1367.96 Q29.8957 1367.96 28.3347 1369.4 Q26.7925 1370.85 26.7925 1373.39 Q26.7925 1375.93 28.3347 1377.38 Q29.8957 1378.83 32.6041 1378.83 Q35.3124 1378.83 36.8734 1377.38 Q38.4345 1375.91 38.4345 1373.39 Q38.4345 1370.85 36.8734 1369.4 Q35.3312 1367.96 32.6041 1367.96 M28.8049 1366.34 Q26.3599 1365.74 24.9869 1364.06 Q23.6327 1362.39 23.6327 1359.98 Q23.6327 1356.62 26.0213 1354.66 Q28.4287 1352.7 32.6041 1352.7 Q36.7982 1352.7 39.1868 1354.66 Q41.5754 1356.62 41.5754 1359.98 Q41.5754 1362.39 40.2024 1364.06 Q38.8482 1365.74 36.422 1366.34 Q39.168 1366.98 40.6914 1368.84 Q42.2336 1370.7 42.2336 1373.39 Q42.2336 1377.47 39.7322 1379.65 Q37.2496 1381.84 32.6041 1381.84 Q27.9585 1381.84 25.4571 1379.65 Q22.9745 1377.47 22.9745 1373.39 Q22.9745 1370.7 24.5167 1368.84 Q26.059 1366.98 28.8049 1366.34 M27.4131 1360.34 Q27.4131 1362.52 28.7673 1363.74 Q30.1402 1364.97 32.6041 1364.97 Q35.0491 1364.97 36.422 1363.74 Q37.8138 1362.52 37.8138 1360.34 Q37.8138 1358.16 36.422 1356.93 Q35.0491 1355.71 32.6041 1355.71 Q30.1402 1355.71 28.7673 1356.93 Q27.4131 1358.16 27.4131 1360.34 Z" fill="#000000" fill-rule="nonzero" fill-opacity="1" /><path clip-path="url(#clip890)" d="M57.1106 1367.96 Q54.4023 1367.96 52.8412 1369.4 Q51.299 1370.85 51.299 1373.39 Q51.299 1375.93 52.8412 1377.38 Q54.4023 1378.83 57.1106 1378.83 Q59.8189 1378.83 61.3799 1377.38 Q62.941 1375.91 62.941 1373.39 Q62.941 1370.85 61.3799 1369.4 Q59.8377 1367.96 57.1106 1367.96 M53.3114 1366.34 Q50.8664 1365.74 49.4934 1364.06 Q48.1393 1362.39 48.1393 1359.98 Q48.1393 1356.62 50.5279 1354.66 Q52.9353 1352.7 57.1106 1352.7 Q61.3047 1352.7 63.6933 1354.66 Q66.0819 1356.62 66.0819 1359.98 Q66.0819 1362.39 64.7089 1364.06 Q63.3548 1365.74 60.9286 1366.34 Q63.6745 1366.98 65.1979 1368.84 Q66.7402 1370.7 66.7402 1373.39 Q66.7402 1377.47 64.2387 1379.65 Q61.7561 1381.84 57.1106 1381.84 Q52.4651 1381.84 49.9636 1379.65 Q47.481 1377.47 47.481 1373.39 Q47.481 1370.7 49.0232 1368.84 Q50.5655 1366.98 53.3114 1366.34 M51.9196 1360.34 Q51.9196 1362.52 53.2738 1363.74 Q54.6468 1364.97 57.1106 1364.97 Q59.5556 1364.97 60.9286 1363.74 Q62.3203 1362.52 62.3203 1360.34 Q62.3203 1358.16 60.9286 1356.93 Q59.5556 1355.71 57.1106 1355.71 Q54.6468 1355.71 53.2738 1356.93 Q51.9196 1358.16 51.9196 1360.34 Z" fill="#000000" fill-rule="nonzero" fill-opacity="1" /><path clip-path="url(#clip890)" d="M-89.2963 915.082 L-81.6575 915.082 L-81.6575 888.717 L-89.9676 890.383 L-89.9676 886.124 L-81.7038 884.457 L-77.0279 884.457 L-77.0279 915.082 L-69.389 915.082 L-69.389 919.017 L-89.2963 919.017 L-89.2963 915.082 Z" fill="#000000" fill-rule="nonzero" fill-opacity="1" /><path clip-path="url(#clip890)" d="M-49.9447 887.536 Q-53.5558 887.536 -55.3845 891.101 Q-57.19 894.643 -57.19 901.772 Q-57.19 908.879 -55.3845 912.443 Q-53.5558 915.985 -49.9447 915.985 Q-46.3105 915.985 -44.5049 912.443 Q-42.6762 908.879 -42.6762 901.772 Q-42.6762 894.643 -44.5049 891.101 Q-46.3105 887.536 -49.9447 887.536 M-49.9447 883.832 Q-44.1345 883.832 -41.079 888.439 Q-38.0003 893.022 -38.0003 901.772 Q-38.0003 910.499 -41.079 915.105 Q-44.1345 919.689 -49.9447 919.689 Q-55.7548 919.689 -58.8335 915.105 Q-61.8891 910.499 -61.8891 901.772 Q-61.8891 893.022 -58.8335 888.439 Q-55.7548 883.832 -49.9447 883.832 Z" fill="#000000" fill-rule="nonzero" fill-opacity="1" /><path clip-path="url(#clip890)" d="M-33.43 888.41 L-20.1705 888.41 L-20.1705 891.607 L-38.0003 891.607 L-38.0003 888.41 Q-35.8374 886.172 -32.1135 882.41 Q-28.3707 878.63 -27.4115 877.539 Q-25.5872 875.489 -24.8725 874.078 Q-24.139 872.649 -24.139 871.276 Q-24.139 869.038 -25.7188 867.627 Q-27.2799 866.217 -29.8001 866.217 Q-31.5869 866.217 -33.5805 866.837 Q-35.5553 867.458 -37.8122 868.718 L-37.8122 864.881 Q-35.5177 863.96 -33.5241 863.489 Q-31.5304 863.019 -29.8754 863.019 Q-25.512 863.019 -22.9165 865.201 Q-20.321 867.383 -20.321 871.031 Q-20.321 872.762 -20.9793 874.323 Q-21.6187 875.865 -23.3303 877.971 Q-23.8004 878.517 -26.3207 881.131 Q-28.8409 883.727 -33.43 888.41 Z" fill="#000000" fill-rule="nonzero" fill-opacity="1" /><path clip-path="url(#clip890)" d="M-12.1961 886.83 L-8.22761 886.83 L-8.22761 891.607 L-12.1961 891.607 L-12.1961 886.83 Z" fill="#000000" fill-rule="nonzero" fill-opacity="1" /><path clip-path="url(#clip890)" d="M0.706078 888.41 L6.91264 888.41 L6.91264 866.988 L0.160653 868.342 L0.160653 864.881 L6.87503 863.527 L10.6742 863.527 L10.6742 888.41 L16.8808 888.41 L16.8808 891.607 L0.706078 891.607 L0.706078 888.41 Z" fill="#000000" fill-rule="nonzero" fill-opacity="1" /><path clip-path="url(#clip890)" d="M32.6793 878.272 Q29.971 878.272 28.4099 879.721 Q26.8677 881.169 26.8677 883.708 Q26.8677 886.247 28.4099 887.695 Q29.971 889.143 32.6793 889.143 Q35.3876 889.143 36.9487 887.695 Q38.5097 886.228 38.5097 883.708 Q38.5097 881.169 36.9487 879.721 Q35.4064 878.272 32.6793 878.272 M28.8801 876.655 Q26.4351 876.053 25.0621 874.379 Q23.708 872.705 23.708 870.298 Q23.708 866.931 26.0966 864.975 Q28.504 863.019 32.6793 863.019 Q36.8734 863.019 39.262 864.975 Q41.6506 866.931 41.6506 870.298 Q41.6506 872.705 40.2776 874.379 Q38.9235 876.053 36.4973 876.655 Q39.2432 877.294 40.7666 879.156 Q42.3089 881.018 42.3089 883.708 Q42.3089 887.789 39.8074 889.971 Q37.3248 892.152 32.6793 892.152 Q28.0338 892.152 25.5323 889.971 Q23.0497 887.789 23.0497 883.708 Q23.0497 881.018 24.5919 879.156 Q26.1342 877.294 28.8801 876.655 M27.4883 870.655 Q27.4883 872.837 28.8425 874.059 Q30.2155 875.282 32.6793 875.282 Q35.1243 875.282 36.4973 874.059 Q37.889 872.837 37.889 870.655 Q37.889 868.473 36.4973 867.251 Q35.1243 866.028 32.6793 866.028 Q30.2155 866.028 28.8425 867.251 Q27.4883 868.473 27.4883 870.655 Z" fill="#000000" fill-rule="nonzero" fill-opacity="1" /><path clip-path="url(#clip890)" d="M49.1737 891.024 L49.1737 887.563 Q50.6031 888.24 52.0701 888.598 Q53.5371 888.955 54.9477 888.955 Q58.7092 888.955 60.6841 886.435 Q62.6777 883.896 62.9598 878.743 Q61.8689 880.36 60.1951 881.225 Q58.5212 882.09 56.4899 882.09 Q52.277 882.09 49.8132 879.551 Q47.3682 876.993 47.3682 872.574 Q47.3682 868.248 49.926 865.633 Q52.4839 863.019 56.7344 863.019 Q61.6056 863.019 64.1635 866.762 Q66.7402 870.486 66.7402 877.595 Q66.7402 884.234 63.5805 888.203 Q60.4396 892.152 55.117 892.152 Q53.6876 892.152 52.2206 891.87 Q50.7536 891.588 49.1737 891.024 M56.7344 879.119 Q59.2923 879.119 60.7781 877.37 Q62.2827 875.62 62.2827 872.574 Q62.2827 869.546 60.7781 867.796 Q59.2923 866.028 56.7344 866.028 Q54.1766 866.028 52.6719 867.796 Q51.1861 869.546 51.1861 872.574 Q51.1861 875.62 52.6719 877.37 Q54.1766 879.119 56.7344 879.119 Z" fill="#000000" fill-rule="nonzero" fill-opacity="1" /><path clip-path="url(#clip890)" d="M-89.4468 425.398 L-81.8079 425.398 L-81.8079 399.033 L-90.1181 400.699 L-90.1181 396.44 L-81.8542 394.773 L-77.1783 394.773 L-77.1783 425.398 L-69.5395 425.398 L-69.5395 429.333 L-89.4468 429.333 L-89.4468 425.398 Z" fill="#000000" fill-rule="nonzero" fill-opacity="1" /><path clip-path="url(#clip890)" d="M-50.0952 397.852 Q-53.7062 397.852 -55.5349 401.417 Q-57.3405 404.959 -57.3405 412.088 Q-57.3405 419.195 -55.5349 422.759 Q-53.7062 426.301 -50.0952 426.301 Q-46.4609 426.301 -44.6554 422.759 Q-42.8267 419.195 -42.8267 412.088 Q-42.8267 404.959 -44.6554 401.417 Q-46.4609 397.852 -50.0952 397.852 M-50.0952 394.148 Q-44.285 394.148 -41.2295 398.755 Q-38.1508 403.338 -38.1508 412.088 Q-38.1508 420.815 -41.2295 425.421 Q-44.285 430.005 -50.0952 430.005 Q-55.9053 430.005 -58.984 425.421 Q-62.0395 420.815 -62.0395 412.088 Q-62.0395 403.338 -58.984 398.755 Q-55.9053 394.148 -50.0952 394.148 Z" fill="#000000" fill-rule="nonzero" fill-opacity="1" /><path clip-path="url(#clip890)" d="M-33.5805 398.726 L-20.321 398.726 L-20.321 401.923 L-38.1508 401.923 L-38.1508 398.726 Q-35.9879 396.488 -32.2639 392.726 Q-28.5212 388.946 -27.562 387.855 Q-25.7376 385.805 -25.023 384.394 Q-24.2894 382.965 -24.2894 381.592 Q-24.2894 379.354 -25.8693 377.943 Q-27.4303 376.533 -29.9506 376.533 Q-31.7373 376.533 -33.7309 377.153 Q-35.7058 377.774 -37.9627 379.034 L-37.9627 375.197 Q-35.6681 374.276 -33.6745 373.805 Q-31.6809 373.335 -30.0258 373.335 Q-25.6624 373.335 -23.0669 375.517 Q-20.4715 377.699 -20.4715 381.347 Q-20.4715 383.078 -21.1297 384.639 Q-21.7692 386.181 -23.4807 388.287 Q-23.9509 388.833 -26.4711 391.447 Q-28.9914 394.043 -33.5805 398.726 Z" fill="#000000" fill-rule="nonzero" fill-opacity="1" /><path clip-path="url(#clip890)" d="M-12.3465 397.146 L-8.37807 397.146 L-8.37807 401.923 L-12.3465 401.923 L-12.3465 397.146 Z" fill="#000000" fill-rule="nonzero" fill-opacity="1" /><path clip-path="url(#clip890)" d="M0.555616 398.726 L6.76218 398.726 L6.76218 377.304 L0.010191 378.658 L0.010191 375.197 L6.72456 373.843 L10.5237 373.843 L10.5237 398.726 L16.7303 398.726 L16.7303 401.923 L0.555616 401.923 L0.555616 398.726 Z" fill="#000000" fill-rule="nonzero" fill-opacity="1" /><path clip-path="url(#clip890)" d="M24.5167 401.34 L24.5167 397.879 Q25.9461 398.556 27.4131 398.914 Q28.8801 399.271 30.2907 399.271 Q34.0523 399.271 36.0271 396.751 Q38.0207 394.212 38.3028 389.059 Q37.212 390.676 35.5381 391.541 Q33.8642 392.406 31.8329 392.406 Q27.62 392.406 25.1562 389.867 Q22.7112 387.309 22.7112 382.89 Q22.7112 378.564 25.269 375.95 Q27.8269 373.335 32.0774 373.335 Q36.9487 373.335 39.5065 377.078 Q42.0832 380.802 42.0832 387.911 Q42.0832 394.55 38.9235 398.519 Q35.7826 402.468 30.46 402.468 Q29.0306 402.468 27.5636 402.186 Q26.0966 401.904 24.5167 401.34 M32.0774 389.435 Q34.6353 389.435 36.1211 387.686 Q37.6257 385.936 37.6257 382.89 Q37.6257 379.862 36.1211 378.112 Q34.6353 376.344 32.0774 376.344 Q29.5196 376.344 28.015 378.112 Q26.5291 379.862 26.5291 382.89 Q26.5291 385.936 28.015 387.686 Q29.5196 389.435 32.0774 389.435 Z" fill="#000000" fill-rule="nonzero" fill-opacity="1" /><path clip-path="url(#clip890)" d="M57.0353 376.344 Q54.1013 376.344 52.6155 379.241 Q51.1485 382.118 51.1485 387.911 Q51.1485 393.685 52.6155 396.582 Q54.1013 399.459 57.0353 399.459 Q59.9882 399.459 61.4552 396.582 Q62.941 393.685 62.941 387.911 Q62.941 382.118 61.4552 379.241 Q59.9882 376.344 57.0353 376.344 M57.0353 373.335 Q61.7561 373.335 64.2387 377.078 Q66.7402 380.802 66.7402 387.911 Q66.7402 395.002 64.2387 398.745 Q61.7561 402.468 57.0353 402.468 Q52.3146 402.468 49.8132 398.745 Q47.3305 395.002 47.3305 387.911 Q47.3305 380.802 49.8132 377.078 Q52.3146 373.335 57.0353 373.335 Z" fill="#000000" fill-rule="nonzero" fill-opacity="1" /><path clip-path="url(#clip890)" d="M-187.894 852.497 L-187.894 822.451 L-182.483 822.451 L-182.483 846.068 L-168.415 846.068 L-168.415 823.438 L-163.004 823.438 L-163.004 846.068 L-145.785 846.068 L-145.785 821.878 L-140.374 821.878 L-140.374 852.497 L-187.894 852.497 Z" fill="#000000" fill-rule="nonzero" fill-opacity="1" /><path clip-path="url(#clip890)" d="M-170.548 790.909 Q-171.12 791.896 -171.375 793.073 Q-171.662 794.219 -171.662 795.62 Q-171.662 800.585 -168.415 803.258 Q-165.2 805.9 -159.153 805.9 L-140.374 805.9 L-140.374 811.789 L-176.022 811.789 L-176.022 805.9 L-170.484 805.9 Q-173.73 804.054 -175.29 801.094 Q-176.881 798.134 -176.881 793.901 Q-176.881 793.296 -176.786 792.564 Q-176.722 791.832 -176.563 790.941 L-170.548 790.909 Z" fill="#000000" fill-rule="nonzero" fill-opacity="1" /><path clip-path="url(#clip890)" d="M-170.548 765.255 Q-171.12 766.242 -171.375 767.42 Q-171.662 768.565 -171.662 769.966 Q-171.662 774.931 -168.415 777.605 Q-165.2 780.246 -159.153 780.246 L-140.374 780.246 L-140.374 786.135 L-176.022 786.135 L-176.022 780.246 L-170.484 780.246 Q-173.73 778.4 -175.29 775.44 Q-176.881 772.48 -176.881 768.247 Q-176.881 767.642 -176.786 766.91 Q-176.722 766.178 -176.563 765.287 L-170.548 765.255 Z" fill="#000000" fill-rule="nonzero" fill-opacity="1" /><path clip-path="url(#clip890)" d="M-171.916 746.731 Q-171.916 751.442 -168.224 754.179 Q-164.564 756.916 -158.166 756.916 Q-151.769 756.916 -148.077 754.211 Q-144.416 751.473 -144.416 746.731 Q-144.416 742.052 -148.108 739.315 Q-151.801 736.578 -158.166 736.578 Q-164.5 736.578 -168.192 739.315 Q-171.916 742.052 -171.916 746.731 M-176.881 746.731 Q-176.881 739.092 -171.916 734.732 Q-166.951 730.371 -158.166 730.371 Q-149.413 730.371 -144.416 734.732 Q-139.451 739.092 -139.451 746.731 Q-139.451 754.402 -144.416 758.762 Q-149.413 763.091 -158.166 763.091 Q-166.951 763.091 -171.916 758.762 Q-176.881 754.402 -176.881 746.731 Z" fill="#000000" fill-rule="nonzero" fill-opacity="1" /><path clip-path="url(#clip890)" d="M-170.548 700.007 Q-171.12 700.993 -171.375 702.171 Q-171.662 703.317 -171.662 704.717 Q-171.662 709.683 -168.415 712.356 Q-165.2 714.998 -159.153 714.998 L-140.374 714.998 L-140.374 720.886 L-176.022 720.886 L-176.022 714.998 L-170.484 714.998 Q-173.73 713.152 -175.29 710.192 Q-176.881 707.232 -176.881 702.999 Q-176.881 702.394 -176.786 701.662 Q-176.722 700.93 -176.563 700.039 L-170.548 700.007 Z" fill="#000000" fill-rule="nonzero" fill-opacity="1" /><line clip-path="url(#clip892)" x1="166.42" y1="1464" x2="150.42" y2="1448" style="stroke:#009af9; stroke-width:3.2; stroke-opacity:1"/>
<line clip-path="url(#clip892)" x1="166.42" y1="1464" x2="150.42" y2="1480" style="stroke:#009af9; stroke-width:3.2; stroke-opacity:1"/>
<line clip-path="url(#clip892)" x1="166.42" y1="1464" x2="182.42" y2="1480" style="stroke:#009af9; stroke-width:3.2; stroke-opacity:1"/>
<line clip-path="url(#clip892)" x1="166.42" y1="1464" x2="182.42" y2="1448" style="stroke:#009af9; stroke-width:3.2; stroke-opacity:1"/>
</svg>
